<?xml version="1.0" encoding="utf-8"?>
<!DOCTYPE svg PUBLIC "-//W3C//DTD SVG 20010904//EN" "http://www.w3.org/TR/2001/REC-SVG-20010904/DTD/svg10.dtd">
<svg version="1.0" xmlns="http://www.w3.org/2000/svg" width="514pt" height="514pt" viewBox="0 0 514 514" style="" preserveAspectRatio="xMidYMid meet">
<g fill="#89C8FDFF" stroke="#89C8FDFF">
<path d="M 111.302 166.841 C 92.334 182.668 75.892 204.765 65.221 228.772 L 61.988 236.044 65.926 241.025 C 68.091 243.765 72.877 251.517 76.562 258.253 C 80.246 264.989 85.229 273.489 87.635 277.142 C 92.514 284.549 94.401 285.707 109.375 290.485 C 115.888 292.564 119.256 294.275 122.034 296.918 C 129.231 303.764 128.470 309.259 116.759 335.000 C 109.160 351.702 106.000 360.520 106.000 365.022 C 106.000 366.586 108.188 372.126 110.863 377.332 C 118.462 392.121 120.477 400.639 120.390 417.591 L 120.318 431.682 128.409 436.927 C 139.069 443.838 154.424 451.217 166.048 455.016 C 177.313 458.697 198.102 463.061 199.500 462.038 C 200.050 461.636 203.875 460.508 208.000 459.531 C 251.691 449.191 290.303 420.248 313.927 380.130 L 317.090 374.760 310.295 380.926 C 299.248 390.951 285.038 396.732 276.631 394.622 C 272.977 393.705 268.196 389.305 265.843 384.693 C 262.168 377.488 260.929 366.202 260.004 331.500 C 259.415 309.376 258.668 296.687 257.736 293.000 C 255.147 282.747 251.373 278.000 245.810 278.000 C 244.301 278.000 235.972 279.161 227.302 280.580 C 200.303 284.998 186.331 283.926 176.816 276.708 C 163.700 266.757 157.907 245.713 163.820 229.500 C 168.388 216.977 178.383 205.382 194.112 194.361 C 205.818 186.158 205.826 186.232 193.275 186.250 C 182.663 186.266 170.324 185.319 168.791 184.371 C 168.360 184.105 167.106 183.687 166.004 183.443 C 164.902 183.199 162.988 182.749 161.750 182.442 C 160.513 182.134 158.825 181.719 158.000 181.518 C 157.175 181.317 156.388 181.062 156.250 180.952 C 156.113 180.841 155.663 180.656 155.250 180.541 C 154.838 180.426 153.150 179.763 151.500 179.067 C 149.850 178.371 148.050 177.723 147.500 177.627 C 145.203 177.227 132.000 170.579 132.000 169.823 C 132.000 169.370 131.357 169.000 130.571 169.000 C 129.786 169.000 128.548 168.438 127.821 167.750 C 127.095 167.063 125.263 165.861 123.750 165.081 C 122.238 164.301 121.000 163.288 121.000 162.831 C 121.000 160.630 116.531 162.478 111.302 166.841 "/></g>
<g fill="#09A66DFF" stroke="#09A66DFF">
<path d="M 167.037 2.170 C 163.482 2.677 160.370 3.297 160.120 3.547 C 159.870 3.796 161.005 5.688 162.642 7.750 C 179.444 28.922 228.155 92.176 227.870 92.453 C 227.666 92.651 214.675 90.608 199.000 87.912 C 183.325 85.217 170.193 83.009 169.817 83.006 C 169.442 83.003 157.849 68.398 144.055 50.552 C 130.261 32.705 118.644 17.914 118.238 17.683 C 117.074 17.021 105.000 22.784 105.000 24.002 C 105.000 24.604 114.251 37.049 125.557 51.658 C 136.863 66.267 145.956 78.377 145.764 78.570 C 145.571 78.762 124.283 75.340 98.457 70.966 C 72.631 66.591 50.600 63.027 49.500 63.046 C 48.400 63.066 45.993 64.370 44.152 65.945 L 40.804 68.809 43.384 73.213 L 45.965 77.616 92.232 85.394 C 117.680 89.672 139.710 93.471 141.190 93.836 C 143.665 94.447 141.728 96.161 116.831 115.381 L 89.783 136.261 95.238 141.716 L 100.693 147.171 131.596 123.298 C 148.593 110.167 163.105 99.051 163.844 98.595 C 165.412 97.628 228.436 108.011 227.267 109.044 C 226.845 109.417 207.713 124.224 184.750 141.950 C 161.788 159.675 143.000 174.535 143.000 174.973 C 143.000 175.760 156.163 181.000 158.141 181.000 C 158.705 181.000 178.781 165.813 202.753 147.250 C 226.725 128.688 246.939 113.139 247.672 112.699 C 249.851 111.389 326.865 124.753 330.662 127.100 C 350.689 139.478 377.604 167.769 391.928 191.500 C 439.604 270.486 426.969 373.005 361.487 438.487 C 312.912 487.062 243.435 507.725 176.388 493.537 C 102.977 478.002 44.311 423.135 23.518 350.566 C 16.759 326.976 14.318 296.322 17.307 272.564 C 18.252 265.058 18.480 259.762 17.922 258.296 C 16.330 254.107 8.877 253.034 5.941 256.571 C 2.316 260.940 0.374 302.721 2.901 322.000 C 9.310 370.902 31.412 415.611 66.237 450.117 C 100.210 483.781 143.829 504.747 193.000 511.049 C 204.908 512.575 232.619 512.578 244.500 511.055 C 292.019 504.962 335.134 484.339 368.857 451.572 C 399.746 421.558 418.696 388.532 428.987 346.781 C 437.557 312.010 436.957 271.696 427.362 237.500 C 424.545 227.459 418.752 211.468 415.869 205.771 L 413.981 202.043 416.437 201.426 C 418.448 200.922 419.742 198.788 423.580 189.655 C 426.159 183.520 429.076 176.700 430.064 174.500 C 431.051 172.300 435.000 162.850 438.839 153.500 L 445.818 136.500 478.159 122.820 C 495.947 115.295 510.923 108.967 511.441 108.756 C 512.686 108.249 513.460 95.623 512.360 93.753 C 511.653 92.551 506.511 94.387 483.500 104.055 C 468.100 110.525 455.351 115.672 455.168 115.494 C 454.986 115.316 463.232 95.046 473.493 70.450 C 485.949 40.592 491.959 25.027 491.578 23.615 C 491.263 22.452 490.159 20.414 489.125 19.086 C 487.337 16.792 487.024 16.733 482.813 17.912 L 478.383 19.153 472.887 32.326 C 447.332 93.581 439.494 112.000 438.984 112.000 C 438.659 112.000 433.308 99.464 427.093 84.142 C 420.878 68.820 415.410 55.663 414.940 54.904 C 414.272 53.822 413.300 54.279 410.457 57.012 C 408.460 58.930 405.976 61.679 404.937 63.121 L 403.048 65.741 416.524 98.839 C 423.936 117.042 430.000 132.590 430.000 133.388 C 430.000 134.187 424.681 147.589 418.179 163.170 C 411.678 178.752 406.015 192.400 405.595 193.500 C 404.937 195.225 404.483 194.819 402.293 190.545 C 400.896 187.820 397.968 181.070 395.786 175.545 C 391.394 164.427 387.540 158.871 375.194 145.869 C 364.971 135.102 353.485 125.328 341.000 116.772 L 331.500 110.262 291.500 103.537 C 269.500 99.838 251.002 96.292 250.392 95.656 C 249.783 95.020 232.957 73.463 213.002 47.750 C 190.271 18.461 176.118 1.046 175.109 1.123 C 174.224 1.191 170.592 1.662 167.037 2.170 "/></g>
<g fill="#BAEB6CFF" stroke="#BAEB6CFF">
<path d="M 262.255 169.081 C 249.205 175.381 228.354 182.277 215.500 184.544 C 207.294 185.991 204.782 186.875 201.500 189.474 C 199.300 191.215 194.564 194.697 190.975 197.210 C 182.831 202.914 172.289 213.995 168.246 221.100 C 160.657 234.438 159.920 249.034 166.176 262.088 C 171.936 274.107 178.830 279.685 190.843 282.049 C 198.744 283.603 209.604 282.913 230.310 279.539 C 245.331 277.092 246.295 277.046 249.610 278.619 C 251.796 279.656 253.857 281.760 255.127 284.249 C 259.053 291.944 260.077 300.960 261.004 335.964 C 261.944 371.480 262.819 378.517 267.281 386.444 C 272.400 395.538 282.575 396.985 295.720 390.489 C 301.709 387.529 305.537 384.599 312.587 377.580 C 322.855 367.356 328.101 358.965 330.629 348.719 C 332.181 342.432 332.155 341.549 330.034 328.707 C 328.424 318.956 327.910 312.286 328.158 304.386 C 328.471 294.417 328.786 292.910 331.891 286.500 C 335.726 278.581 335.775 277.380 332.881 262.227 C 327.922 236.261 315.397 209.792 297.988 188.486 C 292.180 181.378 274.481 163.943 273.199 164.068 C 272.814 164.105 267.890 166.361 262.255 169.081 "/></g>
<g fill="#60B6FFFF" stroke="#60B6FFFF">
<path d="M 367.990 255.052 C 355.661 262.173 344.341 270.618 339.397 276.384 L 335.869 280.500 336.521 288.500 C 337.192 296.745 335.667 318.050 333.836 326.000 C 333.266 328.475 332.449 335.000 332.020 340.500 C 331.099 352.303 328.983 357.734 320.228 370.765 C 317.000 375.569 311.389 384.000 307.761 389.500 C 286.979 420.998 256.579 444.071 220.201 455.954 C 213.766 458.057 206.590 460.091 204.255 460.475 C 196.588 461.737 198.830 462.769 210.759 463.468 C 236.841 464.995 266.188 459.156 290.500 447.603 C 358.443 415.317 396.728 342.201 384.442 268.198 C 382.581 256.992 380.655 249.718 379.442 249.314 C 378.913 249.138 373.759 251.720 367.990 255.052 "/></g>
<g fill="#BAEB6CFF" stroke="#BAEB6CFF">
<path d="M 59.654 242.750 C 56.565 252.493 55.048 258.753 53.581 267.827 C 45.392 318.455 59.306 367.333 93.084 406.598 C 101.470 416.346 117.587 430.744 118.782 429.554 C 119.177 429.161 119.653 423.903 119.840 417.871 C 120.338 401.783 116.425 386.553 108.611 374.175 C 106.736 371.205 106.002 368.696 106.006 365.270 C 106.013 358.536 107.308 354.563 114.700 338.580 C 131.539 302.173 130.588 297.865 103.768 289.047 C 91.554 285.031 89.793 283.154 77.617 261.171 C 69.132 245.852 63.843 238.000 62.008 238.000 C 61.542 238.000 60.483 240.138 59.654 242.750 "/></g>
<g fill="#96D629FF" stroke="#96D629FF">
<path d="M 288.500 154.561 C 283.000 158.077 277.267 161.467 275.760 162.094 L 273.021 163.234 282.580 172.280 C 303.875 192.434 318.946 215.883 327.856 242.727 C 331.012 252.233 335.000 270.838 335.000 276.051 C 335.000 277.673 335.177 279.000 335.394 279.000 C 335.610 279.000 338.440 276.413 341.683 273.250 C 348.417 266.683 358.687 259.416 371.000 252.508 C 375.675 249.885 379.638 247.622 379.807 247.479 C 379.976 247.336 378.457 242.782 376.431 237.359 C 364.767 206.137 345.870 180.723 319.500 160.796 C 312.870 155.786 300.379 147.952 299.232 148.085 C 298.830 148.131 294.000 151.046 288.500 154.561 "/></g>
<g fill="#07B128FF" stroke="#07B128FF">
<path d="M 177.596 2.087 C 178.198 2.864 180.602 5.954 182.936 8.954 C 185.908 12.773 189.627 15.863 195.340 19.259 C 219.557 33.657 247.989 62.183 266.527 90.683 C 269.812 95.734 273.175 100.106 274.000 100.400 C 276.495 101.287 329.380 109.954 329.791 109.542 C 330.271 109.062 321.448 95.180 313.610 84.084 C 291.254 52.433 265.661 28.744 239.061 15.080 C 221.997 6.315 207.224 2.326 188.000 1.293 C 178.181 0.765 176.660 0.881 177.596 2.087 "/></g>
<g fill="#49CB5CFF" stroke="#49CB5CFF">
<path d="M 133.191 122.060 C 116.036 135.293 102.000 146.533 102.000 147.038 C 102.000 149.399 122.535 164.504 135.171 171.436 L 141.841 175.096 184.171 142.406 C 207.452 124.426 226.844 109.414 227.264 109.044 C 227.886 108.497 169.001 97.971 165.441 97.993 C 164.859 97.997 150.346 108.827 133.191 122.060 "/></g>
<g fill="#49CB5CFF" stroke="#49CB5CFF">
<path d="M 154.500 4.694 C 145.965 6.665 131.505 11.442 121.292 15.665 L 118.083 16.992 143.617 49.996 C 157.661 68.148 169.455 83.003 169.825 83.006 C 170.196 83.009 183.325 85.217 199.000 87.912 C 214.675 90.608 227.665 92.652 227.867 92.456 C 228.069 92.259 212.821 72.276 193.982 48.049 C 172.581 20.528 159.123 4.044 158.114 4.116 C 157.226 4.180 155.600 4.440 154.500 4.694 "/></g>
<g fill="#49CB5CFF" stroke="#49CB5CFF">
<path d="M 397.779 72.996 C 382.976 95.350 380.705 123.065 390.659 159.912 C 392.929 168.315 400.082 187.415 401.484 188.817 C 401.782 189.115 403.489 188.660 405.279 187.807 C 408.285 186.373 409.350 184.289 419.292 160.378 C 425.211 146.145 430.041 133.927 430.026 133.226 C 429.995 131.705 404.135 67.830 403.115 66.754 C 402.726 66.343 400.325 69.153 397.779 72.996 "/></g>
<g fill="#07B128FF" stroke="#07B128FF">
<path d="M 282.828 119.015 C 282.061 121.316 258.490 139.896 244.697 149.073 C 221.436 164.548 194.832 176.899 173.024 182.348 L 167.548 183.716 174.106 184.858 C 183.047 186.415 201.677 186.288 212.077 184.600 C 239.670 180.121 267.524 168.340 296.467 148.908 C 307.855 141.263 328.182 125.864 327.630 125.301 C 327.373 125.039 285.468 118.000 284.167 118.000 C 283.617 118.000 283.014 118.457 282.828 119.015 "/></g>
<g fill="#07B128FF" stroke="#07B128FF">
<path d="M 497.000 114.870 C 489.575 118.031 478.991 122.509 473.480 124.821 C 463.482 129.016 463.457 129.036 461.740 133.869 C 458.790 142.175 450.270 154.030 440.144 163.918 C 430.527 173.311 430.484 173.374 424.859 186.668 C 421.756 194.001 419.597 200.000 420.061 200.000 C 422.069 200.000 442.277 191.648 450.508 187.416 C 464.495 180.224 475.229 172.785 484.624 163.772 C 498.969 150.010 506.040 138.301 510.014 121.726 C 512.094 113.050 512.493 108.960 511.250 109.061 C 510.838 109.095 504.425 111.709 497.000 114.870 "/></g>
<g fill="#49CB5CFF" stroke="#49CB5CFF">
<path d="M 203.523 146.699 C 160.323 180.112 158.768 181.430 161.580 182.249 C 167.052 183.842 171.548 183.134 185.971 178.405 C 204.380 172.369 225.647 161.746 244.697 149.073 C 260.119 138.812 282.500 120.901 282.500 118.820 C 282.500 117.808 255.999 112.308 249.943 112.063 C 249.087 112.028 228.198 127.615 203.523 146.699 "/></g>
<g fill="#49CB5CFF" stroke="#49CB5CFF">
<path d="M 47.000 78.876 C 47.000 79.358 51.030 85.834 55.955 93.268 C 64.587 106.296 75.946 121.117 85.208 131.436 L 89.639 136.372 116.741 115.441 C 131.648 103.929 143.755 94.422 143.647 94.314 C 143.428 94.094 48.757 78.000 47.683 78.000 C 47.307 78.000 47.000 78.394 47.000 78.876 "/></g>
<g fill="#49CB5CFF" stroke="#49CB5CFF">
<path d="M 92.841 30.364 C 80.765 37.617 68.238 46.358 56.222 55.915 C 49.173 61.522 48.282 62.552 50.222 62.849 C 51.475 63.041 73.406 66.736 98.957 71.059 C 124.508 75.382 145.569 78.764 145.759 78.574 C 146.166 78.168 104.749 24.136 103.968 24.055 C 103.676 24.025 98.668 26.864 92.841 30.364 "/></g>
<g fill="#07B128FF" stroke="#07B128FF">
<path d="M 480.012 54.794 L 467.629 84.439 467.780 97.520 L 467.931 110.600 489.715 101.442 L 511.500 92.284 511.252 86.023 C 510.780 74.121 504.238 51.366 496.123 33.401 L 492.396 25.150 480.012 54.794 "/></g>
<g fill="#49CB5CFF" stroke="#49CB5CFF">
<path d="M 442.500 34.776 C 434.605 38.976 423.195 46.444 418.090 50.753 L 414.679 53.631 426.545 82.815 C 433.071 98.867 438.678 112.000 439.004 112.000 C 439.829 112.000 461.021 60.870 461.009 58.907 C 460.990 55.542 451.427 30.975 450.157 31.026 C 449.796 31.041 446.350 32.728 442.500 34.776 "/></g>
<g fill="#49CB5CFF" stroke="#49CB5CFF">
<path d="M 190.543 18.651 C 192.170 20.838 206.470 39.298 222.322 59.672 L 251.143 96.717 261.208 98.389 C 266.744 99.308 271.515 99.818 271.811 99.522 C 272.107 99.226 269.683 95.051 266.425 90.244 C 245.183 58.909 218.000 32.153 192.543 17.522 L 187.587 14.674 190.543 18.651 "/></g>
<g fill="#07B128FF" stroke="#07B128FF">
<path d="M 464.000 24.611 C 457.675 27.145 452.124 29.568 451.664 29.995 C 451.205 30.422 452.845 35.885 455.310 42.136 C 457.775 48.386 460.201 54.811 460.700 56.413 C 461.538 59.099 462.248 57.806 469.762 39.913 C 474.953 27.553 477.476 20.410 476.707 20.251 C 476.043 20.115 470.325 22.076 464.000 24.611 "/></g>
<g fill="#49CB5CFF" stroke="#49CB5CFF">
<path d="M 454.177 132.931 L 445.853 136.500 439.381 152.000 C 435.821 160.525 432.816 168.393 432.704 169.485 C 432.409 172.353 448.627 156.068 453.933 148.168 C 458.475 141.405 463.372 131.498 462.829 130.168 C 462.648 129.724 458.754 130.968 454.177 132.931 "/></g>
<g fill="#89C8FDFF" stroke="#89C8FDFF">
<path d="M 331.934 287.500 C 328.716 294.143 328.542 295.060 328.521 305.500 C 328.501 315.750 330.715 335.618 331.760 334.573 C 334.316 332.017 337.734 295.649 336.279 286.500 L 335.324 280.500 331.934 287.500 "/></g>
<g fill="#49CB5CFF" stroke="#49CB5CFF">
<path d="M 460.674 101.178 C 457.483 108.894 455.014 115.346 455.187 115.517 C 455.524 115.852 464.697 112.025 466.753 110.691 C 468.138 109.792 468.545 90.405 467.222 88.325 C 466.784 87.636 464.072 92.959 460.674 101.178 "/></g>
<g fill="#07B128FF" stroke="#07B128FF">
<path d="M 404.250 188.220 C 401.647 189.476 401.613 189.673 403.434 192.961 L 404.797 195.423 406.398 191.589 C 408.601 186.317 408.506 186.168 404.250 188.220 "/></g>
<g fill="#ADE193FF" stroke="#ADE193FF">
<path d="M 341.500 273.435 L 338.500 276.564 341.500 273.435 L 344.500 270.305 341.500 273.435 "/></g>
</svg>
