<?xml version="1.0" encoding="utf-8"?>
<!DOCTYPE svg PUBLIC "-//W3C//DTD SVG 20010904//EN" "http://www.w3.org/TR/2001/REC-SVG-20010904/DTD/svg10.dtd">
<svg version="1.0" xmlns="http://www.w3.org/2000/svg" width="514pt" height="514pt" viewBox="0 0 514 514" style="" preserveAspectRatio="xMidYMid meet">
<g fill="#2A2927FF" stroke="#2A2927FF">
<path d="M 196.568 24.532 C 174.014 30.721 158.000 50.446 158.000 72.038 C 158.000 77.988 157.743 78.947 155.999 79.500 C 154.758 79.894 152.941 79.382 151.209 78.149 C 149.675 77.056 145.513 75.181 141.960 73.980 C 136.609 72.173 133.869 71.869 126.000 72.212 C 117.808 72.568 115.674 73.051 110.500 75.718 C 107.200 77.419 103.189 80.193 101.586 81.882 L 98.672 84.952 94.261 80.886 C 73.692 61.926 37.390 71.919 28.983 98.855 C 27.893 102.351 27.000 107.148 27.000 109.516 C 27.000 113.604 26.781 113.928 22.674 115.916 C 15.218 119.525 10.340 124.534 6.280 132.748 C 2.801 139.788 2.504 141.062 2.505 148.944 C 2.506 154.657 3.115 159.251 4.340 162.770 C 6.517 169.026 12.477 176.896 17.291 179.871 C 20.217 181.679 20.839 182.728 21.373 186.752 C 24.012 206.641 44.366 221.500 64.352 218.128 L 71.203 216.971 74.718 220.057 C 76.651 221.755 79.756 223.870 81.616 224.757 L 85.000 226.370 85.000 240.501 L 85.000 254.632 80.765 257.012 C 71.033 262.482 61.355 274.435 58.898 284.020 L 57.622 289.000 51.947 289.000 C 27.432 289.000 8.333 304.305 3.452 327.862 C 2.290 333.473 2.000 340.369 2.235 356.862 L 2.542 378.500 9.844 398.000 C 13.860 408.725 17.510 417.874 17.955 418.332 C 18.400 418.790 23.205 419.790 28.632 420.555 C 34.059 421.319 55.996 424.400 77.379 427.402 C 98.763 430.403 116.577 433.228 116.967 433.679 C 117.357 434.131 124.659 442.828 133.194 453.008 C 141.728 463.187 149.339 472.036 150.106 472.673 C 150.873 473.310 164.358 477.694 180.074 482.415 L 208.647 491.000 282.201 491.000 C 340.753 491.000 355.972 490.739 356.818 489.720 C 357.402 489.016 358.020 485.986 358.190 482.988 L 358.500 477.536 377.000 469.218 C 391.424 462.733 405.631 457.603 441.475 445.940 C 466.761 437.711 488.001 430.421 488.675 429.740 C 489.349 429.058 492.145 423.182 494.889 416.682 C 497.633 410.183 501.227 402.758 502.875 400.182 C 506.361 394.736 507.511 391.964 510.103 382.763 C 511.675 377.178 512.000 372.634 512.000 356.213 C 512.000 342.136 511.653 336.053 510.800 335.200 C 510.140 334.540 507.457 334.000 504.838 334.000 C 500.482 334.000 499.552 333.533 493.941 328.526 C 483.565 319.268 472.035 315.000 457.401 315.000 L 449.223 315.000 448.534 311.250 C 447.172 303.841 441.783 294.760 434.262 287.202 L 427.000 279.903 427.000 263.160 L 427.000 246.416 431.250 242.251 L 435.500 238.086 441.963 241.293 C 447.808 244.193 449.296 244.500 457.515 244.500 C 466.012 244.500 467.101 244.254 474.237 240.728 C 482.187 236.798 488.517 230.831 491.979 224.000 C 493.876 220.259 496.000 211.500 496.000 207.420 C 496.000 205.828 497.277 203.818 499.564 201.809 C 506.838 195.423 510.782 182.107 508.184 172.703 C 507.281 169.433 507.471 168.185 509.558 163.703 C 514.441 153.214 511.763 139.652 503.107 131.030 C 496.215 124.166 492.142 122.524 481.638 122.372 L 472.776 122.244 469.840 116.872 C 465.707 109.310 461.576 105.405 453.466 101.391 C 438.038 93.755 421.976 95.192 408.676 105.398 L 403.852 109.099 399.882 105.513 C 397.699 103.540 394.404 101.207 392.561 100.328 C 389.325 98.784 389.198 98.502 388.833 92.049 C 388.307 82.735 383.865 73.942 376.017 66.676 C 367.778 59.049 361.290 56.695 350.000 57.239 C 345.325 57.464 340.807 57.964 339.960 58.350 C 338.813 58.874 338.076 58.090 337.067 55.276 C 332.116 41.469 318.341 29.668 302.297 25.489 C 294.810 23.539 281.760 23.590 274.932 25.595 C 266.990 27.928 258.885 32.523 254.086 37.412 L 249.873 41.705 244.508 36.551 C 234.689 27.116 223.817 22.931 209.540 23.089 C 205.118 23.139 199.281 23.788 196.568 24.532 M 219.500 33.361 C 230.815 36.388 242.077 45.014 247.116 54.512 L 249.363 58.748 253.004 53.124 C 263.778 36.485 283.556 29.221 302.315 35.016 C 309.556 37.252 317.970 43.020 322.364 48.759 C 326.207 53.780 330.707 63.307 331.526 68.157 C 331.893 70.327 332.487 71.944 332.847 71.750 C 343.321 66.105 351.035 64.881 359.456 67.530 C 366.141 69.633 374.068 76.252 377.161 82.315 C 381.560 90.939 380.545 103.187 374.769 111.160 C 373.142 113.407 372.058 115.956 372.346 116.862 C 372.633 117.763 373.613 120.525 374.525 123.000 C 378.965 135.054 372.072 151.910 360.556 157.157 C 358.370 158.152 358.194 158.879 357.843 168.373 C 357.368 181.214 354.701 187.284 345.996 195.343 C 330.340 209.838 307.211 209.141 291.879 193.713 L 287.625 189.431 284.792 195.101 C 279.239 206.214 268.250 214.713 256.500 216.983 C 244.116 219.377 229.949 214.337 221.216 204.432 L 216.659 199.263 212.080 201.382 C 208.380 203.093 205.578 203.500 197.500 203.500 C 188.729 203.500 186.793 203.169 181.747 200.804 C 174.139 197.239 166.030 189.430 162.495 182.266 C 160.284 177.785 159.551 174.683 159.205 168.348 L 158.759 160.195 154.674 158.353 C 149.218 155.893 140.916 147.599 138.151 141.846 C 127.458 119.598 139.632 92.896 163.166 86.978 L 167.831 85.805 167.273 78.429 C 166.554 68.923 168.356 60.481 172.660 53.195 C 182.103 37.208 202.149 28.720 219.500 33.361 M 288.000 430.500 L 288.000 482.000 248.750 481.944 L 209.500 481.888 182.553 473.694 L 155.606 465.500 142.130 449.500 L 128.655 433.500 157.494 433.234 C 176.732 433.057 186.777 432.600 187.666 431.862 C 189.326 430.485 189.399 426.799 187.800 425.200 C 186.914 424.314 177.716 424.000 152.624 424.000 L 118.648 424.000 71.574 417.404 C 45.683 413.777 24.447 410.739 24.382 410.654 C 24.317 410.569 21.919 404.031 19.052 396.124 C 16.186 388.217 13.603 381.129 13.313 380.374 C 12.868 379.213 34.116 379.000 150.393 379.000 L 288.000 379.000 288.000 430.500 M 447.202 108.208 C 455.999 111.944 466.000 125.730 466.000 134.121 C 466.000 135.246 466.338 135.993 466.750 135.781 C 479.134 129.406 487.688 129.617 495.724 136.496 C 503.722 143.342 505.054 153.568 499.178 163.021 C 496.242 167.743 496.183 168.059 497.664 171.029 C 502.418 180.558 498.025 194.262 489.020 197.992 C 486.085 199.207 486.000 199.431 486.000 205.943 C 486.000 214.523 483.845 220.758 478.963 226.305 C 473.685 232.300 466.464 235.430 458.000 235.389 C 450.022 235.351 443.957 232.845 437.554 226.943 C 435.027 224.613 432.856 222.886 432.730 223.104 C 432.603 223.322 431.639 225.192 430.587 227.261 C 427.505 233.319 422.153 238.883 416.638 241.764 C 412.478 243.937 410.168 244.445 404.500 244.435 C 395.908 244.419 390.027 241.855 383.580 235.316 L 379.118 230.790 374.620 232.507 C 371.361 233.752 368.111 234.114 362.811 233.821 C 354.236 233.347 349.207 231.207 343.682 225.682 C 339.645 221.645 335.027 212.824 336.665 212.278 C 337.182 212.106 340.447 210.286 343.922 208.233 C 358.570 199.578 368.000 183.774 368.000 167.877 C 368.000 164.294 368.580 163.322 373.295 159.013 C 376.304 156.263 379.738 151.831 381.248 148.747 C 383.877 143.377 386.182 132.896 385.515 129.340 C 385.325 128.328 384.640 125.025 383.992 122.000 C 382.891 116.857 382.973 116.221 385.262 112.206 L 387.710 107.913 392.701 111.858 C 395.446 114.027 398.998 117.871 400.596 120.400 C 402.193 122.928 403.725 124.976 404.000 124.951 C 404.275 124.927 406.075 122.669 408.000 119.934 C 417.079 107.036 433.134 102.234 447.202 108.208 M 80.139 82.737 C 85.963 85.313 92.371 91.071 95.659 96.681 L 98.207 101.030 101.165 96.565 C 107.924 86.361 117.379 81.025 128.730 81.010 C 134.723 81.002 144.000 83.134 144.000 84.520 C 144.000 84.686 141.638 87.248 138.750 90.212 C 124.251 105.095 120.934 128.123 130.554 147.107 C 133.621 153.159 139.857 160.154 144.871 163.167 C 146.867 164.366 148.640 165.446 148.810 165.567 C 148.981 165.688 149.546 168.873 150.065 172.644 C 151.421 182.495 156.484 192.250 163.925 199.347 L 169.928 205.073 166.798 206.977 C 162.249 209.743 154.500 211.340 149.154 210.612 C 142.709 209.735 134.840 205.673 130.692 201.080 L 127.204 197.220 125.365 201.360 C 122.983 206.723 115.609 214.649 110.647 217.180 C 105.010 220.056 97.491 220.575 90.582 218.567 C 86.057 217.252 83.553 215.661 78.969 211.195 L 73.125 205.500 68.977 207.325 C 63.090 209.915 53.599 209.800 47.396 207.062 C 37.223 202.573 31.012 193.843 30.229 182.934 L 29.758 176.368 25.328 174.018 C 17.481 169.855 12.123 161.453 11.263 151.961 C 10.016 138.216 19.286 125.248 32.805 121.825 L 37.111 120.735 36.457 115.501 C 34.625 100.838 43.272 86.806 57.205 81.833 C 63.840 79.465 73.611 79.850 80.139 82.737 M 323.475 259.200 C 335.967 262.336 347.377 271.914 353.586 284.477 C 358.054 293.517 359.293 293.834 367.550 288.050 C 373.441 283.923 382.269 280.593 390.114 279.539 C 396.725 278.650 407.445 280.633 414.670 284.081 C 427.383 290.148 436.363 301.278 439.991 315.465 C 441.106 319.826 442.577 323.765 443.259 324.218 C 443.942 324.671 446.075 324.763 448.000 324.422 C 458.501 322.560 472.990 325.169 481.500 330.454 L 485.500 332.938 393.387 332.969 L 301.274 333.000 300.062 325.486 C 298.675 316.885 291.168 299.696 288.077 298.041 C 287.007 297.469 284.778 297.000 283.125 297.000 C 281.471 297.000 279.917 296.663 279.672 296.250 C 279.426 295.838 279.062 289.896 278.862 283.046 L 278.500 270.592 283.500 266.789 C 294.509 258.416 309.222 255.623 323.475 259.200 M 500.000 379.832 C 500.000 380.289 496.058 390.076 491.240 401.582 L 482.481 422.500 435.990 438.000 C 405.573 448.141 384.333 455.834 374.555 460.250 C 366.335 463.963 359.247 467.000 358.805 467.000 C 358.362 467.000 358.000 447.200 358.000 423.000 L 358.000 379.000 429.000 379.000 C 468.050 379.000 500.000 379.374 500.000 379.832 M 191.249 241.165 C 195.590 242.110 206.940 248.475 208.348 250.755 C 208.697 251.319 205.080 251.980 199.505 252.372 C 194.317 252.737 189.493 253.258 188.786 253.531 C 188.079 253.804 181.038 263.877 173.141 275.917 L 158.782 297.807 151.746 295.414 L 144.710 293.020 130.203 296.947 C 122.225 299.106 115.322 301.464 114.864 302.186 C 114.405 302.909 114.024 310.138 114.015 318.250 L 114.000 333.000 62.869 333.000 L 11.738 333.000 12.343 329.275 C 13.420 322.635 18.708 313.468 24.527 308.149 C 32.625 300.748 38.823 298.642 52.799 298.540 C 65.410 298.449 65.391 298.459 66.374 291.286 C 67.206 285.221 72.370 275.836 77.454 271.150 C 92.702 257.094 114.313 255.134 129.975 266.387 C 137.557 271.834 138.991 271.426 143.364 262.578 C 149.279 250.610 160.427 242.173 173.000 240.150 C 178.815 239.214 183.479 239.474 191.249 241.165 M 228.165 343.000 L 288.000 343.000 288.000 356.500 L 288.000 370.000 149.500 370.000 L 11.000 370.000 11.000 356.667 C 11.000 349.333 11.338 342.972 11.750 342.531 C 12.163 342.089 47.562 342.014 90.415 342.364 C 133.269 342.714 195.256 343.000 228.165 343.000 M 348.757 412.250 L 349.014 482.000 323.007 482.000 L 297.000 482.000 297.000 412.667 C 297.000 374.533 297.308 343.026 297.683 342.650 C 298.059 342.274 309.647 342.086 323.433 342.233 L 348.500 342.500 348.757 412.250 M 231.468 265.507 L 245.709 270.013 253.190 286.257 C 261.607 304.533 260.194 303.271 274.292 305.087 L 283.085 306.219 286.455 312.911 C 289.198 318.358 292.000 328.096 292.000 332.184 C 292.000 332.633 268.180 333.000 239.067 333.000 C 189.515 333.000 186.102 332.888 185.627 331.250 C 185.348 330.288 184.580 325.000 183.921 319.500 C 182.254 305.585 182.251 305.579 174.525 303.008 L 167.923 300.811 169.712 298.026 C 170.695 296.494 176.450 287.785 182.500 278.674 L 193.500 262.107 199.500 261.746 C 215.916 260.759 216.789 260.862 231.468 265.507 M 502.778 356.250 L 503.056 370.000 430.528 370.000 L 358.000 370.000 358.000 356.667 C 358.000 349.333 358.303 343.030 358.673 342.660 C 359.044 342.290 391.556 342.102 430.923 342.243 L 502.500 342.500 502.778 356.250 M 295.200 207.841 C 302.642 212.756 307.782 214.293 317.921 214.635 L 327.341 214.952 328.592 218.590 C 334.259 235.074 353.871 246.452 370.622 242.975 C 376.062 241.845 376.276 241.887 379.845 244.755 C 381.855 246.370 384.979 248.455 386.786 249.390 L 390.071 251.088 389.786 260.782 L 389.500 270.477 384.341 271.217 C 378.398 272.070 369.897 275.225 365.927 278.052 C 364.422 279.123 362.986 280.000 362.735 280.000 C 362.484 280.000 360.411 277.112 358.129 273.583 C 347.835 257.666 331.638 249.000 312.184 249.000 C 302.222 249.000 293.897 250.976 285.580 255.314 C 282.236 257.059 279.163 258.639 278.750 258.826 C 278.338 259.013 278.000 249.967 278.000 238.724 L 278.000 218.281 284.250 211.689 C 287.688 208.063 290.590 205.075 290.700 205.048 C 290.810 205.022 292.835 206.278 295.200 207.841 M 184.409 211.511 C 190.278 213.291 203.889 213.345 209.500 211.609 C 213.462 210.384 213.546 210.413 218.302 214.636 C 220.944 216.981 225.313 219.935 228.011 221.200 L 232.918 223.500 232.959 239.750 C 232.982 248.688 232.888 255.995 232.750 255.989 C 232.613 255.983 230.415 255.346 227.868 254.572 C 224.462 253.539 221.416 251.357 216.368 246.333 C 205.486 235.506 194.495 231.033 178.718 231.012 C 169.359 230.999 160.747 233.191 154.000 237.303 C 148.634 240.573 141.426 247.662 137.937 253.098 C 136.207 255.794 134.726 257.997 134.646 257.994 C 134.566 257.990 131.575 256.490 128.000 254.661 L 121.500 251.334 121.227 236.917 L 120.953 222.500 125.323 217.743 L 129.694 212.987 136.011 216.243 C 141.861 219.259 143.038 219.499 151.914 219.482 C 160.117 219.466 162.294 219.091 167.000 216.878 C 170.025 215.455 173.625 213.341 175.000 212.179 C 178.005 209.640 178.196 209.626 184.409 211.511 M 159.321 307.607 C 166.924 310.141 173.332 312.728 173.561 313.357 C 173.790 313.986 174.584 318.663 175.326 323.750 L 176.676 333.000 149.838 333.000 L 123.000 333.000 123.000 320.687 L 123.000 308.373 132.750 305.772 C 138.113 304.341 143.174 303.132 143.999 303.085 C 144.823 303.038 151.718 305.073 159.321 307.607 M 269.225 262.250 C 269.417 285.106 269.175 295.001 268.425 295.000 C 267.834 295.000 263.986 287.688 259.874 278.750 L 252.398 262.500 247.199 260.625 L 242.000 258.749 242.000 242.577 L 242.000 226.405 248.250 226.753 C 252.108 226.968 257.179 226.412 261.500 225.300 L 268.500 223.500 268.725 226.500 C 268.848 228.150 269.073 244.238 269.225 262.250 M 112.000 238.500 L 112.000 250.000 106.125 250.000 C 102.894 250.000 98.844 250.281 97.125 250.625 L 94.000 251.250 94.000 240.125 L 94.000 229.000 99.250 228.882 C 102.138 228.817 105.850 228.420 107.500 228.000 C 109.150 227.580 110.838 227.183 111.250 227.118 C 111.663 227.053 112.000 232.175 112.000 238.500 M 418.000 263.500 C 418.000 269.825 417.663 274.985 417.250 274.967 C 416.838 274.949 414.025 274.064 411.000 273.000 C 407.975 271.936 404.263 271.051 402.750 271.033 L 400.000 271.000 400.000 262.500 L 400.000 254.000 404.750 253.882 C 407.363 253.817 410.850 253.420 412.500 253.000 C 418.199 251.550 418.000 251.169 418.000 263.500 "/></g>
<g fill="#4AC55EFF" stroke="#4AC55EFF">
<path d="M 200.500 33.117 C 193.436 34.735 184.031 39.872 179.200 44.752 C 170.563 53.477 166.380 65.120 167.261 77.979 L 167.803 85.884 164.651 86.554 C 150.690 89.519 139.050 100.838 135.429 114.970 C 132.885 124.899 134.849 137.510 140.168 145.401 C 143.189 149.883 150.853 156.630 155.098 158.544 L 158.759 160.195 159.205 168.348 C 159.551 174.683 160.284 177.785 162.495 182.266 C 166.026 189.422 173.959 197.060 181.662 200.721 C 186.833 203.178 188.642 203.495 197.500 203.497 C 205.582 203.500 208.378 203.094 212.080 201.382 L 216.659 199.263 221.216 204.432 C 240.056 225.801 273.085 220.129 285.522 193.388 L 287.435 189.277 291.806 193.648 C 302.820 204.662 318.334 208.446 332.500 203.574 C 339.396 201.202 342.933 198.848 348.427 192.974 C 355.394 185.526 357.318 180.479 357.808 168.361 C 358.191 158.896 358.374 158.151 360.556 157.157 C 372.072 151.910 378.965 135.054 374.525 123.000 C 373.613 120.525 372.627 117.741 372.334 116.814 C 372.034 115.866 372.929 113.649 374.381 111.746 C 378.300 106.607 379.910 100.945 379.628 93.296 C 379.316 84.861 376.896 79.890 370.145 73.820 C 359.925 64.631 347.183 63.921 332.869 71.742 C 332.523 71.932 331.920 70.380 331.531 68.294 C 328.785 53.588 316.270 39.326 302.336 35.022 C 283.291 29.140 263.776 36.603 252.449 54.102 L 249.398 58.815 247.128 54.535 C 245.178 50.860 241.782 46.999 234.937 40.675 C 232.366 38.300 225.079 34.911 219.313 33.409 C 213.289 31.840 206.533 31.735 200.500 33.117 "/></g>
<g fill="#B5865CFF" stroke="#B5865CFF">
<path d="M 13.313 380.374 C 13.603 381.129 16.186 388.217 19.052 396.124 C 21.919 404.031 24.317 410.569 24.382 410.654 C 24.447 410.739 45.683 413.777 71.574 417.404 L 118.648 424.000 152.624 424.000 C 177.716 424.000 186.914 424.314 187.800 425.200 C 189.399 426.799 189.326 430.485 187.666 431.862 C 186.777 432.600 176.732 433.057 157.494 433.234 L 128.655 433.500 142.130 449.500 L 155.606 465.500 182.553 473.694 L 209.500 481.888 248.750 481.944 L 288.000 482.000 288.000 430.500 L 288.000 379.000 150.393 379.000 C 34.116 379.000 12.868 379.213 13.313 380.374 M 239.800 425.200 C 240.460 425.860 241.000 427.345 241.000 428.500 C 241.000 432.443 239.204 433.000 226.500 433.000 C 213.796 433.000 212.000 432.443 212.000 428.500 C 212.000 424.557 213.796 424.000 226.500 424.000 C 234.578 424.000 238.999 424.399 239.800 425.200 "/></g>
<g fill="#4AC55EFF" stroke="#4AC55EFF">
<path d="M 427.000 106.564 C 419.791 108.519 412.349 113.756 408.000 119.934 C 406.075 122.669 404.275 124.927 404.000 124.951 C 403.725 124.976 402.285 123.073 400.799 120.722 C 398.158 116.540 396.487 114.822 390.591 110.228 L 387.682 107.962 385.248 112.231 C 382.975 116.219 382.892 116.862 383.992 122.000 C 384.640 125.025 385.325 128.328 385.515 129.340 C 386.145 132.702 383.981 142.982 381.502 148.402 C 379.983 151.722 376.963 155.661 373.529 158.800 C 368.577 163.326 368.000 164.272 368.000 167.877 C 368.000 178.418 363.744 189.601 356.679 197.628 C 352.524 202.348 341.470 210.987 339.550 211.015 C 336.489 211.060 335.834 212.667 337.375 216.354 C 340.628 224.141 346.644 229.743 355.000 232.767 C 359.535 234.408 370.454 234.119 375.290 232.231 L 379.079 230.751 383.561 235.296 C 390.038 241.866 395.873 244.407 404.485 244.405 C 409.853 244.405 412.557 243.861 416.000 242.090 C 421.618 239.201 428.070 232.552 430.872 226.765 L 433.009 222.351 437.646 226.794 C 443.983 232.867 449.902 235.357 458.000 235.360 C 474.530 235.365 486.492 222.719 485.884 205.883 C 485.742 201.947 486.076 199.475 486.781 199.240 C 493.842 196.886 500.420 186.576 499.737 178.933 C 499.512 176.421 498.601 172.906 497.711 171.122 C 496.133 167.958 496.169 167.756 499.178 162.866 C 505.300 152.916 503.725 142.991 494.921 136.032 C 486.783 129.599 478.896 129.529 466.750 135.781 C 466.338 135.993 466.000 135.250 466.000 134.130 C 466.000 132.151 465.346 130.238 462.208 123.030 C 456.734 110.458 440.550 102.889 427.000 106.564 "/></g>
<g fill="#4AC55EFF" stroke="#4AC55EFF">
<path d="M 60.500 80.645 C 55.399 82.000 47.703 86.586 44.406 90.236 C 38.532 96.738 36.647 102.115 36.710 112.196 L 36.764 120.893 33.632 121.569 C 25.246 123.377 18.313 128.838 14.376 136.733 C 10.583 144.339 10.377 155.089 13.895 161.869 C 16.620 167.120 22.584 173.171 26.726 174.887 C 29.563 176.062 29.772 176.529 30.265 182.818 C 30.869 190.514 32.793 194.933 37.887 200.324 C 45.697 208.589 58.828 211.559 68.792 207.313 L 73.085 205.484 78.932 211.171 C 83.229 215.349 86.139 217.261 89.907 218.380 C 96.723 220.404 105.411 219.862 110.667 217.086 C 115.877 214.334 122.957 206.781 125.324 201.451 L 127.123 197.401 131.640 201.792 C 139.809 209.731 150.124 212.559 160.214 209.626 C 165.333 208.138 171.944 204.110 169.393 204.033 C 168.784 204.015 165.957 201.671 163.111 198.826 C 157.357 193.071 151.062 181.472 150.380 175.367 C 149.337 166.035 149.133 165.645 143.371 162.000 C 133.413 155.700 126.211 141.973 125.272 127.500 C 124.358 113.424 129.208 100.007 138.750 90.212 C 141.638 87.248 144.000 84.686 144.000 84.520 C 144.000 84.353 142.136 83.471 139.858 82.560 C 133.876 80.166 122.360 80.634 116.230 83.520 C 110.214 86.353 104.843 91.012 101.127 96.623 L 98.207 101.030 95.659 96.681 C 92.369 91.067 86.349 85.666 80.300 82.902 C 75.572 80.742 64.772 79.511 60.500 80.645 "/></g>
<g fill="#75C236FF" stroke="#75C236FF">
<path d="M 300.459 259.395 C 293.878 260.994 286.537 264.589 282.351 268.265 C 279.002 271.205 279.000 271.213 279.000 280.479 C 279.000 294.767 279.324 295.662 284.857 296.661 L 289.500 297.500 294.306 307.369 C 296.949 312.797 299.549 319.772 300.083 322.869 C 300.616 325.966 301.275 329.513 301.546 330.750 L 302.038 333.000 393.269 332.983 L 484.500 332.966 481.330 330.936 C 474.150 326.336 467.098 324.629 455.000 324.563 C 448.675 324.528 442.968 324.155 442.317 323.733 C 441.667 323.310 440.606 320.385 439.960 317.233 C 438.068 308.000 434.257 301.105 427.076 293.924 C 416.689 283.537 405.406 279.263 391.038 280.273 C 382.179 280.895 374.845 283.578 367.046 289.049 C 358.629 294.953 358.273 294.813 352.523 283.319 C 343.129 264.540 321.046 254.393 300.459 259.395 "/></g>
<g fill="#B5865CFF" stroke="#B5865CFF">
<path d="M 358.000 423.000 C 358.000 447.200 358.362 467.000 358.805 467.000 C 359.247 467.000 366.335 463.963 374.555 460.250 C 384.333 455.834 405.573 448.141 435.990 438.000 L 482.481 422.500 491.240 401.582 C 496.058 390.076 500.000 380.289 500.000 379.832 C 500.000 379.374 468.050 379.000 429.000 379.000 L 358.000 379.000 358.000 423.000 "/></g>
<g fill="#75C236FF" stroke="#75C236FF">
<path d="M 168.000 241.875 C 157.252 245.329 149.030 252.468 143.632 263.037 C 139.719 270.698 137.917 272.085 134.587 270.000 C 119.953 260.839 117.979 260.102 107.932 260.044 C 99.808 259.997 91.634 261.937 86.000 265.248 C 76.430 270.874 68.092 282.439 66.457 292.356 C 66.081 294.635 65.343 297.035 64.816 297.688 C 64.188 298.466 60.344 298.874 53.679 298.868 C 41.797 298.859 34.629 300.900 27.076 306.444 C 20.088 311.574 14.262 320.985 12.648 329.750 L 12.050 333.000 62.525 333.000 L 113.000 333.000 113.000 318.611 C 113.000 306.367 113.261 303.911 114.750 302.138 C 115.956 300.702 120.697 298.917 130.000 296.395 C 143.469 292.744 143.514 292.739 149.500 294.288 C 152.800 295.143 156.208 296.120 157.073 296.460 C 158.267 296.929 162.109 291.872 173.021 275.468 C 180.927 263.583 188.177 253.440 189.132 252.929 C 190.087 252.418 194.793 252.000 199.589 252.000 C 208.234 252.000 208.294 251.983 206.508 250.009 C 198.959 241.667 180.669 237.804 168.000 241.875 "/></g>
<g fill="#BBEC6CFF" stroke="#BBEC6CFF">
<path d="M 11.000 356.000 L 11.000 369.000 149.500 369.000 L 288.000 369.000 288.000 356.000 L 288.000 343.000 149.500 343.000 L 11.000 343.000 11.000 356.000 "/></g>
<g fill="#82B9EDFF" stroke="#82B9EDFF">
<path d="M 298.000 412.000 L 298.000 481.000 323.000 481.000 L 348.000 481.000 348.000 412.000 L 348.000 343.000 323.000 343.000 L 298.000 343.000 298.000 412.000 "/></g>
<g fill="#C6D8FBFF" stroke="#C6D8FBFF">
<path d="M 209.892 261.442 C 209.649 261.684 205.935 261.976 201.639 262.090 L 193.827 262.297 180.940 281.589 C 168.898 299.618 168.199 300.924 170.277 301.522 C 176.754 303.387 181.202 305.509 182.082 307.154 C 182.626 308.170 183.307 311.363 183.596 314.250 C 183.884 317.138 184.540 322.200 185.053 325.500 C 185.565 328.800 185.988 331.838 185.992 332.250 C 185.997 332.663 209.880 333.000 239.067 333.000 C 289.129 333.000 292.107 332.901 291.640 331.250 C 291.369 330.288 290.837 327.475 290.460 325.000 C 290.082 322.525 289.173 319.375 288.438 318.000 C 287.704 316.625 286.238 313.436 285.180 310.914 L 283.257 306.327 272.516 305.002 C 259.890 303.444 261.540 305.125 251.947 284.040 L 245.666 270.233 231.057 265.617 C 217.974 261.482 211.189 260.144 209.892 261.442 "/></g>
<g fill="#BBEC6CFF" stroke="#BBEC6CFF">
<path d="M 359.000 356.000 L 359.000 369.000 430.500 369.000 L 502.000 369.000 502.000 356.000 L 502.000 343.000 430.500 343.000 L 359.000 343.000 359.000 356.000 "/></g>
<g fill="#C6D8FBFF" stroke="#C6D8FBFF">
<path d="M 133.000 305.932 L 123.500 308.645 123.219 320.822 L 122.938 333.000 149.567 333.000 L 176.196 333.000 175.487 326.750 C 175.097 323.313 174.484 318.737 174.125 316.583 L 173.473 312.666 159.013 307.833 C 151.060 305.175 144.091 303.049 143.526 303.109 C 142.962 303.170 138.225 304.440 133.000 305.932 "/></g>
<g fill="#B5865CFF" stroke="#B5865CFF">
<path d="M 261.500 225.300 C 257.179 226.412 252.108 226.968 248.250 226.753 L 242.000 226.405 242.000 242.577 L 242.000 258.749 247.199 260.625 L 252.398 262.500 259.874 278.750 C 263.986 287.688 267.834 295.000 268.425 295.000 C 269.175 295.001 269.417 285.106 269.225 262.250 C 269.073 244.238 268.848 228.150 268.725 226.500 L 268.500 223.500 261.500 225.300 "/></g>
<g fill="#B5865CFF" stroke="#B5865CFF">
<path d="M 107.500 228.000 C 105.850 228.420 102.138 228.817 99.250 228.882 L 94.000 229.000 94.000 240.125 L 94.000 251.250 97.125 250.625 C 98.844 250.281 102.894 250.000 106.125 250.000 L 112.000 250.000 112.000 238.500 C 112.000 232.175 111.663 227.053 111.250 227.118 C 110.838 227.183 109.150 227.580 107.500 228.000 "/></g>
<g fill="#B5865CFF" stroke="#B5865CFF">
<path d="M 412.500 253.000 C 410.850 253.420 407.363 253.817 404.750 253.882 L 400.000 254.000 400.000 262.500 L 400.000 271.000 402.750 271.033 C 404.263 271.051 407.975 271.936 411.000 273.000 C 414.025 274.064 416.838 274.949 417.250 274.967 C 417.663 274.985 418.000 269.825 418.000 263.500 C 418.000 251.169 418.199 251.550 412.500 253.000 "/></g>
<g fill="#2A2927FF" stroke="#2A2927FF">
<path d="M 213.200 425.200 C 212.540 425.860 212.000 427.345 212.000 428.500 C 212.000 432.443 213.796 433.000 226.500 433.000 C 239.204 433.000 241.000 432.443 241.000 428.500 C 241.000 424.557 239.204 424.000 226.500 424.000 C 218.422 424.000 214.001 424.399 213.200 425.200 "/></g>
<g fill="#C6D8FBFF" stroke="#C6D8FBFF">
<path d="M 348.243 411.733 L 348.000 480.966 322.750 481.251 L 297.500 481.536 323.257 481.768 L 349.014 482.000 348.750 412.250 L 348.486 342.500 348.243 411.733 "/></g>
<g fill="#B5865CFF" stroke="#B5865CFF">
<path d="M 502.219 355.743 L 502.000 368.987 429.750 369.250 L 357.500 369.513 430.278 369.757 L 503.056 370.000 502.748 356.250 L 502.439 342.500 502.219 355.743 "/></g>
<g fill="#B5865CFF" stroke="#B5865CFF">
<path d="M 427.500 293.500 L 431.000 297.000 427.500 293.500 L 424.000 290.000 427.500 293.500 "/></g>
</svg>
