<?xml version="1.0" encoding="utf-8"?>
<!DOCTYPE svg PUBLIC "-//W3C//DTD SVG 20010904//EN" "http://www.w3.org/TR/2001/REC-SVG-20010904/DTD/svg10.dtd">
<svg version="1.0" xmlns="http://www.w3.org/2000/svg" width="514pt" height="514pt" viewBox="0 0 514 514" style="" preserveAspectRatio="xMidYMid meet">
<g fill="#FEDF30FF" stroke="#FEDF30FF">
<path d="M 239.271 52.886 C 235.295 53.292 231.885 53.822 231.694 54.063 C 231.502 54.303 229.640 58.550 227.554 63.500 C 225.468 68.450 223.637 72.641 223.484 72.814 C 223.331 72.987 219.490 69.782 214.949 65.692 L 206.694 58.256 198.597 60.711 C 186.672 64.327 173.757 69.568 162.878 75.207 L 153.256 80.194 152.636 85.347 C 152.296 88.181 152.013 92.413 152.009 94.750 C 152.004 97.088 151.583 99.000 151.072 99.000 C 150.562 99.000 146.474 97.701 141.988 96.113 L 133.831 93.227 127.666 98.256 C 118.788 105.498 107.841 116.313 100.300 125.292 L 93.757 133.085 97.028 142.292 C 98.827 147.357 100.499 152.047 100.743 152.715 C 101.071 153.611 98.336 154.005 90.344 154.215 L 79.500 154.500 73.453 166.611 C 70.127 173.272 65.665 183.806 63.538 190.020 L 59.671 201.318 69.389 210.772 C 74.734 215.971 78.971 220.325 78.804 220.447 C 78.637 220.569 73.175 222.881 66.666 225.585 C 57.422 229.424 54.606 231.047 53.797 233.000 C 52.539 236.034 52.182 269.918 53.310 279.070 L 54.121 285.639 64.072 290.535 L 74.024 295.432 66.540 302.966 L 59.056 310.500 63.066 322.500 C 65.271 329.100 69.733 340.013 72.981 346.750 L 78.886 359.000 92.050 359.000 C 102.187 359.000 105.097 359.287 104.704 360.250 C 104.423 360.938 102.175 366.284 99.709 372.131 L 95.224 382.762 101.951 390.631 C 108.950 398.819 120.047 409.672 128.337 416.436 L 133.161 420.373 142.882 417.186 C 148.228 415.434 152.901 414.000 153.266 414.000 C 153.631 414.000 154.058 418.613 154.215 424.250 L 154.500 434.500 166.611 440.547 C 173.272 443.873 183.808 448.336 190.024 450.464 L 201.327 454.332 209.414 445.634 C 213.861 440.850 217.776 436.950 218.113 436.968 C 218.450 436.986 221.107 442.151 224.019 448.448 L 229.312 459.895 234.906 460.684 C 242.093 461.698 273.036 461.672 279.302 460.647 L 284.103 459.862 289.080 449.231 L 294.057 438.600 302.278 446.773 L 310.500 454.945 322.500 450.935 C 329.100 448.729 340.013 444.267 346.750 441.019 L 359.000 435.114 359.000 423.057 C 359.000 416.426 359.376 411.000 359.835 411.000 C 360.294 411.000 365.093 412.800 370.500 415.000 C 375.907 417.200 380.769 419.000 381.304 419.000 C 384.166 419.000 413.019 391.569 415.983 386.031 C 416.641 384.802 415.406 381.124 411.444 372.513 C 408.450 366.007 406.000 360.543 406.000 360.370 C 406.000 360.197 412.413 359.930 420.250 359.777 L 434.500 359.500 440.520 347.445 C 443.830 340.815 448.176 330.639 450.177 324.831 L 453.815 314.272 445.398 305.899 L 436.981 297.525 448.346 291.827 L 459.710 286.129 460.373 281.314 C 461.590 272.466 462.106 250.595 461.299 242.126 L 460.500 233.751 450.250 229.711 C 444.613 227.489 440.000 225.254 440.000 224.745 C 440.000 224.236 443.544 219.971 447.875 215.267 L 455.750 206.715 453.277 198.607 C 449.742 187.025 444.903 174.752 440.119 165.237 L 435.978 157.000 423.989 157.000 C 415.289 157.000 412.000 156.669 412.000 155.792 C 412.000 155.128 413.836 149.725 416.081 143.786 L 420.162 132.987 413.659 125.244 C 405.908 116.014 395.045 105.333 385.710 97.762 L 378.921 92.256 369.760 95.128 C 364.721 96.708 360.481 98.000 360.337 98.000 C 360.193 98.000 359.946 93.838 359.788 88.750 L 359.500 79.500 347.478 73.443 C 337.492 68.413 312.627 59.000 309.323 59.000 C 308.821 59.000 304.882 62.150 300.571 66.000 C 296.259 69.850 292.387 73.000 291.967 73.000 C 291.546 73.000 289.469 68.898 287.351 63.884 C 284.540 57.230 282.868 54.527 281.159 53.874 C 277.996 52.667 248.269 51.965 239.271 52.886 M 274.789 86.067 C 325.958 91.689 371.175 118.873 399.431 161.000 C 443.149 226.182 437.663 310.981 385.870 370.650 C 351.996 409.674 303.117 430.648 250.535 428.722 C 169.576 425.756 102.060 367.166 87.464 287.210 C 85.253 275.100 84.466 250.644 85.897 238.511 C 91.585 190.281 115.507 148.104 153.283 119.701 C 179.673 99.859 205.303 90.079 242.500 85.656 C 249.230 84.856 265.672 85.065 274.789 86.067 "/></g>
<g fill="#FED402FF" stroke="#FED402FF">
<path d="M 242.500 85.656 C 205.303 90.079 179.673 99.859 153.283 119.701 C 115.507 148.104 91.585 190.281 85.897 238.511 C 84.466 250.644 85.253 275.100 87.464 287.210 C 97.357 341.405 132.325 387.611 181.587 411.582 C 221.983 431.238 268.731 434.415 311.000 420.377 C 367.975 401.454 411.061 353.892 424.581 295.000 C 433.310 256.974 428.342 215.738 410.785 180.500 C 384.482 127.710 333.857 92.556 274.789 86.067 C 265.672 85.065 249.230 84.856 242.500 85.656 M 283.712 126.929 C 310.084 132.335 333.101 145.085 352.303 164.923 C 370.738 183.966 382.444 206.396 387.656 232.661 C 390.057 244.757 390.057 269.243 387.656 281.339 C 382.538 307.128 371.076 329.360 353.227 348.116 C 328.676 373.915 297.998 387.892 261.945 389.705 L 250.286 390.291 239.459 385.119 C 203.177 367.787 176.072 341.157 158.053 305.139 C 140.613 270.276 135.753 228.724 144.646 190.500 C 146.682 181.746 152.143 174.018 165.199 161.412 C 186.765 140.591 212.358 128.643 244.000 124.625 C 251.862 123.627 273.817 124.900 283.712 126.929 "/></g>
<g fill="#FEDF30FF" stroke="#FEDF30FF">
<path d="M 244.000 124.625 C 212.358 128.643 186.765 140.591 165.199 161.412 C 152.143 174.018 146.682 181.746 144.646 190.500 C 135.753 228.724 140.613 270.276 158.053 305.139 C 176.072 341.157 203.177 367.787 239.459 385.119 L 250.286 390.291 261.945 389.705 C 297.998 387.892 328.676 373.915 353.227 348.116 C 371.076 329.360 382.538 307.128 387.656 281.339 C 390.057 269.243 390.057 244.757 387.656 232.661 C 377.058 179.260 336.187 137.686 283.712 126.929 C 273.817 124.900 251.862 123.627 244.000 124.625 M 320.896 168.405 C 322.053 169.453 323.000 171.217 323.000 172.326 C 323.000 173.435 316.250 185.003 308.000 198.033 C 299.750 211.063 293.000 222.654 293.000 223.790 C 293.000 228.238 295.283 229.000 308.617 229.000 C 320.528 229.000 321.202 229.111 323.545 231.455 C 324.895 232.805 326.000 234.591 326.000 235.423 C 326.000 237.524 237.512 355.162 234.594 356.941 C 232.497 358.218 231.929 358.183 229.561 356.632 C 228.094 355.670 226.660 354.276 226.375 353.534 C 226.090 352.792 230.389 331.639 235.929 306.527 C 246.239 259.784 246.452 258.155 242.446 256.618 C 241.561 256.278 229.874 256.000 216.475 256.000 C 192.434 256.000 192.093 255.971 190.557 253.777 C 189.701 252.555 189.000 251.013 189.000 250.350 C 189.000 249.687 196.225 230.916 205.056 208.637 C 219.533 172.112 221.377 168.031 223.806 167.129 C 225.487 166.504 243.844 166.198 272.646 166.314 C 316.478 166.491 318.897 166.596 320.896 168.405 "/></g>
<g fill="#FFF9E2FF" stroke="#FFF9E2FF">
<path d="M 222.743 168.250 C 220.791 169.738 190.000 247.107 190.000 250.523 C 190.000 255.544 192.379 256.000 218.568 256.000 C 240.667 256.000 242.829 256.153 244.345 257.829 C 245.255 258.835 246.011 260.522 246.025 261.579 C 246.039 262.635 241.702 283.136 236.387 307.135 C 230.144 335.332 226.956 351.689 227.378 353.369 C 228.050 356.049 231.655 357.730 234.438 356.662 C 236.841 355.740 325.000 237.547 325.000 235.247 C 325.000 230.759 322.742 230.000 309.383 230.000 C 297.472 230.000 296.798 229.889 294.455 227.545 C 293.105 226.195 292.000 224.471 292.000 223.713 C 292.000 222.955 298.750 211.669 307.000 198.632 C 322.563 174.039 324.186 170.240 320.066 168.035 C 317.055 166.424 224.871 166.627 222.743 168.250 "/></g>
<g fill="#FEE97DFF" stroke="#FEE97DFF">
<path d="M 158.045 20.446 C 157.175 21.494 156.189 31.201 154.967 50.744 C 153.978 66.560 153.262 79.593 153.374 79.707 C 153.487 79.820 157.868 77.702 163.109 74.999 C 173.756 69.509 189.049 63.352 199.250 60.447 C 202.963 59.390 205.967 58.294 205.928 58.012 C 205.726 56.588 163.070 19.457 161.341 19.202 C 160.232 19.038 158.749 19.598 158.045 20.446 "/></g>
<g fill="#FEE97DFF" stroke="#FEE97DFF">
<path d="M 407.500 83.557 C 392.650 88.203 380.128 92.126 379.673 92.277 C 379.219 92.428 380.996 94.094 383.622 95.980 C 390.161 100.676 407.909 117.899 414.203 125.657 C 417.046 129.161 419.710 131.684 420.123 131.264 C 421.480 129.883 439.000 81.715 439.000 79.365 C 439.000 77.531 436.336 74.787 434.816 75.056 C 434.642 75.086 422.350 78.912 407.500 83.557 "/></g>
<g fill="#FEE97DFF" stroke="#FEE97DFF">
<path d="M 330.746 39.242 L 309.314 58.484 321.691 62.621 C 328.498 64.896 339.879 69.625 346.980 73.129 L 359.893 79.500 359.311 51.500 C 358.991 36.100 358.325 22.713 357.830 21.750 C 355.713 17.634 352.511 19.701 330.746 39.242 "/></g>
<g fill="#FEE97DFF" stroke="#FEE97DFF">
<path d="M 76.038 76.929 C 75.219 78.459 76.907 84.314 84.181 105.179 C 89.227 119.656 93.531 131.717 93.745 131.983 C 93.958 132.249 95.772 130.449 97.775 127.983 C 103.818 120.544 119.065 105.196 126.320 99.249 C 131.048 95.374 132.735 93.437 131.820 92.937 C 128.388 91.062 81.448 75.000 79.400 75.000 C 78.119 75.000 76.606 75.868 76.038 76.929 "/></g>
<g fill="#FEE97DFF" stroke="#FEE97DFF">
<path d="M 440.347 165.750 C 445.887 176.851 449.600 186.142 452.991 197.390 L 455.670 206.280 475.335 184.568 C 486.151 172.626 495.000 162.078 495.000 161.128 C 495.000 157.191 493.578 157.000 464.290 157.000 L 435.980 157.000 440.347 165.750 "/></g>
<g fill="#FEE97DFF" stroke="#FEE97DFF">
<path d="M 230.000 460.447 C 230.000 462.487 252.564 509.896 254.192 511.277 C 256.011 512.819 256.559 512.873 258.354 511.681 C 259.564 510.878 265.271 499.884 272.122 485.157 L 283.825 460.004 279.662 460.752 C 274.219 461.729 239.724 461.718 234.250 460.738 C 231.913 460.319 230.000 460.188 230.000 460.447 "/></g>
<g fill="#FEE97DFF" stroke="#FEE97DFF">
<path d="M 28.657 241.987 C 14.993 247.788 3.198 253.376 2.446 254.405 C 1.463 255.749 1.361 256.807 2.084 258.157 C 2.999 259.867 52.750 285.583 53.566 284.768 C 53.758 284.576 53.437 279.937 52.853 274.459 C 51.988 266.340 52.255 239.735 53.270 232.970 C 53.432 231.894 46.131 234.569 28.657 241.987 "/></g>
<g fill="#FEE97DFF" stroke="#FEE97DFF">
<path d="M 344.808 441.869 C 338.377 445.002 328.477 449.074 322.808 450.918 C 317.139 452.761 312.147 454.585 311.716 454.969 C 310.560 456.000 350.679 495.000 352.895 495.000 C 356.956 495.000 357.257 493.094 357.781 463.981 C 358.072 447.832 357.908 436.037 357.393 436.087 C 356.902 436.134 351.239 438.737 344.808 441.869 "/></g>
<g fill="#FEE97DFF" stroke="#FEE97DFF">
<path d="M 85.178 407.755 C 79.564 421.365 74.978 433.497 74.986 434.715 C 75.019 439.848 77.415 439.458 105.991 429.666 L 133.159 420.357 126.330 414.759 C 119.295 408.993 103.717 393.376 98.394 386.755 L 95.384 383.010 85.178 407.755 "/></g>
<g fill="#FEE97DFF" stroke="#FEE97DFF">
<path d="M 38.893 331.015 C 28.227 342.086 19.366 351.938 19.202 352.910 C 18.538 356.839 20.892 357.210 49.992 357.763 C 65.396 358.056 78.000 358.069 78.000 357.791 C 78.000 357.514 75.342 351.710 72.094 344.894 C 68.846 338.077 64.710 328.000 62.904 322.500 C 61.097 317.000 59.319 312.137 58.953 311.693 C 58.587 311.250 49.560 319.945 38.893 331.015 "/></g>
<g fill="#FEE97DFF" stroke="#FEE97DFF">
<path d="M 154.656 462.500 C 154.996 477.900 155.678 491.288 156.172 492.250 C 158.341 496.474 161.319 494.337 180.974 474.449 C 191.602 463.695 199.893 454.572 199.399 454.175 C 198.904 453.777 194.478 452.113 189.562 450.476 C 184.647 448.839 174.643 444.575 167.332 441.000 L 154.038 434.500 154.656 462.500 "/></g>
<g fill="#FEE97DFF" stroke="#FEE97DFF">
<path d="M 46.500 154.965 C 33.300 155.259 21.938 155.864 21.250 156.309 C 17.835 158.519 20.239 161.757 39.812 181.312 L 59.625 201.106 63.047 190.859 C 64.929 185.223 69.403 174.624 72.989 167.306 L 79.508 154.000 75.004 154.215 C 72.527 154.333 59.700 154.671 46.500 154.965 "/></g>
<g fill="#FEE97DFF" stroke="#FEE97DFF">
<path d="M 461.418 253.409 C 461.463 263.909 461.152 275.517 460.727 279.205 L 459.953 285.911 484.727 273.928 C 498.352 267.338 510.299 260.993 511.277 259.829 C 514.127 256.434 511.620 254.026 500.886 249.843 C 495.723 247.832 484.713 243.516 476.418 240.253 L 461.336 234.318 461.418 253.409 "/></g>
<g fill="#FEE97DFF" stroke="#FEE97DFF">
<path d="M 450.500 324.196 C 448.850 329.233 444.575 339.186 441.000 346.314 L 434.500 359.273 462.370 359.108 C 478.813 359.010 491.011 358.530 492.120 357.936 C 496.670 355.500 494.653 352.730 474.360 333.557 C 463.558 323.351 454.445 315.008 454.110 315.019 C 453.774 315.029 452.150 319.159 450.500 324.196 "/></g>
<g fill="#FEE97DFF" stroke="#FEE97DFF">
<path d="M 255.218 2.723 C 254.080 3.701 248.424 15.501 242.648 28.947 L 232.148 53.394 243.983 52.550 C 253.528 51.869 272.488 52.256 281.073 53.307 C 283.272 53.577 262.275 4.258 259.370 2.329 C 257.555 1.125 257.021 1.175 255.218 2.723 "/></g>
<g fill="#FEE97DFF" stroke="#FEE97DFF">
<path d="M 407.060 396.143 C 401.868 401.693 394.443 408.955 390.560 412.281 C 386.677 415.607 383.377 418.625 383.226 418.987 C 382.839 419.914 432.018 439.051 434.715 439.023 C 435.933 439.010 437.415 438.094 438.007 436.987 C 438.903 435.312 437.267 430.854 428.292 410.510 C 422.357 397.055 417.275 386.048 417.000 386.050 C 416.725 386.052 412.252 390.594 407.060 396.143 "/></g>
</svg>
