<?xml version="1.0" encoding="utf-8"?>
<!DOCTYPE svg PUBLIC "-//W3C//DTD SVG 20010904//EN" "http://www.w3.org/TR/2001/REC-SVG-20010904/DTD/svg10.dtd">
<svg version="1.0" xmlns="http://www.w3.org/2000/svg" width="514pt" height="514pt" viewBox="0 0 514 514" style="" preserveAspectRatio="xMidYMid meet">
<g fill="#000000FF" stroke="#000000FF">
<path d="M 170.690 2.154 C 169.291 2.937 169.000 4.713 169.000 12.470 L 169.000 21.841 162.250 22.493 C 158.538 22.851 153.405 23.493 150.844 23.919 L 146.188 24.693 144.483 15.911 C 142.709 6.782 141.046 4.525 138.193 7.378 C 136.963 8.608 136.927 9.873 137.959 15.665 C 138.629 19.424 139.395 23.297 139.662 24.270 C 140.024 25.589 139.172 26.426 136.324 27.554 C 134.221 28.386 130.324 30.047 127.664 31.245 L 122.827 33.423 120.924 30.961 C 119.877 29.608 118.171 26.263 117.132 23.528 C 114.845 17.506 112.502 15.667 110.517 18.338 C 108.940 20.459 110.214 25.110 114.442 32.676 L 116.833 36.953 112.166 40.392 C 109.600 42.283 106.178 45.219 104.563 46.916 C 102.948 48.612 101.339 50.000 100.988 50.000 C 100.636 50.000 97.957 47.052 95.034 43.449 C 91.101 38.601 89.173 36.976 87.620 37.199 C 83.918 37.730 84.720 40.760 90.432 47.830 C 93.495 51.620 96.000 54.995 96.000 55.329 C 96.000 56.226 86.989 70.000 86.403 70.000 C 86.127 70.000 83.246 68.127 80.000 65.837 C 75.026 62.330 73.853 61.877 72.548 62.960 C 69.930 65.133 70.776 66.774 76.750 71.112 C 79.913 73.409 82.868 75.614 83.318 76.012 C 83.769 76.411 83.502 78.259 82.726 80.118 C 81.950 81.978 80.753 85.847 80.066 88.715 L 78.817 93.930 70.957 89.978 C 62.752 85.853 59.670 85.681 60.197 89.377 C 60.413 90.891 62.911 92.790 68.909 96.000 L 77.318 100.500 77.098 110.978 C 76.977 116.741 76.755 121.579 76.605 121.728 C 76.455 121.878 71.645 120.943 65.916 119.650 C 60.187 118.356 54.938 117.504 54.250 117.756 C 53.563 118.008 53.000 119.273 53.000 120.568 C 53.000 123.145 53.424 123.315 68.500 126.770 L 76.500 128.603 76.380 137.552 C 76.314 142.473 75.775 147.705 75.182 149.178 L 74.105 151.855 66.051 149.215 C 58.810 146.841 57.842 146.729 56.462 148.110 C 53.862 150.710 55.779 152.579 63.545 155.014 C 67.645 156.300 71.000 157.759 71.000 158.257 C 71.000 159.442 64.322 169.488 62.564 170.947 C 61.515 171.818 59.702 171.341 54.722 168.886 C 47.919 165.531 45.000 165.552 45.000 168.954 C 45.000 170.420 46.667 171.813 51.097 174.049 C 58.052 177.560 58.207 176.601 49.136 186.186 L 44.701 190.872 38.906 186.936 C 32.694 182.718 29.589 182.023 28.590 184.627 C 27.783 186.730 29.053 188.184 35.077 192.049 C 37.785 193.787 40.000 195.418 40.000 195.675 C 40.000 196.025 34.140 204.651 30.350 209.879 C 30.200 210.087 27.144 209.011 23.560 207.488 C 18.203 205.211 16.773 204.943 15.522 205.982 C 12.699 208.325 13.946 210.101 20.500 213.073 C 24.075 214.694 27.000 216.184 27.000 216.384 C 27.000 216.585 26.389 218.493 25.642 220.624 C 24.895 222.756 23.968 226.638 23.581 229.250 L 22.877 234.000 16.061 234.000 C 8.953 234.000 6.405 235.287 7.560 238.295 C 7.984 239.401 10.242 240.039 15.448 240.527 L 22.742 241.211 23.309 246.355 C 23.621 249.185 24.173 252.901 24.536 254.614 L 25.196 257.728 17.440 259.641 C 8.917 261.743 6.113 264.086 9.291 266.448 C 10.798 267.570 12.219 267.484 18.291 265.907 C 27.614 263.485 27.541 263.477 29.014 267.033 C 29.705 268.701 31.753 272.529 33.566 275.540 L 36.863 281.015 28.874 287.096 C 22.669 291.819 20.953 293.659 21.192 295.329 C 21.725 299.052 24.455 298.276 32.937 291.987 L 41.168 285.884 45.842 290.192 C 48.412 292.561 52.087 295.685 54.007 297.133 L 57.500 299.766 52.207 305.368 C 47.649 310.193 47.064 311.251 47.992 312.986 C 49.678 316.136 51.265 315.451 57.554 308.858 C 63.277 302.858 63.482 302.745 66.456 303.940 C 68.130 304.612 72.746 306.286 76.714 307.659 L 83.929 310.157 80.792 315.715 C 77.810 320.999 77.745 321.340 79.474 322.605 C 81.970 324.430 83.538 323.303 87.363 316.932 C 89.157 313.944 91.047 311.519 91.562 311.543 C 92.078 311.567 97.379 311.961 103.343 312.419 L 114.185 313.252 113.599 315.876 C 111.796 323.942 111.726 327.958 113.376 328.591 C 116.022 329.606 117.809 327.254 119.014 321.173 C 120.862 311.845 120.472 312.295 127.787 311.053 C 131.479 310.426 135.288 309.677 136.250 309.389 C 137.800 308.925 138.000 309.667 138.000 315.897 C 138.000 321.651 138.328 323.105 139.804 323.895 C 142.846 325.523 143.791 323.819 144.528 315.372 L 145.236 307.251 153.368 304.497 C 157.841 302.983 162.015 301.547 162.644 301.306 C 163.383 301.022 164.039 303.025 164.496 306.964 C 165.393 314.698 168.143 317.943 170.941 314.571 C 171.831 313.499 171.861 311.701 171.064 307.387 C 169.425 298.522 169.502 298.286 174.967 295.517 C 177.698 294.133 180.332 293.000 180.818 293.000 C 181.305 293.000 182.490 295.907 183.452 299.461 C 185.300 306.290 187.002 308.597 189.487 307.643 C 191.505 306.869 191.383 303.811 189.024 296.052 C 187.946 292.505 187.242 289.425 187.460 289.207 C 188.314 288.353 201.262 281.000 201.912 281.000 C 202.292 281.000 203.554 283.250 204.716 286.000 C 206.304 289.761 207.353 291.000 208.945 291.000 C 212.157 291.000 212.454 288.546 209.981 282.452 C 208.748 279.414 207.910 276.794 208.119 276.630 C 213.865 272.137 222.210 267.012 222.993 267.495 C 223.562 267.848 224.889 269.823 225.941 271.885 C 228.318 276.544 230.268 278.218 232.373 277.410 C 234.784 276.485 234.364 273.706 230.935 267.890 L 227.870 262.691 234.601 256.596 C 245.178 247.016 244.284 247.262 248.604 252.744 C 253.667 259.170 255.826 261.004 257.549 260.343 C 260.144 259.347 259.091 255.740 254.500 249.897 C 252.025 246.746 250.021 243.568 250.046 242.834 C 250.071 242.101 252.507 238.841 255.459 235.592 L 260.825 229.684 266.644 234.871 C 272.744 240.308 275.287 240.970 275.817 237.259 C 276.050 235.628 274.601 233.611 270.363 229.667 L 264.592 224.295 268.966 216.897 C 271.372 212.829 274.200 208.038 275.252 206.250 C 276.303 204.463 277.591 203.000 278.115 203.000 C 278.638 203.000 281.287 204.125 284.000 205.500 C 289.482 208.278 291.071 208.529 292.722 206.878 C 294.647 204.953 292.968 203.012 286.624 199.832 C 283.256 198.144 280.392 196.671 280.259 196.558 C 280.127 196.445 281.117 193.011 282.459 188.926 C 283.801 184.842 285.389 179.588 285.988 177.250 C 286.587 174.913 287.622 173.006 288.289 173.013 C 288.955 173.020 292.353 173.920 295.839 175.013 C 303.315 177.356 306.585 177.523 307.324 175.597 C 308.312 173.022 305.573 171.210 296.638 168.528 L 287.776 165.868 288.388 162.809 C 288.725 161.126 289.000 156.676 289.000 152.919 L 289.000 146.088 296.250 145.794 C 303.238 145.511 303.500 145.410 303.500 143.000 C 303.500 140.591 303.238 140.489 296.258 140.206 C 288.116 139.876 289.021 140.974 287.014 129.000 C 286.414 125.425 285.674 121.318 285.369 119.873 C 284.847 117.403 285.238 117.084 291.907 114.536 C 297.892 112.249 299.000 111.461 299.000 109.496 C 299.000 108.215 298.438 106.973 297.750 106.737 C 296.675 106.367 290.634 108.117 284.773 110.495 C 283.527 111.001 282.775 110.542 282.073 108.848 C 281.538 107.557 279.694 103.197 277.974 99.159 C 276.255 95.122 274.995 91.688 275.174 91.528 C 275.353 91.368 278.313 89.827 281.750 88.104 C 286.315 85.816 288.000 84.428 288.000 82.954 C 288.000 79.613 285.235 79.578 278.235 82.830 C 274.578 84.529 271.537 85.825 271.477 85.710 C 271.417 85.594 268.832 81.835 265.734 77.355 L 260.102 69.209 268.090 62.929 C 276.057 56.666 277.128 54.739 273.804 52.646 C 272.456 51.797 271.277 52.237 268.054 54.789 C 265.824 56.555 262.181 59.440 259.959 61.201 L 255.917 64.401 248.472 56.951 L 241.028 49.500 247.029 42.000 C 253.272 34.199 254.255 30.751 250.395 30.199 C 248.792 29.971 246.907 31.703 242.506 37.449 C 239.325 41.602 236.357 45.000 235.909 45.000 C 234.547 45.000 221.959 35.882 222.335 35.167 C 222.528 34.800 225.006 30.613 227.843 25.861 C 233.454 16.462 233.667 15.799 231.627 14.105 C 229.282 12.160 227.584 13.754 222.061 23.083 C 219.123 28.046 216.220 31.888 215.609 31.621 C 214.999 31.355 211.125 29.702 207.000 27.947 C 202.875 26.193 199.359 24.634 199.186 24.482 C 199.014 24.330 199.862 20.594 201.072 16.179 C 203.506 7.299 203.196 4.690 199.767 5.180 C 197.868 5.451 197.153 6.841 195.086 14.276 L 192.647 23.051 185.074 22.445 C 180.908 22.112 176.938 21.665 176.250 21.451 C 175.366 21.176 175.000 18.304 175.000 11.638 C 175.000 1.801 174.254 0.159 170.690 2.154 M 195.500 30.565 C 198.800 31.444 205.775 34.397 211.000 37.125 C 236.390 50.384 258.787 73.428 270.566 98.414 C 290.787 141.307 285.631 185.438 255.765 225.101 C 231.197 257.727 178.283 292.416 137.500 302.632 C 125.062 305.748 105.140 306.835 93.005 305.061 C 61.917 300.515 37.910 280.519 30.972 253.391 C 28.632 244.242 28.483 235.819 30.508 227.231 C 33.179 215.899 39.116 206.606 53.973 190.500 C 71.122 171.909 77.544 162.473 81.535 150.000 C 82.958 145.554 83.353 140.094 83.597 121.500 C 83.876 100.288 84.098 97.816 86.459 89.703 C 98.270 49.108 131.627 26.820 178.000 28.539 C 184.325 28.773 192.200 29.685 195.500 30.565 "/></g>
<g fill="#F5B36EFF" stroke="#F5B36EFF">
<path d="M 157.269 30.004 C 118.562 35.414 90.382 62.655 84.999 99.867 C 84.471 103.515 84.031 114.618 84.020 124.540 C 83.987 154.728 80.459 162.722 54.909 190.500 C 34.436 212.758 29.215 223.741 30.245 242.375 C 31.915 272.571 54.263 296.164 88.257 303.619 C 99.180 306.014 119.042 305.791 131.688 303.130 C 166.601 295.786 211.795 270.199 240.033 241.790 C 266.546 215.116 280.140 186.917 281.630 155.500 C 283.818 109.392 259.086 66.492 215.066 40.039 C 202.091 32.242 193.346 29.806 177.000 29.437 C 169.575 29.270 160.696 29.525 157.269 30.004 M 195.049 46.833 C 207.215 50.777 225.783 63.642 238.048 76.627 C 258.409 98.182 269.985 126.983 269.996 156.119 C 270.013 199.225 244.572 238.616 196.507 269.904 C 143.540 304.382 94.830 306.834 64.406 276.555 C 51.746 263.955 45.978 250.200 45.933 232.500 C 45.892 216.668 50.789 206.476 68.040 186.482 C 89.372 161.760 90.091 159.996 91.072 130.000 C 91.907 104.443 92.700 100.374 99.552 86.500 C 106.888 71.646 117.804 60.412 132.000 53.105 C 145.871 45.965 155.870 43.939 175.000 44.392 C 185.380 44.637 190.013 45.201 195.049 46.833 "/></g>
<g fill="#000000FF" stroke="#000000FF">
<path d="M 373.500 228.435 C 337.848 235.521 299.796 267.162 282.078 304.454 C 273.277 322.981 269.128 339.987 268.284 361.000 C 266.825 397.334 278.445 429.740 301.635 454.014 C 321.441 474.744 343.346 484.663 373.500 486.554 C 422.668 489.638 470.756 460.709 494.041 414.039 C 508.125 385.810 511.017 351.955 502.051 320.272 C 490.030 277.794 455.376 243.051 412.500 230.489 C 401.320 227.213 384.186 226.311 373.500 228.435 M 408.112 236.035 C 441.898 244.633 473.179 270.478 488.492 302.445 C 492.763 311.361 496.348 322.114 498.679 333.000 C 500.947 343.587 501.184 369.045 499.113 379.500 C 488.384 433.664 443.149 475.336 390.078 479.946 C 357.334 482.790 327.850 472.219 306.657 450.037 C 285.268 427.649 274.862 400.841 274.617 367.500 C 274.503 351.858 275.331 344.590 278.664 332.000 C 289.719 290.234 320.975 254.558 360.252 238.874 C 375.231 232.892 391.881 231.904 408.112 236.035 "/></g>
<g fill="#F8D787FF" stroke="#F8D787FF">
<path d="M 374.000 234.908 C 355.828 238.905 336.644 249.069 322.860 262.004 C 319.362 265.286 316.211 267.977 315.858 267.985 C 314.852 268.008 301.816 283.840 297.320 290.500 C 289.711 301.768 277.627 328.960 279.428 330.761 C 279.733 331.066 279.541 331.849 279.000 332.499 C 274.734 337.641 273.028 375.954 276.396 391.000 C 278.684 401.222 282.258 412.206 285.834 420.000 C 295.684 441.474 315.789 462.135 335.558 471.099 C 339.151 472.728 342.483 473.820 342.960 473.524 C 343.438 473.229 343.980 473.431 344.165 473.973 C 344.730 475.635 359.903 479.032 371.327 480.054 C 377.282 480.587 382.472 480.827 382.859 480.587 C 383.246 480.348 387.374 479.907 392.031 479.607 C 403.346 478.878 417.277 474.971 429.687 469.047 C 441.119 463.588 446.345 460.239 456.500 451.863 C 463.857 445.794 476.677 431.569 476.250 429.949 C 476.112 429.427 476.436 429.000 476.969 429.000 C 478.212 429.000 483.957 420.021 488.548 410.906 C 492.597 402.864 497.844 387.532 498.398 382.117 C 498.602 380.128 499.157 377.600 499.632 376.500 C 501.314 372.605 500.643 342.164 498.674 333.000 C 496.598 323.337 492.061 309.000 491.080 309.000 C 490.720 309.000 490.356 308.072 490.270 306.938 C 490.081 304.430 481.345 288.664 478.359 285.442 C 477.177 284.167 476.425 282.908 476.688 282.645 C 476.952 282.382 474.879 279.793 472.083 276.893 C 469.288 273.992 467.000 271.497 467.000 271.349 C 467.000 270.547 455.760 260.721 449.148 255.742 C 441.043 249.639 423.025 239.990 419.250 239.729 C 418.013 239.644 417.000 239.271 417.000 238.899 C 417.000 238.128 400.535 233.993 397.500 234.001 C 396.400 234.004 392.575 233.789 389.000 233.523 C 384.698 233.202 379.626 233.671 374.000 234.908 M 401.500 247.419 C 405.900 248.197 412.650 250.008 416.500 251.443 C 420.350 252.877 423.932 254.152 424.461 254.276 C 424.989 254.399 425.889 254.852 426.461 255.282 C 427.032 255.712 430.650 257.930 434.500 260.212 C 444.751 266.285 460.619 279.538 464.500 285.268 C 465.050 286.080 467.346 289.389 469.602 292.622 C 475.886 301.627 480.700 311.357 484.056 321.834 C 495.418 357.304 489.608 393.742 467.907 423.105 C 462.439 430.504 449.300 443.449 443.084 447.563 C 440.838 449.050 439.000 450.656 439.000 451.133 C 439.000 451.610 438.663 451.912 438.250 451.804 C 437.838 451.696 433.448 453.670 428.495 456.191 C 410.113 465.547 391.247 469.252 372.302 467.228 C 350.074 464.852 334.605 458.527 321.003 446.250 C 317.803 443.363 314.694 441.000 314.093 441.000 C 313.492 441.000 312.999 440.663 312.998 440.250 C 312.997 439.838 310.293 435.900 306.988 431.500 C 300.619 423.021 293.156 408.646 291.023 400.750 C 290.317 398.138 289.461 396.000 289.120 396.000 C 288.779 396.000 288.453 394.988 288.396 393.750 C 288.339 392.513 287.748 388.125 287.083 384.000 C 286.418 379.875 285.561 374.475 285.180 372.000 C 284.291 366.235 286.435 345.696 288.934 336.044 C 289.995 331.944 290.643 328.231 290.373 327.794 C 290.103 327.357 290.250 327.000 290.700 327.000 C 291.507 327.000 296.609 313.865 296.094 313.112 C 295.949 312.898 296.232 312.448 296.723 312.112 C 297.215 311.775 299.289 308.484 301.332 304.797 C 303.374 301.110 306.607 296.047 308.516 293.547 C 310.425 291.046 311.704 289.000 311.359 289.000 C 311.013 289.000 311.916 288.067 313.365 286.927 C 314.814 285.788 316.031 284.325 316.069 283.677 C 316.144 282.399 328.785 271.135 337.241 264.812 C 348.308 256.535 364.948 249.002 376.387 247.089 C 384.325 245.761 392.761 245.872 401.500 247.419 "/></g>
<g fill="#000000FF" stroke="#000000FF">
<path d="M 156.500 45.665 C 126.679 50.284 104.575 69.622 94.963 99.500 C 93.027 105.519 92.612 109.652 92.003 129.000 C 91.204 154.386 90.599 157.163 83.506 168.000 C 81.166 171.575 74.358 180.184 68.376 187.131 C 50.670 207.695 46.823 215.734 46.662 232.500 C 46.515 247.959 51.292 260.934 61.574 273.000 C 74.097 287.695 91.659 295.556 114.500 296.690 C 138.989 297.906 168.405 287.784 198.500 267.784 C 237.178 242.082 259.984 211.899 267.485 176.487 C 269.391 167.491 269.442 145.484 267.579 135.750 C 264.617 120.269 257.107 102.510 248.306 90.177 C 235.607 72.379 215.404 55.812 197.393 48.424 C 190.954 45.783 189.479 45.584 175.000 45.399 C 166.475 45.289 158.150 45.409 156.500 45.665 M 189.000 52.561 C 199.995 55.152 215.201 64.564 228.201 76.828 C 258.667 105.568 270.505 149.488 257.957 187.223 C 246.317 222.226 216.569 252.946 172.438 275.536 C 131.443 296.520 94.418 295.502 70.375 272.731 C 58.677 261.652 53.000 248.619 53.000 232.841 C 53.000 217.834 56.599 210.540 73.881 190.524 C 85.436 177.141 92.331 167.185 95.317 159.572 C 96.999 155.281 97.416 150.959 98.023 131.500 C 98.639 111.762 99.057 107.507 100.969 101.500 C 107.953 79.561 123.224 62.994 143.309 55.568 C 155.239 51.157 176.970 49.727 189.000 52.561 "/></g>
<g fill="#000000FF" stroke="#000000FF">
<path d="M 376.387 247.089 C 355.310 250.614 329.712 267.055 312.985 287.811 C 283.316 324.626 276.993 374.506 296.854 415.065 C 306.864 435.506 324.807 452.903 343.783 460.568 C 392.326 480.176 449.981 458.137 476.421 409.869 C 498.956 368.727 492.286 315.514 460.255 280.907 C 436.992 255.773 404.002 242.470 376.387 247.089 M 396.308 253.061 C 422.468 256.920 449.558 274.261 465.039 297.057 C 478.444 316.797 485.252 343.487 482.952 367.284 C 478.534 412.990 443.017 451.837 398.222 459.960 C 389.302 461.577 370.599 461.407 362.420 459.634 C 341.544 455.108 324.815 444.389 311.848 427.229 C 289.462 397.604 285.524 354.221 301.908 317.706 C 316.220 285.807 346.769 259.693 377.000 253.516 C 385.299 251.820 387.540 251.767 396.308 253.061 "/></g>
<g fill="#F8D787FF" stroke="#F8D787FF">
<path d="M 159.500 51.693 C 157.850 51.909 155.825 52.363 155.000 52.701 C 154.175 53.039 152.973 53.233 152.329 53.132 C 150.443 52.837 138.892 57.053 134.000 59.821 C 118.261 68.729 106.952 82.976 100.916 101.500 C 98.911 107.655 98.596 110.938 98.307 128.697 C 98.126 139.805 97.819 149.480 97.626 150.197 C 97.432 150.914 96.743 153.750 96.095 156.500 C 94.366 163.840 87.218 174.979 75.882 188.000 C 57.230 209.425 53.000 217.714 53.000 232.841 C 53.000 247.852 58.017 260.031 68.773 271.137 C 72.382 274.863 75.662 277.709 76.063 277.461 C 76.463 277.214 77.011 277.587 77.282 278.291 C 78.000 280.163 89.779 285.655 97.908 287.907 C 119.716 293.951 144.499 289.837 172.438 275.536 C 185.049 269.080 202.863 257.798 207.954 253.043 C 209.591 251.514 211.100 250.433 211.307 250.640 C 211.515 250.848 216.483 246.470 222.348 240.912 C 232.803 231.004 246.390 214.439 245.389 212.820 C 245.110 212.369 245.308 212.000 245.830 212.000 C 247.150 212.000 254.249 197.989 257.400 189.162 C 260.848 179.506 263.002 166.780 262.992 156.119 C 262.985 147.926 261.645 136.239 260.341 133.000 C 260.009 132.175 259.578 130.291 259.384 128.814 C 258.289 120.486 248.936 101.546 240.377 90.326 C 226.965 72.744 204.464 56.205 189.000 52.561 C 182.994 51.146 167.216 50.682 159.500 51.693 M 225.973 145.881 C 229.979 147.231 240.892 154.104 240.957 155.317 C 240.994 156.022 245.545 162.567 246.994 164.000 C 247.272 164.275 247.639 165.141 247.808 165.924 C 247.978 166.708 248.765 169.840 249.558 172.885 C 252.129 182.756 250.784 192.572 245.407 203.184 C 242.249 209.416 234.261 218.071 228.614 221.381 C 213.542 230.213 198.647 227.947 186.657 214.996 C 179.086 206.818 176.740 200.457 176.515 187.500 C 176.420 182.000 176.638 177.050 176.999 176.500 C 177.360 175.950 178.475 173.250 179.477 170.500 C 183.242 160.163 191.031 151.040 200.000 146.463 C 203.569 144.641 219.598 142.858 221.500 144.072 C 222.050 144.423 224.063 145.237 225.973 145.881 M 129.000 173.147 C 139.548 177.714 146.292 188.306 146.029 199.893 C 145.819 209.165 145.668 209.889 142.764 215.546 C 139.639 221.632 133.071 228.408 127.551 231.241 C 123.805 233.164 110.000 235.325 110.000 233.990 C 110.000 233.666 108.414 232.828 106.476 232.127 C 103.551 231.070 93.759 223.717 94.028 222.780 C 94.073 222.626 93.095 220.250 91.856 217.500 C 90.127 213.663 89.581 210.523 89.507 204.000 C 89.421 196.356 89.736 194.832 92.637 188.865 C 100.542 172.603 114.154 166.719 129.000 173.147 M 180.126 75.732 C 186.007 78.333 191.833 84.680 194.802 91.720 C 201.531 107.677 191.889 128.650 174.814 135.197 C 169.456 137.252 167.743 137.485 163.500 136.735 C 154.467 135.141 147.636 129.846 142.705 120.616 C 140.883 117.207 140.505 114.869 140.503 107.000 C 140.500 98.684 140.849 96.752 143.302 91.500 C 147.465 82.587 153.884 76.534 161.994 73.875 C 165.854 72.609 175.239 73.570 180.126 75.732 M 169.961 141.189 C 173.326 144.801 172.601 148.985 167.463 155.602 C 164.968 158.815 162.679 162.429 162.377 163.633 C 162.031 165.011 163.156 168.517 165.414 173.101 C 167.386 177.104 169.000 180.968 169.000 181.686 C 169.000 182.404 168.062 185.703 166.915 189.016 L 164.830 195.041 166.915 201.215 C 169.385 208.529 169.526 211.318 167.511 212.991 C 165.292 214.833 159.441 213.366 155.710 210.032 C 152.902 207.524 152.446 206.391 152.004 200.836 C 151.669 196.621 151.952 193.562 152.850 191.697 C 153.592 190.156 154.433 186.312 154.720 183.156 C 155.175 178.135 154.850 176.646 152.120 171.238 C 147.959 162.995 147.928 157.780 152.006 152.150 C 153.660 149.868 154.825 148.000 154.595 148.000 C 154.366 148.000 156.146 145.975 158.552 143.500 C 163.502 138.406 166.755 137.747 169.961 141.189 M 136.775 136.588 C 139.895 138.633 143.368 144.603 143.349 147.891 C 143.326 151.900 139.283 158.857 135.710 161.035 C 127.328 166.146 117.000 159.637 117.000 149.244 C 117.000 147.693 118.013 144.416 119.250 141.962 C 122.999 134.527 130.241 132.307 136.775 136.588 M 223.955 107.682 C 225.952 109.833 227.638 112.780 227.816 114.432 C 228.271 118.646 225.346 125.531 221.851 128.472 C 216.342 133.107 211.298 133.025 205.911 128.212 C 203.467 126.028 202.692 124.344 202.125 119.983 C 201.374 114.221 202.082 112.113 206.435 107.141 C 211.266 101.621 218.535 101.846 223.955 107.682 M 188.500 229.594 C 189.600 230.195 191.553 232.220 192.839 234.094 C 200.421 245.134 186.329 261.688 175.429 254.546 C 164.682 247.504 168.570 229.823 181.260 228.034 C 183.592 227.705 185.725 227.676 186.000 227.968 C 186.275 228.261 187.400 228.992 188.500 229.594 M 105.102 249.283 C 112.443 254.214 112.546 264.920 105.318 271.737 C 100.004 276.748 91.904 276.114 87.644 270.353 C 83.180 264.316 85.374 251.681 91.409 248.670 C 95.959 246.400 101.157 246.632 105.102 249.283 M 157.960 232.636 C 169.046 239.184 163.640 259.000 150.768 259.000 C 138.830 259.000 134.278 243.522 143.503 234.297 C 146.185 231.615 147.583 231.000 150.996 231.000 C 153.303 231.000 156.437 231.736 157.960 232.636 M 77.575 208.750 C 75.460 217.587 75.700 220.505 79.128 227.583 C 83.557 236.728 83.701 242.232 79.598 245.504 C 77.139 247.464 76.298 247.650 74.098 246.718 C 70.296 245.108 67.248 242.138 64.676 237.536 C 59.598 228.451 63.591 213.867 72.823 207.778 C 76.822 205.141 78.363 205.457 77.575 208.750 "/></g>
<g fill="#B0E8F8FF" stroke="#B0E8F8FF">
<path d="M 374.363 254.494 C 346.337 260.589 315.048 288.489 301.814 319.186 C 286.898 353.783 289.476 392.960 308.578 422.000 C 326.158 448.726 353.446 462.342 386.000 460.633 C 425.476 458.561 460.214 433.339 475.612 395.570 C 481.236 381.777 482.466 374.683 482.389 356.500 C 482.329 342.554 481.986 339.245 479.711 330.723 C 476.760 319.668 470.227 305.169 464.514 297.000 C 459.613 289.990 449.083 279.044 442.000 273.596 C 420.241 256.858 395.552 249.885 374.363 254.494 M 327.500 370.579 C 333.498 374.087 337.796 378.327 348.204 391.000 C 353.399 397.325 359.320 403.963 361.361 405.752 C 376.381 418.908 400.804 419.365 421.610 406.877 C 424.705 405.020 431.959 399.356 437.730 394.291 C 443.501 389.226 449.777 384.568 451.677 383.942 C 462.329 380.426 469.957 389.640 467.215 402.711 C 463.877 418.623 444.456 436.527 420.938 445.373 C 400.306 453.134 373.825 453.128 354.155 445.359 C 339.966 439.755 319.423 421.401 312.646 408.273 C 307.923 399.125 304.578 386.300 305.431 380.612 C 307.241 368.541 316.680 364.250 327.500 370.579 M 385.750 323.593 C 389.924 328.265 388.378 336.303 381.867 343.778 C 377.157 349.186 374.737 354.975 374.250 362.000 C 373.871 367.483 374.286 369.820 376.900 376.941 C 381.847 390.412 380.680 396.000 372.923 396.000 C 367.987 396.000 361.411 391.046 358.308 384.991 C 352.025 372.726 352.983 352.536 360.542 337.919 C 364.010 331.213 370.155 324.132 374.316 322.048 C 379.257 319.573 382.556 320.019 385.750 323.593 M 352.077 289.923 C 354.415 292.262 354.997 293.711 354.984 297.173 C 354.967 301.518 354.114 303.323 347.238 313.570 C 340.762 323.219 340.294 331.678 345.500 345.000 C 349.520 355.288 349.794 358.206 347.000 361.000 C 340.817 367.183 327.632 358.404 323.736 345.509 C 323.070 343.304 322.527 336.550 322.530 330.500 C 322.536 317.936 324.536 310.484 330.610 300.375 C 334.938 293.174 337.279 290.607 341.355 288.597 C 345.998 286.307 348.808 286.654 352.077 289.923 M 459.077 329.923 C 462.501 333.347 462.858 337.179 460.137 341.305 C 457.493 345.316 455.201 346.660 447.253 348.863 C 432.072 353.070 426.552 358.477 422.102 373.500 C 420.961 377.350 419.128 381.963 418.029 383.750 C 413.714 390.763 405.181 386.638 402.898 376.434 C 398.342 356.078 426.049 327.559 450.827 327.099 C 455.450 327.013 456.540 327.386 459.077 329.923 M 405.750 263.967 C 408.564 268.130 408.595 272.253 405.884 281.915 C 402.205 295.025 404.425 303.589 414.356 314.596 C 422.875 324.036 424.204 328.510 419.421 331.644 C 413.796 335.329 403.582 332.648 397.010 325.761 C 392.760 321.307 386.400 307.850 384.932 300.208 C 383.481 292.656 384.197 279.622 386.467 272.236 C 390.283 259.824 400.104 255.612 405.750 263.967 M 400.035 393.518 C 403.902 395.518 404.734 399.058 402.313 403.204 C 398.031 410.535 387.607 410.091 384.411 402.441 C 383.041 399.163 383.050 398.572 384.505 396.352 C 387.356 392.002 394.560 390.687 400.035 393.518 M 430.365 286.073 C 436.048 290.543 431.594 300.068 423.716 300.291 C 417.342 300.472 412.035 294.979 413.386 289.599 C 414.725 284.261 425.277 282.070 430.365 286.073 M 462.777 358.557 C 464.421 359.708 465.000 361.118 465.000 363.968 C 465.000 371.822 454.581 376.048 448.686 370.585 C 443.976 366.219 444.285 360.034 449.315 358.007 C 452.892 356.566 460.371 356.871 462.777 358.557 "/></g>
<g fill="#000000FF" stroke="#000000FF">
<path d="M 402.073 32.309 C 401.590 33.579 400.630 36.504 399.939 38.809 C 398.761 42.740 398.445 43.009 394.842 43.150 C 392.729 43.233 390.438 43.345 389.750 43.400 C 388.963 43.463 388.315 41.648 388.000 38.500 C 387.547 33.967 387.267 33.500 385.000 33.500 C 382.666 33.500 382.480 33.872 382.204 39.105 C 381.915 44.599 381.835 44.735 378.204 45.920 C 376.167 46.586 374.020 47.336 373.433 47.587 C 372.845 47.839 371.700 45.897 370.887 43.272 C 369.776 39.683 368.862 38.421 367.200 38.180 C 364.063 37.725 363.491 40.189 365.275 46.461 L 366.801 51.825 362.905 54.956 L 359.009 58.087 357.340 54.587 C 355.346 50.406 353.214 49.357 351.072 51.502 C 349.642 52.935 349.749 53.545 352.247 58.237 L 354.994 63.397 352.300 66.209 L 349.606 69.021 345.914 65.416 C 339.004 58.668 335.201 63.076 341.815 70.167 L 345.763 74.400 343.249 78.200 C 341.866 80.290 340.362 82.000 339.908 82.000 C 339.453 82.000 337.936 80.766 336.537 79.257 C 334.472 77.029 333.666 76.721 332.247 77.614 C 329.398 79.408 329.720 81.387 333.470 85.137 C 336.760 88.427 336.932 88.898 335.907 91.838 C 334.666 95.398 334.471 95.467 331.016 93.554 C 329.327 92.619 327.968 92.482 326.766 93.125 C 324.015 94.597 324.672 96.874 328.500 99.133 C 332.088 101.249 332.772 103.520 331.383 108.699 C 330.899 110.502 329.956 110.953 326.147 111.199 C 321.937 111.472 321.500 111.735 321.500 114.000 C 321.500 116.222 322.000 116.556 326.000 117.000 C 330.489 117.499 330.501 117.511 330.807 121.750 C 331.113 125.969 331.091 126.000 327.749 126.000 C 323.095 126.000 320.122 128.281 321.636 130.691 C 322.518 132.096 323.804 132.433 327.391 132.199 C 331.649 131.922 332.094 132.118 333.077 134.699 C 333.957 137.009 333.848 137.675 332.453 138.500 C 327.641 141.346 326.479 142.841 327.638 144.687 C 328.820 146.568 329.761 146.697 334.038 145.563 C 336.228 144.982 336.802 145.362 338.216 148.326 L 339.855 151.763 336.452 153.596 C 332.335 155.813 331.397 157.826 333.502 159.928 C 334.934 161.358 335.450 161.296 339.200 159.245 C 341.467 158.004 343.391 157.104 343.475 157.245 C 343.559 157.385 344.623 158.813 345.840 160.418 L 348.052 163.336 345.434 166.069 C 340.527 171.190 344.715 175.547 349.849 170.663 L 352.500 168.141 355.398 170.649 C 358.276 173.141 358.284 173.181 356.648 176.613 C 354.560 180.990 354.553 183.615 356.627 184.410 C 358.686 185.200 360.448 183.747 362.014 179.967 C 362.690 178.335 363.356 177.000 363.495 177.000 C 363.634 177.000 365.801 178.148 368.311 179.550 L 372.874 182.101 371.547 186.510 C 370.443 190.177 370.444 191.220 371.552 192.709 C 373.452 195.265 376.197 193.315 377.628 188.392 C 378.344 185.930 379.264 184.632 380.130 184.861 C 380.884 185.059 384.133 185.733 387.352 186.359 L 393.204 187.496 392.624 191.725 C 391.918 196.876 392.626 199.000 395.048 199.000 C 397.387 199.000 398.298 197.488 398.965 192.500 L 399.500 188.500 407.082 188.211 L 414.664 187.922 415.582 193.711 C 416.417 198.975 416.727 199.500 419.000 199.500 C 421.386 199.500 421.501 199.226 421.521 193.519 L 421.543 187.537 426.996 186.326 C 429.995 185.660 432.685 185.346 432.974 185.628 C 433.263 185.911 434.212 188.247 435.081 190.821 C 436.235 194.234 437.251 195.587 438.836 195.820 C 441.912 196.273 442.580 193.621 440.797 188.043 L 439.288 183.325 443.582 181.733 L 447.875 180.142 451.550 184.626 C 454.155 187.806 455.843 189.021 457.352 188.805 C 460.587 188.341 460.484 185.411 457.088 181.290 L 454.029 177.580 458.706 174.669 C 462.785 172.130 463.646 171.924 465.441 173.057 C 472.416 177.456 472.838 177.590 474.502 175.926 C 476.530 173.898 475.690 171.839 471.926 169.616 L 468.915 167.837 472.208 163.935 C 475.453 160.087 475.579 160.039 481.100 160.549 C 485.195 160.927 487.014 160.688 487.868 159.659 C 489.770 157.367 488.113 155.195 483.922 154.487 C 481.765 154.122 480.000 153.676 480.000 153.495 C 480.000 153.314 480.884 151.104 481.964 148.583 L 483.929 144.000 490.357 144.000 C 495.372 144.000 496.923 143.642 497.410 142.373 C 498.461 139.636 496.079 138.000 491.044 138.000 C 488.453 138.000 486.138 137.805 485.899 137.566 C 485.661 137.327 485.698 134.551 485.983 131.396 L 486.500 125.660 491.000 124.580 C 494.845 123.657 495.500 123.136 495.500 121.000 C 495.500 118.661 495.193 118.510 490.747 118.662 C 486.361 118.812 485.948 118.619 485.397 116.162 C 485.068 114.698 484.365 111.767 483.834 109.649 C 483.303 107.531 483.011 105.682 483.184 105.540 C 483.358 105.399 485.525 104.657 488.000 103.891 C 491.762 102.728 492.500 102.090 492.500 100.000 C 492.500 97.258 490.919 96.968 483.889 98.423 C 480.866 99.049 480.192 98.872 479.752 97.335 C 479.463 96.326 478.932 94.789 478.572 93.921 C 478.089 92.756 478.995 91.855 482.019 90.491 C 486.248 88.584 488.064 86.431 487.282 84.250 C 486.623 82.415 483.465 82.722 478.863 85.070 C 476.632 86.208 474.714 86.996 474.600 86.820 C 474.487 86.644 473.633 85.282 472.703 83.794 L 471.012 81.088 475.564 77.956 C 478.946 75.629 480.037 74.271 479.808 72.672 C 479.346 69.444 476.564 69.516 471.669 72.884 L 467.281 75.903 464.391 72.877 L 461.500 69.851 465.916 66.079 C 469.041 63.409 470.144 61.817 469.688 60.631 C 468.509 57.557 466.170 57.778 461.408 61.415 C 456.462 65.192 456.651 65.197 451.773 61.160 C 450.160 59.826 450.248 59.475 453.098 55.876 C 458.985 48.444 454.139 44.801 447.977 52.027 L 444.353 56.277 441.426 54.441 C 439.817 53.431 438.311 52.468 438.080 52.300 C 437.850 52.132 438.698 49.779 439.966 47.072 C 442.484 41.697 442.177 39.000 439.048 39.000 C 437.635 39.000 436.277 40.493 434.500 44.000 C 431.799 49.330 431.192 49.606 425.899 47.912 C 424.030 47.313 421.954 46.659 421.287 46.457 C 420.410 46.193 420.670 44.654 422.223 40.918 C 424.274 35.983 424.290 35.686 422.589 34.441 C 419.887 32.465 418.386 33.623 415.988 39.529 C 413.892 44.693 413.676 44.889 410.652 44.369 C 404.874 43.375 404.930 43.450 406.529 38.917 C 408.796 32.491 408.502 30.000 405.475 30.000 C 403.758 30.000 402.670 30.739 402.073 32.309 M 418.192 52.397 C 434.367 56.500 447.378 64.160 458.410 76.076 C 465.879 84.143 470.248 90.970 474.102 100.596 C 481.575 119.259 481.688 135.816 474.439 150.120 C 465.232 168.289 435.730 181.994 405.815 181.999 C 374.699 182.004 349.963 164.808 340.503 136.596 C 332.235 111.939 339.295 89.185 362.766 64.837 C 374.569 52.594 380.346 50.180 398.122 50.067 C 406.206 50.016 411.001 50.573 418.192 52.397 "/></g>
<g fill="#CAE37FFF" stroke="#CAE37FFF">
<path d="M 387.000 51.032 C 377.017 53.127 372.420 55.860 363.770 64.846 C 344.225 85.150 337.187 100.374 338.271 120.000 C 339.741 146.590 356.686 168.858 382.165 177.681 C 391.309 180.848 409.842 181.944 421.761 180.024 C 446.648 176.014 467.356 163.767 474.216 149.000 C 482.255 131.696 479.879 109.415 467.855 89.342 C 460.410 76.915 445.186 63.501 431.848 57.617 C 419.289 52.077 397.365 48.858 387.000 51.032 M 416.730 62.542 C 429.521 65.457 443.225 73.619 451.489 83.246 C 463.454 97.182 469.607 116.046 467.113 131.146 C 463.796 151.230 448.095 164.493 421.201 169.929 C 414.311 171.322 399.527 171.300 392.799 169.887 C 372.131 165.547 354.907 148.211 350.473 127.287 C 347.794 114.642 349.346 104.906 356.119 91.889 C 361.619 81.317 374.831 67.179 382.155 64.029 C 391.928 59.824 402.761 59.359 416.730 62.542 "/></g>
<g fill="#000000FF" stroke="#000000FF">
<path d="M 143.000 333.611 C 116.786 341.634 92.718 354.273 63.500 375.360 C 47.599 386.837 42.444 391.451 40.088 396.318 C 37.396 401.880 37.336 409.399 39.950 413.686 C 42.253 417.463 44.340 418.711 49.818 419.587 C 53.080 420.109 54.077 420.783 54.846 422.989 C 56.282 427.109 59.788 429.846 64.541 430.558 C 68.127 431.096 68.873 431.613 69.325 433.874 C 70.158 438.040 73.722 441.857 77.427 442.552 C 80.303 443.092 80.846 443.666 81.336 446.682 C 82.161 451.768 86.248 456.548 91.481 458.546 C 97.644 460.899 117.110 460.099 128.500 457.024 C 145.077 452.549 163.628 441.769 173.338 430.969 C 180.425 423.087 183.343 416.011 183.428 406.500 C 183.492 399.399 183.172 397.938 180.582 393.500 C 178.416 389.789 177.491 386.621 176.992 381.212 C 176.516 376.051 175.680 373.059 174.127 370.958 C 172.417 368.644 172.161 367.567 172.967 366.062 C 173.535 365.000 174.000 362.320 174.000 360.106 C 174.000 357.041 173.371 355.497 171.361 353.634 L 168.722 351.187 170.861 347.725 C 173.225 343.900 173.660 337.419 171.718 334.954 C 166.931 328.879 159.585 328.535 143.000 333.611 M 164.777 337.557 C 166.000 338.413 167.000 339.952 167.000 340.978 C 167.000 345.358 149.870 358.713 136.021 365.130 C 132.204 366.898 128.831 368.999 128.524 369.799 C 127.894 371.440 129.647 374.000 131.401 374.000 C 133.752 374.000 146.754 367.131 154.844 361.614 C 160.596 357.692 163.779 356.112 165.092 356.529 C 172.236 358.797 163.594 372.085 150.057 379.644 C 146.236 381.778 145.013 383.006 145.221 384.500 C 145.885 389.262 153.681 386.448 163.293 377.978 C 165.930 375.654 168.231 373.922 168.408 374.127 C 173.764 380.352 170.024 391.701 159.941 399.821 C 154.140 404.493 152.317 407.086 153.494 408.991 C 154.756 411.032 157.954 409.888 163.411 405.443 C 166.488 402.936 170.117 399.251 171.474 397.252 L 173.943 393.620 175.472 397.278 C 178.052 403.453 177.464 411.752 173.949 418.787 C 165.410 435.874 136.698 451.628 110.415 453.648 C 95.807 454.771 88.000 451.979 88.000 445.632 C 88.000 443.478 88.835 442.905 94.750 441.004 C 100.976 439.003 109.007 434.937 113.250 431.640 C 115.400 429.969 115.498 427.658 113.491 425.993 C 112.251 424.963 111.317 425.199 108.241 427.321 C 99.409 433.413 85.241 438.030 79.669 436.632 C 76.821 435.917 74.734 432.417 75.884 430.286 C 76.245 429.618 81.494 425.995 87.550 422.236 C 99.436 414.856 112.038 405.673 113.256 403.503 C 113.695 402.720 113.352 401.494 112.437 400.580 C 110.512 398.655 109.387 399.176 99.500 406.566 C 89.953 413.702 74.983 422.625 70.107 424.086 C 66.679 425.113 65.718 425.045 63.545 423.622 C 58.961 420.618 60.231 418.637 70.323 413.046 C 87.352 403.612 108.422 385.949 107.802 381.627 C 107.215 377.530 104.208 378.800 95.626 386.769 C 80.376 400.933 60.429 412.994 52.250 412.998 C 44.717 413.002 41.900 407.227 45.616 399.397 C 47.457 395.518 51.889 391.660 67.500 380.351 C 96.733 359.173 124.509 344.989 150.342 338.045 C 159.202 335.664 161.943 335.571 164.777 337.557 "/></g>
<g fill="#000000FF" stroke="#000000FF">
<path d="M 389.000 62.306 C 380.759 64.699 377.066 67.160 369.252 75.464 C 357.023 88.459 351.421 99.585 350.286 113.131 C 348.760 131.333 358.560 150.876 374.530 161.476 C 402.144 179.805 453.721 167.703 463.926 140.500 C 475.137 110.614 452.869 72.981 418.523 63.768 C 409.355 61.309 394.899 60.593 389.000 62.306 M 415.500 69.622 C 433.873 74.047 449.160 87.226 456.762 105.192 C 459.146 110.825 459.435 112.784 459.466 123.500 C 459.496 134.217 459.247 135.981 457.137 140.000 C 448.330 156.771 420.659 167.126 395.613 163.024 C 378.772 160.266 364.101 147.230 358.447 130.000 C 355.931 122.335 356.151 110.259 358.939 102.854 C 363.255 91.396 376.355 74.900 384.397 70.797 C 391.858 66.991 402.851 66.576 415.500 69.622 "/></g>
<g fill="#F5B36EFF" stroke="#F5B36EFF">
<path d="M 145.000 340.366 C 119.330 348.372 98.325 359.279 70.384 379.111 C 47.824 395.123 45.000 398.107 45.000 405.927 C 45.000 413.738 51.434 414.848 62.938 409.022 C 72.207 404.328 86.348 394.572 93.624 387.851 C 104.777 377.550 104.560 377.694 106.917 378.955 C 110.546 380.898 109.241 383.554 100.677 391.660 C 91.887 399.981 78.768 409.417 68.079 415.107 C 64.548 416.987 61.482 419.053 61.267 419.699 C 60.560 421.821 65.680 424.283 69.363 423.592 C 73.377 422.839 90.871 412.403 101.386 404.489 C 109.742 398.199 113.271 397.525 113.804 402.116 C 114.066 404.380 112.917 405.602 105.290 411.179 C 100.441 414.725 92.035 420.298 86.610 423.563 C 81.184 426.828 76.543 430.027 76.296 430.672 C 76.048 431.316 76.346 432.779 76.958 433.922 C 79.260 438.224 94.382 435.332 105.000 428.559 C 108.025 426.630 111.232 425.040 112.128 425.026 C 114.403 424.990 116.278 427.549 115.582 429.741 C 114.604 432.824 100.082 440.725 92.222 442.451 C 90.462 442.838 88.790 443.531 88.504 443.993 C 87.433 445.727 90.031 449.965 93.157 451.581 C 97.454 453.803 116.373 453.041 126.500 450.238 C 148.088 444.263 168.371 430.172 174.342 417.000 C 176.746 411.697 177.115 402.958 175.133 398.261 L 173.767 395.022 171.055 398.761 C 167.866 403.159 158.024 411.000 155.693 411.000 C 153.770 411.000 151.774 407.704 152.558 405.822 C 152.861 405.095 155.337 402.778 158.059 400.673 C 165.166 395.179 169.284 388.784 169.728 382.552 C 169.926 379.773 169.638 376.830 169.088 376.012 C 168.247 374.761 167.560 375.031 164.794 377.697 C 160.780 381.565 150.248 388.000 147.931 388.000 C 145.567 388.000 143.720 385.456 144.440 383.190 C 144.773 382.141 146.942 380.432 149.261 379.392 C 154.516 377.034 165.641 366.279 166.543 362.684 C 167.392 359.304 166.538 357.000 164.436 357.000 C 163.541 357.000 158.908 359.588 154.140 362.750 C 149.372 365.913 142.240 370.038 138.290 371.917 C 132.283 374.775 130.853 375.123 129.554 374.045 C 126.187 371.250 127.658 368.529 134.210 365.434 C 147.524 359.144 164.547 346.654 165.617 342.389 C 167.187 336.135 160.630 335.492 145.000 340.366 M 127.647 398.765 C 128.277 399.169 129.336 401.525 129.999 404.000 C 130.663 406.475 132.631 410.975 134.374 414.000 C 139.185 422.351 140.000 424.666 140.000 429.982 C 140.000 436.361 138.635 439.754 135.491 441.186 C 133.345 442.164 132.512 442.027 130.221 440.322 C 127.798 438.518 127.441 437.481 126.964 430.865 C 126.547 425.085 125.604 421.698 122.714 415.613 C 118.735 407.234 118.048 402.095 120.571 399.571 C 122.223 397.919 125.707 397.523 127.647 398.765 M 115.164 359.088 C 117.577 360.379 126.972 379.407 126.970 383.000 C 126.969 386.611 125.598 388.250 122.581 388.250 C 117.941 388.250 111.944 380.946 108.117 370.632 C 104.571 361.076 108.095 355.304 115.164 359.088 "/></g>
<g fill="#94C566FF" stroke="#94C566FF">
<path d="M 388.154 69.842 C 379.281 73.021 366.207 87.499 360.447 100.523 C 349.981 124.190 365.457 154.575 391.500 161.489 C 394.936 162.401 401.384 163.073 406.589 163.061 C 429.727 163.008 449.817 153.535 456.429 139.559 C 465.539 120.301 455.044 92.036 433.593 78.060 C 420.428 69.483 399.646 65.724 388.154 69.842 M 398.610 83.250 C 407.709 89.364 410.040 96.024 405.877 104.012 C 404.709 106.253 403.998 108.332 404.298 108.631 C 404.598 108.931 406.247 108.138 407.963 106.869 C 410.335 105.116 411.477 104.811 412.725 105.598 C 415.847 107.567 416.501 109.671 415.343 114.011 C 414.041 118.886 415.077 120.396 420.795 121.961 C 427.103 123.688 430.993 126.729 433.160 131.629 C 435.763 137.513 434.992 141.947 430.516 146.831 C 427.493 150.130 426.643 150.500 422.096 150.500 C 417.745 150.500 416.594 150.055 413.855 147.316 C 411.084 144.546 410.595 143.249 410.085 137.327 C 409.386 129.194 408.604 128.782 399.986 132.005 C 392.740 134.715 388.616 134.092 386.483 129.966 C 384.365 125.871 384.641 122.802 387.500 118.640 C 388.875 116.638 391.125 113.362 392.500 111.360 C 397.200 104.519 394.592 100.822 386.964 103.513 C 374.613 107.870 367.783 101.028 374.871 91.400 C 383.491 79.691 389.993 77.459 398.610 83.250 M 432.862 86.414 C 441.108 92.249 452.004 108.761 451.996 115.410 C 451.991 119.514 448.662 124.794 445.250 126.111 C 435.368 129.925 426.018 123.262 425.985 112.382 C 425.965 105.683 424.338 103.047 419.019 101.099 C 414.027 99.270 411.652 95.925 412.558 92.000 C 414.750 82.506 423.814 80.012 432.862 86.414 "/></g>
<g fill="#000000FF" stroke="#000000FF">
<path d="M 313.500 368.954 C 312.400 369.409 310.395 370.970 309.045 372.423 C 301.977 380.029 307.720 403.652 320.430 419.255 C 327.826 428.334 344.635 441.178 353.927 444.850 C 386.405 457.684 426.774 449.693 452.603 425.316 C 470.931 408.019 472.615 384.000 455.500 384.000 C 450.445 384.000 446.916 386.102 438.050 394.393 C 424.382 407.175 414.636 412.518 399.172 415.708 C 386.448 418.333 371.994 414.884 361.898 406.816 C 359.615 404.992 353.068 397.783 347.348 390.796 C 341.629 383.809 335.013 376.506 332.647 374.567 C 325.533 368.737 318.797 366.763 313.500 368.954 M 324.515 373.098 C 330.046 376.011 334.648 380.594 346.004 394.500 C 358.057 409.260 363.237 413.456 374.000 417.181 C 393.272 423.849 416.523 417.685 435.830 400.790 C 440.412 396.780 445.647 392.227 447.462 390.671 C 451.875 386.889 457.663 386.096 461.015 388.814 C 463.234 390.612 463.495 391.560 463.452 397.664 C 463.414 403.119 462.844 405.582 460.632 409.854 C 454.800 421.121 438.254 434.380 421.853 440.930 C 410.433 445.491 401.184 447.158 387.000 447.211 C 364.768 447.295 351.924 442.750 335.650 429.040 C 318.665 414.731 309.795 399.456 309.596 384.173 C 309.503 377.111 309.618 376.740 312.766 373.923 C 316.642 370.453 319.156 370.277 324.515 373.098 "/></g>
<g fill="#000000FF" stroke="#000000FF">
<path d="M 208.268 424.898 C 198.750 428.428 194.360 432.660 186.195 446.177 C 180.093 456.279 179.332 458.160 178.017 466.396 C 176.773 474.180 177.922 481.099 181.853 489.499 C 197.714 523.394 253.193 518.422 262.937 482.233 C 264.476 476.520 264.483 464.623 262.951 458.500 C 259.682 445.427 249.110 432.093 237.556 426.469 C 229.644 422.617 216.341 421.904 208.268 424.898 M 235.266 432.510 C 258.724 444.025 265.687 478.859 247.862 495.532 C 241.191 501.772 233.429 505.077 223.890 505.739 C 211.151 506.622 201.893 503.558 194.248 495.928 C 185.391 487.089 181.772 473.109 185.437 461.902 C 187.434 455.796 196.711 440.545 200.667 436.864 C 206.753 431.202 213.296 428.954 222.500 429.366 C 227.710 429.599 230.974 430.403 235.266 432.510 "/></g>
<g fill="#EB6B66FF" stroke="#EB6B66FF">
<path d="M 313.913 373.282 C 306.045 379.323 310.547 400.168 323.122 415.927 C 329.002 423.297 345.160 436.506 352.500 439.944 C 363.064 444.894 371.821 446.480 388.000 446.374 C 399.348 446.300 404.173 445.826 410.198 444.194 C 429.884 438.861 448.789 426.558 457.526 413.394 C 465.877 400.814 465.207 388.000 456.199 388.000 C 451.867 388.000 449.764 389.369 437.760 400.000 C 422.217 413.765 407.886 420.131 392.000 420.329 C 371.908 420.578 361.698 414.764 344.010 393.000 C 331.811 377.990 324.420 371.962 318.300 372.032 C 316.760 372.049 314.786 372.612 313.913 373.282 "/></g>
<g fill="#000000FF" stroke="#000000FF">
<path d="M 203.942 144.902 C 193.332 148.314 184.070 158.190 178.997 171.500 C 177.179 176.272 176.705 179.547 176.682 187.500 C 176.644 200.376 178.915 206.634 186.657 214.996 C 198.647 227.947 213.542 230.213 228.614 221.381 C 238.966 215.314 248.057 201.553 250.277 188.590 C 253.121 171.991 244.318 154.723 229.239 147.318 C 224.492 144.987 222.032 144.464 215.000 144.289 C 210.325 144.174 205.349 144.449 203.942 144.902 M 227.046 150.133 C 230.096 151.546 234.187 154.103 236.138 155.816 C 242.999 161.840 249.028 177.419 247.536 185.270 C 244.241 202.619 236.231 214.189 223.344 220.220 C 208.008 227.396 190.827 220.526 183.148 204.148 C 180.765 199.065 180.500 197.349 180.500 187.000 C 180.500 176.191 180.687 175.109 183.610 169.000 C 187.848 160.145 193.763 153.780 201.279 149.990 C 206.828 147.191 208.256 146.891 214.500 147.208 C 219.324 147.453 223.224 148.362 227.046 150.133 "/></g>
<g fill="#F8D787FF" stroke="#F8D787FF">
<path d="M 213.000 429.876 C 208.189 431.459 202.478 434.841 199.857 437.658 C 196.899 440.839 189.623 452.000 190.508 452.000 C 190.822 452.000 190.213 452.928 189.156 454.063 C 183.541 460.090 182.597 476.352 187.297 486.092 C 194.040 500.064 206.815 506.923 223.890 505.739 C 233.459 505.075 240.973 501.858 247.778 495.514 C 270.119 474.682 253.329 430.745 222.500 429.366 C 218.650 429.194 214.375 429.423 213.000 429.876 M 247.798 458.628 C 253.399 462.237 255.506 470.461 252.606 477.400 C 249.498 484.838 238.915 489.076 232.166 485.586 C 230.425 484.685 229.000 484.246 229.000 484.609 C 229.000 485.647 225.444 480.818 223.764 477.500 C 222.480 474.962 222.438 473.753 223.494 469.648 C 226.290 458.783 239.054 452.995 247.798 458.628 M 214.256 467.706 C 216.879 469.860 217.329 471.142 217.284 476.343 C 217.244 481.089 214.589 484.895 209.588 487.379 C 206.368 488.978 205.234 489.087 201.976 488.111 C 194.472 485.863 191.088 478.598 194.485 472.029 C 198.366 464.523 207.852 462.449 214.256 467.706 M 224.834 439.646 C 227.947 441.660 230.282 447.440 229.472 451.128 C 227.293 461.048 213.984 464.880 208.024 457.303 C 203.969 452.148 204.145 447.358 208.583 442.084 C 212.788 437.086 219.356 436.101 224.834 439.646 "/></g>
<g fill="#CAE37FFF" stroke="#CAE37FFF">
<path d="M 204.764 148.947 C 193.687 152.480 183.642 165.752 180.926 180.445 C 177.589 198.492 187.815 216.983 203.683 221.596 C 221.078 226.653 241.527 211.045 246.050 189.260 C 249.217 174.004 241.321 157.705 227.500 150.968 C 222.095 148.334 210.045 147.263 204.764 148.947 M 225.000 155.149 C 242.479 162.722 248.158 185.340 236.864 202.392 C 225.145 220.084 204.686 222.796 191.993 208.339 C 186.416 201.987 184.566 196.642 184.609 187.000 C 184.655 176.605 187.200 169.326 193.155 162.561 C 201.816 152.722 213.254 150.059 225.000 155.149 "/></g>
<g fill="#000000FF" stroke="#000000FF">
<path d="M 205.909 154.498 C 199.255 156.628 192.673 162.888 188.787 170.782 C 185.767 176.916 185.500 178.231 185.505 186.979 C 185.509 195.357 185.830 197.108 188.177 201.563 C 199.818 223.660 227.659 221.247 238.808 197.175 C 242.801 188.552 243.042 179.071 239.468 171.109 C 233.347 157.470 218.925 150.331 205.909 154.498 M 223.167 158.860 C 228.291 161.060 233.360 165.947 236.279 171.500 C 239.271 177.192 239.285 188.727 236.306 195.217 C 233.004 202.414 225.761 209.572 219.355 211.968 C 210.239 215.379 204.188 214.127 196.915 207.324 C 190.795 201.599 188.481 195.832 188.558 186.500 C 188.658 174.465 195.745 162.628 205.355 158.447 C 209.852 156.490 218.093 156.682 223.167 158.860 "/></g>
<g fill="#000000FF" stroke="#000000FF">
<path d="M 161.994 73.875 C 153.884 76.534 147.465 82.587 143.302 91.500 C 140.849 96.752 140.500 98.684 140.503 107.000 C 140.505 114.869 140.883 117.207 142.705 120.616 C 152.562 139.065 171.710 142.195 186.181 127.724 C 196.221 117.684 199.672 103.269 194.802 91.720 C 191.833 84.680 186.007 78.333 180.126 75.732 C 175.239 73.570 165.854 72.609 161.994 73.875 M 179.650 79.613 C 188.391 83.748 193.316 91.931 193.427 102.500 C 193.642 123.115 173.161 139.423 157.357 131.219 C 149.077 126.921 143.000 116.638 143.000 106.924 C 143.000 104.882 143.942 100.160 145.094 96.431 C 146.829 90.815 148.171 88.669 152.921 83.919 C 161.303 75.537 168.561 74.368 179.650 79.613 "/></g>
<g fill="#000000FF" stroke="#000000FF">
<path d="M 112.718 171.070 C 103.975 173.178 97.203 179.204 92.656 188.921 C 89.991 194.616 89.586 196.596 89.575 203.989 C 89.566 210.492 90.052 213.574 91.637 217.051 C 98.235 231.527 113.283 237.825 126.500 231.641 C 135.059 227.636 143.213 217.725 145.395 208.676 C 146.838 202.686 146.214 193.368 144.028 188.286 C 138.879 176.319 124.268 168.284 112.718 171.070 M 126.235 175.564 C 131.607 177.395 137.108 182.399 140.241 188.306 C 143.673 194.776 143.418 206.671 139.697 213.784 C 134.621 223.485 126.397 229.750 117.409 230.763 C 104.434 232.226 93.031 219.918 93.010 204.428 C 92.981 183.301 108.746 169.605 126.235 175.564 "/></g>
<g fill="#000000FF" stroke="#000000FF">
<path d="M 216.418 304.969 C 213.185 306.277 209.151 311.679 208.394 315.716 C 207.719 319.314 209.222 325.580 213.500 337.000 C 216.297 344.468 215.207 349.938 208.559 361.775 C 199.495 377.916 198.164 384.940 202.131 395.712 C 206.153 406.636 219.074 415.872 231.594 416.774 C 241.279 417.472 246.000 414.132 246.000 406.582 C 246.000 400.747 242.022 397.285 231.981 394.381 C 221.481 391.345 219.476 389.607 220.456 384.385 C 221.002 381.473 222.995 378.699 228.964 372.541 C 238.146 363.070 240.000 359.812 240.000 353.146 C 240.000 349.149 239.018 346.290 234.918 338.346 C 229.857 328.542 229.838 328.469 230.409 321.198 C 231.446 308.008 225.618 301.247 216.418 304.969 M 224.060 322.000 C 224.592 331.992 224.846 332.956 229.310 341.927 C 231.889 347.113 234.000 352.422 234.000 353.727 C 234.000 357.479 231.646 361.016 224.498 368.000 C 216.661 375.658 214.000 380.302 214.000 386.325 C 214.000 393.851 217.845 397.210 230.223 400.497 C 233.920 401.479 237.672 403.085 238.560 404.067 C 242.985 408.956 236.296 412.404 227.666 409.684 C 216.297 406.100 209.146 399.235 207.083 389.924 C 205.685 383.612 206.629 379.132 211.131 370.713 C 220.358 353.457 221.251 351.163 221.266 344.682 C 221.277 340.046 220.495 336.555 218.140 330.724 C 213.250 318.614 214.425 310.443 220.948 311.203 C 223.462 311.496 223.508 311.656 224.060 322.000 "/></g>
<g fill="#B0E8F8FF" stroke="#B0E8F8FF">
<path d="M 111.558 175.453 C 95.667 181.272 88.188 202.550 96.600 218.007 C 104.665 232.825 121.689 234.578 133.593 221.816 C 143.069 211.657 145.192 199.309 139.428 187.880 C 134.218 177.550 121.418 171.842 111.558 175.453 M 127.554 180.541 C 141.630 187.773 144.155 205.590 132.914 218.361 C 123.294 229.289 109.693 229.726 101.159 219.379 C 97.427 214.855 96.013 210.480 96.006 203.428 C 95.985 184.649 112.388 172.750 127.554 180.541 "/></g>
<g fill="#B0E8F8FF" stroke="#B0E8F8FF">
<path d="M 207.764 157.996 C 195.991 161.541 188.394 174.331 189.152 189.332 C 189.457 195.385 190.059 197.562 192.535 201.566 C 200.988 215.238 216.951 216.891 228.547 205.295 C 234.918 198.925 237.223 193.922 237.790 185.240 C 238.146 179.788 237.820 176.818 236.482 173.314 C 232.110 161.866 218.688 154.707 207.764 157.996 "/></g>
<g fill="#EB6B66FF" stroke="#EB6B66FF">
<path d="M 160.478 78.871 C 147.921 84.575 140.462 103.449 145.526 116.706 C 149.066 125.978 158.050 132.943 166.500 132.968 C 179.203 133.007 193.000 117.704 193.000 103.577 C 193.000 85.532 175.343 72.118 160.478 78.871 M 176.400 81.523 C 186.211 85.622 191.729 95.027 190.737 105.961 C 190.087 113.137 187.375 118.478 181.750 123.663 C 170.581 133.958 155.773 131.413 148.698 117.983 C 146.085 113.023 145.851 111.785 146.239 105.000 C 146.726 96.507 148.923 91.322 154.162 86.303 C 160.493 80.239 168.967 78.417 176.400 81.523 "/></g>
<g fill="#000000FF" stroke="#000000FF">
<path d="M 387.406 81.161 C 383.770 82.119 374.381 91.633 373.464 95.289 C 372.379 99.610 373.329 102.400 376.383 103.859 C 378.888 105.056 380.011 105.011 384.961 103.512 C 392.527 101.221 394.417 101.660 394.817 105.801 C 395.068 108.412 394.197 110.344 390.567 115.230 C 387.018 120.006 386.000 122.225 386.000 125.188 C 386.000 129.860 388.799 133.000 392.963 133.000 C 394.593 133.000 398.209 132.100 401.000 131.000 C 407.109 128.592 407.433 128.576 409.429 130.571 C 410.440 131.583 411.000 133.933 411.000 137.167 C 411.000 145.474 414.993 150.008 422.297 149.993 C 426.018 149.986 430.808 147.124 432.647 143.810 C 434.384 140.680 434.323 134.525 432.520 131.039 C 430.415 126.969 426.684 124.341 420.429 122.522 C 417.443 121.654 414.926 120.394 414.837 119.722 C 414.747 119.050 414.634 115.800 414.587 112.500 C 414.505 106.838 414.356 106.483 411.948 106.203 C 410.358 106.017 408.697 106.677 407.543 107.953 C 403.589 112.322 402.671 108.611 406.086 102.060 C 409.478 95.551 406.599 88.899 398.083 83.573 C 393.442 80.670 391.194 80.162 387.406 81.161 M 394.316 85.118 C 395.517 85.733 398.188 87.850 400.250 89.821 C 404.618 93.997 405.026 97.068 402.000 103.000 C 400.900 105.156 400.000 107.613 400.000 108.460 C 400.000 110.136 403.434 114.000 404.923 114.000 C 405.431 114.000 407.231 112.835 408.923 111.411 C 412.246 108.616 412.647 109.258 411.051 114.822 C 410.415 117.038 410.461 118.918 411.190 120.517 C 412.244 122.832 417.412 125.996 420.151 126.004 C 422.848 126.011 428.064 130.067 429.648 133.388 C 433.956 142.421 423.323 151.414 416.455 144.545 C 414.393 142.484 414.000 141.128 414.000 136.084 C 414.000 131.193 413.594 129.699 411.811 128.039 C 409.019 125.438 406.389 125.471 398.543 128.210 C 393.205 130.073 391.959 130.211 390.605 129.087 C 387.960 126.892 388.752 123.884 394.007 116.172 C 399.180 108.581 399.674 106.903 398.018 102.547 C 396.506 98.571 393.061 97.777 385.698 99.708 C 375.518 102.378 373.642 100.287 379.100 92.355 C 384.012 85.215 389.452 82.628 394.316 85.118 "/></g>
<g fill="#000000FF" stroke="#000000FF">
<path d="M 160.500 82.487 C 150.784 87.051 144.653 100.197 146.991 111.455 C 151.623 133.771 178.495 135.259 188.006 113.727 C 193.318 101.699 189.002 88.675 177.790 82.908 C 173.373 80.637 164.881 80.430 160.500 82.487 M 176.573 86.035 C 188.850 91.978 190.535 109.230 179.879 119.886 C 170.413 129.352 157.728 127.332 151.972 115.443 C 150.127 111.630 149.830 109.710 150.259 104.362 C 151.507 88.814 164.139 80.016 176.573 86.035 "/></g>
<g fill="#000000FF" stroke="#000000FF">
<path d="M 111.500 179.490 C 103.447 182.313 96.000 193.849 96.000 203.500 C 96.000 209.485 98.786 216.389 102.720 220.149 C 107.804 225.010 110.450 226.231 115.906 226.231 C 121.935 226.231 126.835 224.098 131.482 219.451 C 136.536 214.397 139.095 208.305 139.197 201.082 C 139.349 190.371 133.597 182.489 123.386 179.416 C 117.672 177.696 116.598 177.703 111.500 179.490 M 128.411 185.365 C 135.384 190.683 137.921 200.467 134.469 208.728 C 129.428 220.794 118.349 226.134 109.119 220.947 C 96.398 213.797 96.905 191.830 109.971 184.035 C 115.065 180.996 123.480 181.603 128.411 185.365 "/></g>
<g fill="#000000FF" stroke="#000000FF">
<path d="M 393.209 261.566 C 385.082 267.259 382.016 291.259 387.377 307.228 C 390.259 315.815 395.547 324.712 399.718 327.993 C 407.656 334.238 417.937 334.724 421.000 329.000 C 422.550 326.103 420.238 321.460 413.496 313.929 C 403.560 302.831 401.763 294.600 405.987 279.546 C 408.425 270.859 408.082 267.439 404.326 262.976 C 401.456 259.565 396.892 258.986 393.209 261.566 M 402.000 265.000 C 404.606 267.606 404.602 273.498 401.987 281.839 C 399.579 289.523 399.493 293.927 401.612 301.068 C 403.455 307.280 405.275 310.129 412.699 318.420 C 418.082 324.432 418.956 326.644 416.800 328.800 C 413.810 331.790 404.445 328.549 399.369 322.768 C 389.610 311.653 385.462 291.698 389.574 275.644 C 391.417 268.445 393.278 265.230 396.308 264.010 C 399.472 262.735 399.791 262.791 402.000 265.000 "/></g>
<g fill="#000000FF" stroke="#000000FF">
<path d="M 439.230 329.905 C 425.063 334.837 413.933 344.268 406.832 357.358 C 403.828 362.894 403.500 364.306 403.500 371.677 C 403.500 378.424 403.868 380.347 405.602 382.677 C 408.190 386.152 412.422 387.849 414.803 386.366 C 417.142 384.908 420.707 378.376 421.513 374.070 C 422.530 368.640 426.686 360.548 430.281 357.000 C 434.497 352.840 439.247 350.463 447.475 348.396 C 455.190 346.458 459.384 343.396 460.991 338.529 C 463.063 332.249 458.073 326.972 450.101 327.013 C 448.670 327.021 443.778 328.322 439.230 329.905 M 454.532 331.449 C 457.383 332.640 458.000 333.425 458.000 335.860 C 458.000 339.240 453.587 343.610 449.173 344.601 C 437.472 347.227 434.702 348.468 428.962 353.653 C 423.588 358.509 421.369 362.415 418.455 372.151 C 415.560 381.823 413.079 385.139 410.400 382.918 C 407.962 380.896 406.000 375.694 406.000 371.254 C 406.000 368.953 407.394 364.534 409.520 360.098 C 415.920 346.744 430.321 335.051 444.634 331.586 C 447.860 330.806 450.627 330.129 450.782 330.083 C 450.937 330.037 452.625 330.652 454.532 331.449 "/></g>
<g fill="#000000FF" stroke="#000000FF">
<path d="M 373.330 322.940 C 370.084 324.920 363.423 333.140 360.721 338.500 C 359.889 340.150 358.206 344.800 356.982 348.833 C 355.077 355.105 354.822 357.782 355.218 367.333 C 355.747 380.099 357.214 384.567 362.737 390.234 C 367.380 395.000 372.021 396.648 376.072 394.970 C 380.736 393.038 380.811 390.079 376.515 377.353 C 373.397 368.115 372.829 365.264 373.351 361.457 C 374.226 355.071 376.904 349.414 382.405 342.330 C 387.593 335.649 388.967 330.750 386.991 325.978 C 384.798 320.684 379.106 319.418 373.330 322.940 M 381.951 324.974 C 384.303 326.233 385.267 330.168 384.023 333.438 C 383.484 334.856 380.799 338.944 378.056 342.523 C 369.378 353.845 367.982 363.665 373.020 377.952 C 374.659 382.601 376.000 387.663 376.000 389.202 C 376.000 391.589 375.596 391.999 373.250 391.993 C 368.429 391.982 363.085 387.307 360.109 380.500 C 357.933 375.522 357.499 359.462 359.346 352.275 C 362.874 338.548 372.766 324.572 379.316 324.063 C 379.764 324.029 380.950 324.438 381.951 324.974 "/></g>
<g fill="#000000FF" stroke="#000000FF">
<path d="M 337.986 291.750 C 332.909 296.586 327.480 305.778 324.843 314.000 C 322.239 322.120 322.008 337.075 324.362 345.172 C 328.125 358.119 339.847 366.278 346.750 360.755 C 348.918 359.021 348.115 352.429 344.750 344.326 C 342.087 337.913 341.514 335.236 341.576 329.500 C 341.660 321.824 343.513 317.142 349.651 309.100 C 357.748 298.492 355.913 288.000 345.961 288.000 C 342.661 288.000 341.203 288.685 337.986 291.750 M 350.822 294.302 C 352.567 297.960 351.317 301.608 345.923 308.599 C 337.008 320.155 335.789 330.351 341.542 345.247 C 346.001 356.793 345.869 358.546 340.556 358.369 C 337.327 358.261 335.934 357.511 332.875 354.231 C 327.799 348.789 326.488 343.762 326.560 330.000 C 326.612 319.999 326.967 317.614 329.283 311.703 C 332.358 303.854 338.287 294.923 341.961 292.606 C 345.655 290.276 349.228 290.960 350.822 294.302 "/></g>
<g fill="#B0E8F8FF" stroke="#B0E8F8FF">
<path d="M 163.655 85.426 C 155.430 88.428 150.625 96.266 150.701 106.554 C 150.754 113.734 152.540 117.651 157.703 121.907 C 164.296 127.341 171.588 126.934 178.645 120.739 C 183.876 116.145 186.403 110.566 186.450 103.500 C 186.498 96.254 184.212 91.770 178.452 87.813 C 173.497 84.408 168.605 83.619 163.655 85.426 "/></g>
<g fill="#EB6B66FF" stroke="#EB6B66FF">
<path d="M 113.914 182.956 C 107.326 184.952 101.933 192.061 100.547 200.575 C 99.074 209.623 104.725 219.726 112.454 221.860 C 123.249 224.840 135.093 213.883 135.211 200.806 C 135.289 192.099 130.309 185.291 122.219 183.044 C 118.007 181.874 117.500 181.869 113.914 182.956 "/></g>
<g fill="#000000FF" stroke="#000000FF">
<path d="M 161.183 140.750 C 160.062 141.713 156.862 145.561 154.073 149.303 C 147.779 157.743 147.386 161.860 152.000 171.000 C 155.381 177.698 155.748 182.216 153.511 189.591 C 152.692 192.291 152.017 197.133 152.011 200.350 C 152.001 205.649 152.313 206.513 155.321 209.521 C 159.073 213.273 165.103 214.990 167.511 212.991 C 169.526 211.318 169.385 208.529 166.915 201.215 L 164.830 195.041 166.915 189.016 C 168.062 185.703 169.000 182.404 169.000 181.686 C 169.000 180.968 167.386 177.104 165.414 173.101 C 163.156 168.517 162.031 165.011 162.377 163.633 C 162.679 162.429 164.968 158.815 167.463 155.602 C 172.601 148.985 173.326 144.801 169.961 141.189 C 167.503 138.550 163.952 138.372 161.183 140.750 M 168.119 144.361 C 169.358 147.080 168.154 149.735 162.469 156.828 C 158.087 162.294 157.985 166.046 162.000 174.000 C 165.386 180.708 165.648 183.206 163.500 188.346 C 161.499 193.135 161.609 196.550 163.987 203.461 C 165.079 206.636 165.744 209.605 165.464 210.058 C 164.617 211.428 159.119 208.967 156.994 206.265 C 154.471 203.057 154.486 199.847 157.073 189.713 C 159.441 180.440 159.198 178.032 155.000 169.160 C 153.350 165.673 152.000 161.813 152.000 160.582 C 152.000 156.690 162.980 142.000 165.890 142.000 C 166.524 142.000 167.527 143.063 168.119 144.361 "/></g>
<g fill="#F8D787FF" stroke="#F8D787FF">
<path d="M 385.350 85.928 C 381.887 88.040 376.000 95.931 376.000 98.462 C 376.000 101.078 379.002 101.464 385.698 99.708 C 393.061 97.777 396.506 98.571 398.018 102.547 C 399.674 106.903 399.180 108.581 394.007 116.172 C 388.752 123.884 387.960 126.892 390.605 129.087 C 391.959 130.211 393.205 130.073 398.543 128.210 C 406.389 125.471 409.019 125.438 411.811 128.039 C 413.594 129.699 414.000 131.193 414.000 136.084 C 414.000 141.128 414.393 142.484 416.455 144.545 C 423.323 151.414 433.956 142.421 429.648 133.388 C 428.064 130.067 422.848 126.011 420.151 126.004 C 417.412 125.996 412.244 122.832 411.190 120.517 C 410.461 118.918 410.415 117.038 411.051 114.822 C 412.647 109.258 412.246 108.616 408.923 111.411 C 407.231 112.835 405.431 114.000 404.923 114.000 C 403.434 114.000 400.000 110.136 400.000 108.460 C 400.000 107.613 400.900 105.156 402.000 103.000 C 405.198 96.732 404.681 93.882 399.475 89.084 C 396.986 86.790 394.511 85.184 393.975 85.515 C 393.439 85.847 393.000 85.641 393.000 85.059 C 393.000 83.362 388.771 83.842 385.350 85.928 "/></g>
<g fill="#000000FF" stroke="#000000FF">
<path d="M 419.388 83.934 C 416.087 85.340 413.000 89.954 413.000 93.480 C 413.000 96.965 415.034 99.340 419.000 100.486 C 424.767 102.152 426.000 103.707 426.000 109.311 C 426.000 123.878 439.148 132.006 448.150 123.003 C 453.729 117.425 451.252 107.837 441.013 95.380 C 432.925 85.540 425.206 81.454 419.388 83.934 M 434.363 93.378 C 441.248 100.173 447.086 109.222 447.743 114.118 C 448.173 117.330 447.837 118.545 445.963 120.540 C 442.850 123.853 437.155 123.898 433.366 120.639 C 430.978 118.584 430.524 117.265 429.877 110.482 C 429.039 101.711 427.843 99.874 421.558 97.701 C 416.284 95.878 415.152 93.943 417.377 90.547 C 421.221 84.681 426.429 85.549 434.363 93.378 "/></g>
<g fill="#94C566FF" stroke="#94C566FF">
<path d="M 217.573 312.570 C 214.121 316.022 214.491 319.469 219.901 334.225 C 223.471 343.963 222.850 349.369 216.856 360.741 C 208.531 376.533 207.995 377.761 207.349 382.474 C 205.884 393.159 212.899 403.574 224.478 407.906 C 232.025 410.730 238.362 410.468 238.811 407.313 C 239.208 404.524 236.470 402.803 228.000 400.519 C 220.486 398.493 216.580 396.022 214.485 391.971 C 210.885 385.009 213.376 378.706 224.231 367.312 C 235.213 355.784 235.336 354.862 227.911 339.813 L 222.823 329.500 223.295 321.334 C 223.763 313.259 223.124 311.000 220.371 311.000 C 219.696 311.000 218.436 311.706 217.573 312.570 "/></g>
<g fill="#F8D787FF" stroke="#F8D787FF">
<path d="M 444.634 331.586 C 430.321 335.051 415.920 346.744 409.520 360.098 C 407.394 364.534 406.000 368.953 406.000 371.254 C 406.000 375.694 407.962 380.896 410.400 382.918 C 413.079 385.139 415.560 381.823 418.455 372.151 C 421.369 362.415 423.588 358.509 428.962 353.653 C 434.702 348.468 437.472 347.227 449.173 344.601 C 453.587 343.610 458.000 339.240 458.000 335.860 C 458.000 333.425 457.383 332.640 454.532 331.449 C 452.625 330.652 450.937 330.037 450.782 330.083 C 450.627 330.129 447.860 330.806 444.634 331.586 "/></g>
<g fill="#F8D787FF" stroke="#F8D787FF">
<path d="M 341.961 292.606 C 336.820 295.848 329.045 309.513 327.238 318.482 C 326.144 323.916 326.535 341.403 327.851 345.863 C 328.558 348.262 330.819 352.028 332.875 354.231 C 335.934 357.511 337.327 358.261 340.556 358.369 L 344.500 358.500 344.376 354.637 C 344.308 352.512 343.858 350.487 343.376 350.137 C 342.894 349.787 342.343 348.600 342.150 347.500 C 341.958 346.400 341.508 345.275 341.150 345.000 C 340.793 344.725 340.343 343.600 340.150 342.500 C 339.958 341.400 339.487 340.275 339.105 340.000 C 338.723 339.725 338.282 336.111 338.126 331.969 C 337.781 322.826 339.940 316.354 345.923 308.599 C 351.317 301.608 352.567 297.960 350.822 294.302 C 349.228 290.960 345.655 290.276 341.961 292.606 "/></g>
<g fill="#59CFFAFF" stroke="#59CFFAFF">
<path d="M 394.693 265.787 C 389.957 271.020 387.450 284.813 389.071 296.727 C 391.129 311.857 400.833 326.940 409.563 328.578 C 418.699 330.292 419.153 326.577 410.919 317.491 C 402.882 308.623 399.842 302.027 399.726 293.207 C 399.673 289.127 400.360 284.350 401.479 281.011 C 404.022 273.428 404.053 267.244 401.559 265.420 C 398.947 263.509 396.643 263.632 394.693 265.787 "/></g>
<g fill="#59CFFAFF" stroke="#59CFFAFF">
<path d="M 371.736 330.080 C 362.400 339.766 358.465 351.869 359.210 368.611 C 359.595 377.266 360.044 379.400 362.289 383.231 C 365.069 387.974 368.118 390.490 372.387 391.561 C 376.529 392.601 376.549 390.022 372.487 378.263 C 369.373 369.248 368.852 366.588 369.277 361.887 C 369.913 354.863 372.681 348.529 378.493 340.797 C 383.658 333.926 384.720 330.876 383.148 327.426 C 381.273 323.309 377.392 324.212 371.736 330.080 "/></g>
<g fill="#000000FF" stroke="#000000FF">
<path d="M 234.655 457.426 C 220.985 462.416 218.896 478.825 231.137 485.070 C 241.735 490.476 254.008 482.536 253.996 470.282 C 253.987 460.493 244.155 453.958 234.655 457.426 M 247.046 462.750 C 253.449 468.471 251.277 478.146 242.639 482.379 C 239.371 483.980 238.236 484.088 234.956 483.105 C 228.042 481.033 224.527 473.868 227.448 467.797 C 231.185 460.027 241.132 457.465 247.046 462.750 "/></g>
<g fill="#000000FF" stroke="#000000FF">
<path d="M 125.000 135.711 C 121.086 137.711 117.000 144.624 117.000 149.244 C 117.000 156.459 122.940 162.993 129.500 162.993 C 136.146 162.993 143.005 155.266 142.996 147.790 C 142.986 138.551 132.808 131.719 125.000 135.711 M 135.528 139.610 C 136.880 140.496 138.483 142.880 139.091 144.908 C 142.019 154.683 130.556 163.629 123.544 157.041 C 120.530 154.209 119.668 150.553 120.963 146.090 C 123.103 138.712 129.687 135.783 135.528 139.610 "/></g>
<g fill="#000000FF" stroke="#000000FF">
<path d="M 210.418 103.918 C 207.650 105.106 203.154 110.540 202.376 113.637 C 202.034 115.002 201.990 118.215 202.278 120.777 C 203.083 127.914 210.009 133.218 216.423 131.609 C 223.494 129.834 229.220 120.014 227.171 113.176 C 224.971 105.832 216.660 101.239 210.418 103.918 M 217.785 107.075 C 221.816 108.480 224.000 111.961 224.000 116.980 C 224.000 120.155 223.298 121.795 220.750 124.575 C 216.316 129.412 211.826 129.609 207.835 125.141 C 203.310 120.077 204.585 111.443 210.381 107.910 C 214.045 105.675 213.837 105.698 217.785 107.075 "/></g>
<g fill="#000000FF" stroke="#000000FF">
<path d="M 174.941 230.703 C 169.045 235.664 167.344 243.772 170.956 249.696 C 177.970 261.199 193.416 256.410 194.729 242.324 C 195.092 238.423 194.725 236.833 192.809 234.015 C 188.309 227.394 180.577 225.961 174.941 230.703 M 187.889 233.560 C 193.451 238.240 192.789 245.874 186.385 250.912 C 182.807 253.726 178.840 253.567 175.759 250.486 C 172.428 247.156 171.646 242.793 173.552 238.188 C 176.560 230.921 182.481 229.010 187.889 233.560 "/></g>
<g fill="#000000FF" stroke="#000000FF">
<path d="M 91.365 248.919 C 85.225 252.663 83.198 264.340 87.644 270.353 C 90.047 273.602 93.154 275.000 97.976 275.000 C 102.984 275.000 108.234 270.288 110.076 264.142 C 113.562 252.505 101.534 242.718 91.365 248.919 M 103.293 252.016 C 107.076 254.992 108.453 259.979 106.670 264.246 C 103.627 271.529 96.518 274.063 91.686 269.585 C 88.333 266.477 87.447 262.790 88.893 257.963 C 91.052 250.758 98.030 247.876 103.293 252.016 "/></g>
<g fill="#000000FF" stroke="#000000FF">
<path d="M 143.503 234.297 C 134.278 243.522 138.830 259.000 150.768 259.000 C 157.895 259.000 164.000 252.059 164.000 243.954 C 164.000 236.208 158.771 231.000 150.996 231.000 C 147.583 231.000 146.185 231.615 143.503 234.297 M 155.855 235.425 C 162.952 239.095 162.439 249.947 154.960 254.364 C 150.947 256.735 148.233 256.387 144.923 253.077 C 140.699 248.853 140.773 242.467 145.104 237.535 C 148.509 233.656 151.354 233.098 155.855 235.425 "/></g>
<g fill="#F8D787FF" stroke="#F8D787FF">
<path d="M 421.303 87.084 C 420.101 87.528 418.334 89.087 417.377 90.547 C 415.152 93.943 416.284 95.878 421.558 97.701 C 427.824 99.867 429.040 101.720 429.865 110.365 C 430.746 119.585 432.613 122.063 439.175 122.717 C 442.835 123.083 443.881 122.755 445.892 120.615 C 447.839 118.543 448.177 117.355 447.743 114.118 C 447.086 109.222 441.248 100.173 434.363 93.378 C 428.676 87.766 424.674 85.837 421.303 87.084 "/></g>
<g fill="#000000FF" stroke="#000000FF">
<path d="M 72.823 207.778 C 60.982 215.588 59.096 234.308 69.201 243.735 C 72.731 247.028 77.039 247.599 80.037 245.171 C 83.666 242.233 83.360 236.322 79.128 227.583 C 75.700 220.505 75.460 217.587 77.575 208.750 C 78.363 205.457 76.822 205.141 72.823 207.778 M 76.386 229.827 C 81.516 239.854 77.893 247.104 71.036 240.534 C 65.055 234.805 64.394 223.461 69.592 215.775 L 72.483 211.500 73.072 218.000 C 73.450 222.165 74.640 226.413 76.386 229.827 "/></g>
<g fill="#000000FF" stroke="#000000FF">
<path d="M 204.013 464.811 C 198.266 465.713 193.000 471.959 193.000 477.874 C 193.000 481.720 197.063 486.536 201.563 488.021 C 210.811 491.073 220.429 480.747 216.684 471.787 C 215.928 469.979 214.609 467.919 213.752 467.208 C 211.651 465.466 207.052 464.334 204.013 464.811 M 211.365 470.073 C 217.115 474.596 212.738 485.000 205.085 485.000 C 197.054 485.000 193.812 476.237 199.849 470.844 C 203.659 467.439 207.675 467.170 211.365 470.073 "/></g>
<g fill="#000000FF" stroke="#000000FF">
<path d="M 214.333 438.077 C 208.659 439.756 204.052 447.086 205.370 452.338 C 208.485 464.750 226.681 463.837 229.472 451.128 C 231.279 442.900 222.784 435.577 214.333 438.077 M 224.000 443.000 C 228.781 447.781 224.330 458.000 217.467 458.000 C 212.776 458.000 208.908 454.474 208.783 450.085 C 208.581 442.956 219.072 438.072 224.000 443.000 "/></g>
<g fill="#000000FF" stroke="#000000FF">
<path d="M 122.280 399.020 C 117.776 400.833 118.187 403.682 125.385 420.500 C 127.154 424.633 127.960 428.332 127.976 432.390 C 127.994 436.807 128.438 438.612 129.750 439.608 C 134.942 443.549 139.487 439.072 139.433 430.069 C 139.404 425.315 138.638 423.066 134.200 414.701 C 131.340 409.312 129.000 404.057 129.000 403.023 C 129.000 401.174 126.508 397.939 125.179 398.063 C 124.805 398.098 123.501 398.529 122.280 399.020 M 126.518 406.696 C 127.183 408.946 129.445 413.617 131.546 417.076 C 135.683 423.886 137.199 431.891 135.097 435.819 C 132.964 439.805 131.235 437.311 130.843 429.684 C 130.548 423.933 129.729 420.933 126.737 414.646 C 123.030 406.855 121.911 401.470 124.155 402.218 C 124.790 402.430 125.853 404.445 126.518 406.696 "/></g>
<g fill="#B0E8F8FF" stroke="#B0E8F8FF">
<path d="M 234.396 461.429 C 230.145 463.280 227.000 467.990 227.000 472.504 C 227.000 477.709 232.268 483.000 237.450 483.000 C 244.930 483.000 250.000 477.944 250.000 470.484 C 250.000 465.824 248.647 463.386 245.020 461.510 C 241.462 459.671 238.489 459.648 234.396 461.429 "/></g>
<g fill="#94C566FF" stroke="#94C566FF">
<path d="M 160.788 147.198 C 153.807 155.951 153.000 157.333 153.000 160.545 C 153.000 162.347 154.350 166.673 155.999 170.160 C 159.367 177.280 159.670 181.432 157.480 190.500 C 154.631 202.298 156.056 207.422 162.750 209.452 C 165.514 210.291 165.514 210.239 162.782 201.756 L 160.564 194.870 162.881 188.410 L 165.198 181.950 161.599 174.371 C 159.620 170.203 158.000 165.777 158.000 164.536 C 158.000 162.287 161.084 157.099 165.684 151.610 C 168.408 148.360 168.505 143.708 165.860 143.206 C 164.893 143.023 162.811 144.662 160.788 147.198 "/></g>
<g fill="#000000FF" stroke="#000000FF">
<path d="M 107.776 361.592 C 106.351 364.720 108.408 371.541 113.210 379.609 C 117.908 387.500 124.824 390.281 126.513 384.959 C 127.166 382.901 119.137 363.922 116.271 360.750 C 113.807 358.023 109.194 358.480 107.776 361.592 M 118.250 371.895 C 123.485 382.174 124.311 385.772 121.031 384.017 C 117.461 382.106 109.114 365.242 110.572 362.884 C 111.868 360.786 113.667 362.897 118.250 371.895 "/></g>
<g fill="#B0E8F8FF" stroke="#B0E8F8FF">
<path d="M 209.647 109.063 C 202.780 114.464 205.639 128.000 213.646 128.000 C 218.965 128.000 224.000 122.152 224.000 115.973 C 224.000 111.817 219.282 107.000 215.212 107.000 C 213.594 107.000 211.090 107.928 209.647 109.063 "/></g>
<g fill="#EB6B66FF" stroke="#EB6B66FF">
<path d="M 176.521 234.388 C 172.033 238.876 172.351 248.512 177.071 251.038 C 186.227 255.938 195.263 243.219 188.411 235.077 C 185.093 231.133 180.067 230.842 176.521 234.388 "/></g>
<g fill="#CAE37FFF" stroke="#CAE37FFF">
<path d="M 127.256 139.029 C 124.250 140.237 121.008 145.756 121.004 149.673 C 120.999 153.445 125.249 159.000 128.139 159.000 C 133.306 159.000 139.000 153.234 139.000 148.000 C 139.000 144.347 136.189 140.261 132.881 139.108 C 131.132 138.499 129.656 138.029 129.601 138.063 C 129.545 138.098 128.490 138.533 127.256 139.029 "/></g>
<g fill="#EB6B66FF" stroke="#EB6B66FF">
<path d="M 146.433 236.710 C 139.831 243.312 142.393 255.036 150.424 254.978 C 158.568 254.919 163.319 243.228 157.545 237.455 C 154.604 234.513 149.005 234.138 146.433 236.710 "/></g>
<g fill="#CAE37FFF" stroke="#CAE37FFF">
<path d="M 93.750 252.080 C 91.434 253.429 89.000 258.257 89.000 261.500 C 89.000 271.355 99.201 274.252 104.800 265.987 C 110.297 257.874 101.915 247.325 93.750 252.080 "/></g>
<g fill="#000000FF" stroke="#000000FF">
<path d="M 451.000 357.657 C 445.823 359.742 444.513 364.840 448.012 369.288 C 452.002 374.360 460.606 373.596 463.547 367.909 C 465.521 364.093 465.373 361.647 463.041 359.537 C 461.034 357.721 453.688 356.574 451.000 357.657 M 461.088 362.606 C 461.968 363.666 461.853 364.576 460.595 366.495 C 458.278 370.032 453.898 370.212 450.514 366.910 C 448.963 365.397 448.765 364.597 449.609 363.259 C 451.585 360.126 458.694 359.721 461.088 362.606 "/></g>
<g fill="#000000FF" stroke="#000000FF">
<path d="M 390.272 392.814 C 383.664 394.849 382.169 400.323 386.923 405.077 C 389.087 407.241 390.795 408.000 393.500 408.000 C 401.007 408.000 406.257 398.180 400.698 394.538 C 397.847 392.670 393.222 391.905 390.272 392.814 M 399.365 398.205 C 400.205 399.546 399.923 400.453 398.042 402.455 C 395.142 405.542 393.104 405.657 389.635 402.927 C 386.576 400.522 386.276 398.531 388.750 397.054 C 391.386 395.481 398.115 396.210 399.365 398.205 "/></g>
<g fill="#000000FF" stroke="#000000FF">
<path d="M 418.000 285.752 C 415.097 287.202 414.448 288.117 414.198 291.117 C 413.945 294.133 414.415 295.171 417.024 297.367 C 422.317 301.821 429.417 300.235 431.990 294.025 C 433.639 290.042 432.414 287.071 428.436 285.409 C 424.046 283.574 422.239 283.634 418.000 285.752 M 428.947 289.436 C 430.422 291.213 428.936 294.428 425.886 296.061 C 421.492 298.413 415.083 293.015 418.040 289.452 C 419.622 287.546 427.369 287.534 428.947 289.436 "/></g>
<g fill="#B0E8F8FF" stroke="#B0E8F8FF">
<path d="M 213.277 442.973 C 207.475 446.511 207.608 453.892 213.526 456.714 C 216.765 458.258 217.238 458.257 220.523 456.691 C 226.230 453.969 227.686 447.595 223.545 443.455 C 220.582 440.491 217.579 440.350 213.277 442.973 "/></g>
<g fill="#B0E8F8FF" stroke="#B0E8F8FF">
<path d="M 202.011 469.752 C 195.624 472.952 195.312 480.751 201.455 483.680 C 205.945 485.821 210.510 484.096 212.743 479.412 C 214.671 475.369 213.202 470.869 209.385 469.130 C 206.199 467.678 206.139 467.683 202.011 469.752 "/></g>
<g fill="#B0E8F8FF" stroke="#B0E8F8FF">
<path d="M 70.215 215.453 C 67.385 219.052 65.655 225.488 66.357 229.812 C 67.684 237.992 73.949 244.947 77.405 242.079 C 79.819 240.075 79.353 236.893 75.461 228.831 C 72.769 223.256 71.982 220.440 72.173 217.073 L 72.424 212.645 70.215 215.453 "/></g>
<g fill="#F8D787FF" stroke="#F8D787FF">
<path d="M 123.000 404.313 C 123.000 405.677 124.682 410.327 126.737 414.646 C 129.729 420.933 130.548 423.933 130.843 429.684 C 131.235 437.311 132.964 439.805 135.097 435.819 C 137.199 431.891 135.683 423.886 131.546 417.076 C 129.445 413.617 127.183 408.946 126.518 406.696 C 125.138 402.020 123.000 400.572 123.000 404.313 "/></g>
<g fill="#F8D787FF" stroke="#F8D787FF">
<path d="M 110.572 362.884 C 109.114 365.242 117.461 382.106 121.031 384.017 C 124.311 385.772 123.485 382.174 118.250 371.895 C 113.667 362.897 111.868 360.786 110.572 362.884 "/></g>
<g fill="#EB6B66FF" stroke="#EB6B66FF">
<path d="M 451.750 361.689 C 449.148 362.369 449.632 365.713 452.615 367.667 C 454.959 369.203 455.503 369.228 457.858 367.906 C 460.841 366.232 461.857 363.158 459.848 361.885 C 458.442 360.994 454.752 360.905 451.750 361.689 "/></g>
<g fill="#EB6B66FF" stroke="#EB6B66FF">
<path d="M 420.250 289.031 C 417.562 290.111 417.324 292.767 419.750 294.608 C 422.230 296.490 425.412 296.307 427.345 294.171 C 429.671 291.602 429.409 290.106 426.435 288.975 C 423.441 287.837 423.216 287.839 420.250 289.031 "/></g>
<g fill="#EB6B66FF" stroke="#EB6B66FF">
<path d="M 391.189 396.714 C 388.087 397.306 387.362 399.638 389.534 402.037 C 392.600 405.426 399.000 403.645 399.000 399.404 C 399.000 398.269 394.524 395.518 393.685 396.136 C 393.583 396.211 392.460 396.471 391.189 396.714 "/></g>
<g fill="#F8D787FF" stroke="#F8D787FF">
<path d="M 127.368 38.351 C 119.074 42.822 112.489 47.808 106.500 54.151 C 101.539 59.406 101.550 59.400 108.000 53.430 C 115.894 46.124 119.412 43.609 128.498 38.776 C 132.349 36.728 135.050 35.051 134.500 35.049 C 133.950 35.047 130.741 36.533 127.368 38.351 "/></g>
<g fill="#F8D787FF" stroke="#F8D787FF">
<path d="M 230.500 50.125 C 232.700 51.939 238.802 57.490 244.060 62.461 L 253.620 71.500 243.560 61.462 C 238.027 55.941 231.925 50.390 230.000 49.126 C 226.823 47.040 226.870 47.133 230.500 50.125 "/></g>
<g fill="#F8D787FF" stroke="#F8D787FF">
<path d="M 188.107 113.582 C 186.437 118.199 179.956 125.361 175.943 127.024 C 174.289 127.709 173.133 128.467 173.375 128.708 C 174.240 129.573 179.566 126.096 183.140 122.332 C 187.017 118.250 190.339 112.517 189.787 110.862 C 189.603 110.310 188.847 111.534 188.107 113.582 "/></g>
<g fill="#F8D787FF" stroke="#F8D787FF">
<path d="M 236.352 75.774 C 241.080 80.875 245.178 85.045 245.459 85.039 C 245.739 85.034 241.871 80.861 236.862 75.765 L 227.755 66.500 236.352 75.774 "/></g>
<g fill="#F8D787FF" stroke="#F8D787FF">
<path d="M 231.000 241.973 L 222.500 250.540 231.000 241.973 L 239.500 233.407 231.000 241.973 "/></g>
<g fill="#F8D787FF" stroke="#F8D787FF">
<path d="M 254.537 225.717 C 252.907 227.798 249.532 231.795 247.037 234.601 C 244.541 237.406 245.451 236.630 249.059 232.877 C 252.666 229.124 256.041 225.126 256.559 223.994 C 257.076 222.861 256.166 223.637 254.537 225.717 "/></g>
<g fill="#F8D787FF" stroke="#F8D787FF">
<path d="M 46.000 281.425 C 47.925 283.525 51.662 286.877 54.305 288.872 C 56.948 290.867 58.609 292.050 57.996 291.500 C 45.270 280.073 43.063 278.219 46.000 281.425 "/></g>
<g fill="#F8D787FF" stroke="#F8D787FF">
<path d="M 76.211 401.084 C 72.202 403.722 69.052 406.021 69.211 406.193 C 69.370 406.365 72.813 404.343 76.863 401.699 C 80.913 399.056 84.063 396.757 83.863 396.590 C 83.663 396.424 80.220 398.446 76.211 401.084 "/></g>
<g fill="#F8D787FF" stroke="#F8D787FF">
<path d="M 224.500 367.468 L 217.500 374.545 224.500 367.468 L 231.500 360.392 224.500 367.468 "/></g>
<g fill="#F8D787FF" stroke="#F8D787FF">
<path d="M 444.223 393.750 C 441.016 396.913 440.441 397.653 442.946 395.397 C 445.451 393.140 448.613 390.552 449.973 389.647 C 451.332 388.741 451.907 388.000 451.249 388.000 C 450.591 388.000 447.429 390.588 444.223 393.750 "/></g>
<g fill="#F8D787FF" stroke="#F8D787FF">
<path d="M 332.644 380.176 C 339.150 386.212 339.244 386.263 334.500 381.176 C 331.750 378.228 328.665 375.365 327.644 374.816 C 326.623 374.266 328.873 376.678 332.644 380.176 "/></g>
<g fill="#F8D787FF" stroke="#F8D787FF">
<path d="M 322.782 416.568 C 324.486 418.806 327.159 421.731 328.722 423.068 C 330.284 424.406 328.890 422.575 325.624 419.000 C 322.357 415.425 321.078 414.331 322.782 416.568 "/></g>
<g fill="#F8D787FF" stroke="#F8D787FF">
<path d="M 452.500 282.500 L 459.000 289.000 452.500 282.500 L 446.000 276.000 452.500 282.500 "/></g>
<g fill="#F8D787FF" stroke="#F8D787FF">
<path d="M 167.074 427.368 C 162.080 433.011 162.009 433.156 166.182 429.181 C 168.675 426.806 171.117 424.047 171.608 423.050 C 172.098 422.053 170.058 423.996 167.074 427.368 "/></g>
<g fill="#F8D787FF" stroke="#F8D787FF">
<path d="M 101.000 390.961 L 95.500 396.551 101.000 390.961 L 106.500 385.370 101.000 390.961 "/></g>
<g fill="#F8D787FF" stroke="#F8D787FF">
<path d="M 418.000 413.050 C 414.975 414.621 412.852 415.927 413.283 415.953 C 414.380 416.019 424.277 410.940 423.849 410.530 C 423.657 410.346 421.025 411.480 418.000 413.050 "/></g>
<g fill="#F8D787FF" stroke="#F8D787FF">
<path d="M 111.961 405.000 C 111.114 405.825 108.864 407.775 106.961 409.333 C 104.857 411.054 105.461 410.790 108.500 408.660 C 111.250 406.732 113.500 404.782 113.500 404.327 C 113.500 403.872 112.807 404.175 111.961 405.000 "/></g>
<g fill="#F8D787FF" stroke="#F8D787FF">
<path d="M 166.621 391.765 C 165.587 393.269 163.562 395.850 162.121 397.500 L 159.500 400.500 162.633 397.675 C 164.357 396.121 166.382 393.540 167.133 391.940 L 168.500 389.031 166.621 391.765 "/></g>
<g fill="#F8D787FF" stroke="#F8D787FF">
<path d="M 95.500 386.457 L 90.500 391.554 95.500 386.457 L 100.500 381.361 95.500 386.457 "/></g>
<g fill="#F8D787FF" stroke="#F8D787FF">
<path d="M 163.000 378.396 L 158.500 382.735 163.832 378.367 C 166.764 375.965 168.789 374.013 168.332 374.029 C 167.874 374.045 165.475 376.010 163.000 378.396 "/></g>
<g fill="#F8D787FF" stroke="#F8D787FF">
<path d="M 158.719 373.000 L 153.937 377.500 158.719 373.000 L 163.500 368.500 158.719 373.000 "/></g>
<g fill="#F8D787FF" stroke="#F8D787FF">
<path d="M 149.289 356.999 C 146.423 358.924 145.396 359.875 147.006 359.111 C 148.616 358.347 150.961 356.772 152.217 355.610 C 153.473 354.448 152.155 355.073 149.289 356.999 "/></g>
<g fill="#F8D787FF" stroke="#F8D787FF">
<path d="M 174.000 282.050 C 170.975 283.621 168.852 284.927 169.283 284.953 C 170.380 285.019 180.277 279.940 179.849 279.530 C 179.657 279.346 177.025 280.480 174.000 282.050 "/></g>
<g fill="#F8D787FF" stroke="#F8D787FF">
<path d="M 71.000 213.535 C 70.138 214.598 70.031 215.065 70.750 214.633 C 71.651 214.092 72.061 214.946 72.219 217.691 C 72.346 219.899 72.451 219.438 72.469 216.593 C 72.498 212.078 72.380 211.834 71.000 213.535 "/></g>
<g fill="#F8D787FF" stroke="#F8D787FF">
<path d="M 34.683 216.010 C 33.133 218.864 32.045 221.378 32.264 221.598 C 32.484 221.817 33.751 219.482 35.081 216.409 L 37.500 210.822 34.683 216.010 "/></g>
<g fill="#F8D787FF" stroke="#F8D787FF">
<path d="M 53.500 191.457 L 48.500 196.554 53.500 191.457 L 58.500 186.361 53.500 191.457 "/></g>
<g fill="#F8D787FF" stroke="#F8D787FF">
<path d="M 376.500 77.457 L 371.500 82.554 376.500 77.457 L 381.500 72.361 376.500 77.457 "/></g>
<g fill="#F8D787FF" stroke="#F8D787FF">
<path d="M 371.500 72.457 L 366.500 77.554 371.500 72.457 L 376.500 67.361 371.500 72.457 "/></g>
<g fill="#F8D787FF" stroke="#F8D787FF">
<path d="M 340.804 433.253 C 342.072 434.623 344.378 436.365 345.930 437.122 C 347.481 437.880 346.444 436.759 343.625 434.630 C 340.512 432.280 339.405 431.739 340.804 433.253 "/></g>
<g fill="#F8D787FF" stroke="#F8D787FF">
<path d="M 194.769 270.405 C 192.167 272.107 191.302 272.908 192.847 272.184 C 194.392 271.461 196.521 270.068 197.578 269.089 C 198.635 268.111 197.371 268.703 194.769 270.405 "/></g>
<g fill="#F8D787FF" stroke="#F8D787FF">
<path d="M 57.823 269.609 C 58.985 271.319 60.984 273.569 62.265 274.609 C 63.547 275.649 62.596 274.250 60.153 271.500 C 57.710 268.750 56.662 267.899 57.823 269.609 "/></g>
<g fill="#F8D787FF" stroke="#F8D787FF">
<path d="M 38.152 271.057 C 39.406 273.288 41.042 275.620 41.788 276.239 C 42.534 276.858 41.694 275.032 39.922 272.182 C 36.101 266.035 34.901 265.272 38.152 271.057 "/></g>
<g fill="#F8D787FF" stroke="#F8D787FF">
<path d="M 160.094 244.000 C 159.970 245.925 159.561 248.346 159.184 249.380 C 158.704 250.699 158.891 250.611 159.810 249.084 C 160.530 247.887 160.940 245.466 160.720 243.704 L 160.320 240.500 160.094 244.000 "/></g>
<g fill="#F8D787FF" stroke="#F8D787FF">
<path d="M 184.118 87.456 C 185.558 89.130 187.232 91.400 187.838 92.500 C 188.444 93.600 188.953 93.920 188.970 93.211 C 188.986 92.502 187.313 90.233 185.250 88.167 C 183.161 86.076 182.660 85.760 184.118 87.456 "/></g>
<g fill="#F8D787FF" stroke="#F8D787FF">
<path d="M 236.871 403.622 C 238.497 404.761 239.053 405.943 238.738 407.592 C 238.491 408.883 238.674 409.702 239.144 409.411 C 241.381 408.028 238.375 402.000 235.449 402.000 C 234.957 402.000 235.597 402.730 236.871 403.622 "/></g>
<g fill="#F8D787FF" stroke="#F8D787FF">
<path d="M 432.680 404.000 L 428.861 407.500 432.680 404.000 L 436.500 400.500 432.680 404.000 "/></g>
<g fill="#F8D787FF" stroke="#F8D787FF">
<path d="M 173.000 288.550 C 170.525 289.848 168.855 290.930 169.290 290.955 C 170.390 291.018 178.273 286.937 177.847 286.525 C 177.656 286.341 175.475 287.252 173.000 288.550 "/></g>
<g fill="#F8D787FF" stroke="#F8D787FF">
<path d="M 209.221 267.379 L 204.943 270.500 209.009 268.136 C 211.246 266.836 213.171 265.431 213.288 265.015 C 213.405 264.598 211.575 265.662 209.221 267.379 "/></g>
<g fill="#F8D787FF" stroke="#F8D787FF">
<path d="M 232.500 249.449 L 228.500 253.559 232.500 249.449 L 236.500 245.338 232.500 249.449 "/></g>
<g fill="#F8D787FF" stroke="#F8D787FF">
<path d="M 77.409 160.597 L 75.500 165.209 77.820 161.008 C 79.096 158.697 79.955 156.621 79.729 156.396 C 79.503 156.170 78.459 158.060 77.409 160.597 "/></g>
<g fill="#F8D787FF" stroke="#F8D787FF">
<path d="M 370.500 149.500 L 375.000 154.000 370.500 149.500 L 366.000 145.000 370.500 149.500 "/></g>
<g fill="#F8D787FF" stroke="#F8D787FF">
<path d="M 373.250 93.735 C 372.563 94.908 372.052 97.136 372.115 98.684 C 372.221 101.278 372.289 101.223 372.972 98.000 C 373.380 96.075 373.891 93.848 374.107 93.050 C 374.323 92.253 373.938 92.561 373.250 93.735 "/></g>
<g fill="#F8D787FF" stroke="#F8D787FF">
<path d="M 379.500 86.449 L 375.500 90.559 379.500 86.449 L 383.500 82.338 379.500 86.449 "/></g>
<g fill="#F8D787FF" stroke="#F8D787FF">
<path d="M 63.314 423.250 C 64.363 424.213 66.184 424.961 67.361 424.914 C 69.096 424.844 68.968 424.668 66.686 423.983 C 65.138 423.519 63.317 422.770 62.639 422.319 C 61.961 421.869 62.264 422.288 63.314 423.250 "/></g>
<g fill="#F8D787FF" stroke="#F8D787FF">
<path d="M 451.000 421.942 L 447.500 425.562 451.000 421.942 L 454.500 418.323 451.000 421.942 "/></g>
<g fill="#F8D787FF" stroke="#F8D787FF">
<path d="M 457.645 413.247 C 455.649 416.221 455.402 416.946 456.825 415.658 C 457.945 414.645 459.229 412.731 459.680 411.405 C 460.150 410.024 459.280 410.811 457.645 413.247 "/></g>
<g fill="#F8D787FF" stroke="#F8D787FF">
<path d="M 396.814 397.055 C 398.423 397.700 399.048 398.672 398.866 400.242 C 398.649 402.104 398.746 402.191 399.414 400.737 C 400.378 398.639 398.502 395.971 396.128 396.063 C 395.056 396.105 395.291 396.444 396.814 397.055 "/></g>
<g fill="#F8D787FF" stroke="#F8D787FF">
<path d="M 144.063 384.128 C 143.978 386.331 146.498 388.271 148.702 387.699 C 150.095 387.337 149.986 387.206 148.218 387.116 C 146.854 387.047 145.571 386.094 145.031 384.750 C 144.419 383.227 144.106 383.026 144.063 384.128 "/></g>
<g fill="#F8D787FF" stroke="#F8D787FF">
<path d="M 121.084 369.500 C 121.084 370.050 121.946 372.075 123.000 374.000 C 124.054 375.925 124.916 377.050 124.916 376.500 C 124.916 375.950 124.054 373.925 123.000 372.000 C 121.946 370.075 121.084 368.950 121.084 369.500 "/></g>
<g fill="#F8D787FF" stroke="#F8D787FF">
<path d="M 108.200 359.200 C 107.540 359.860 107.000 360.846 107.000 361.391 C 107.000 361.936 107.563 361.653 108.250 360.762 C 108.938 359.871 110.625 358.946 112.000 358.707 L 114.500 358.272 111.950 358.136 C 110.548 358.061 108.860 358.540 108.200 359.200 "/></g>
<g fill="#F8D787FF" stroke="#F8D787FF">
<path d="M 146.000 299.500 C 144.075 300.241 143.175 300.862 144.000 300.879 C 144.825 300.896 146.850 300.292 148.500 299.536 C 152.362 297.768 150.566 297.742 146.000 299.500 "/></g>
<g fill="#F8D787FF" stroke="#F8D787FF">
<path d="M 326.000 282.942 L 322.500 286.562 326.000 282.942 L 329.500 279.323 326.000 282.942 "/></g>
<g fill="#F8D787FF" stroke="#F8D787FF">
<path d="M 186.621 281.367 L 182.742 283.500 186.424 282.091 C 188.449 281.316 190.195 280.357 190.303 279.958 C 190.411 279.560 188.754 280.194 186.621 281.367 "/></g>
<g fill="#F8D787FF" stroke="#F8D787FF">
<path d="M 53.205 261.934 C 54.467 264.372 55.132 265.205 54.683 263.784 C 54.234 262.362 53.201 260.367 52.388 259.350 C 51.575 258.332 51.943 259.495 53.205 261.934 "/></g>
<g fill="#F8D787FF" stroke="#F8D787FF">
<path d="M 223.000 257.500 L 219.626 260.500 223.000 257.500 L 226.374 254.500 223.000 257.500 "/></g>
<g fill="#F8D787FF" stroke="#F8D787FF">
<path d="M 256.500 208.000 L 254.682 211.850 256.500 208.000 L 258.318 204.150 256.500 208.000 "/></g>
<g fill="#F8D787FF" stroke="#F8D787FF">
<path d="M 103.254 191.076 C 102.019 192.959 101.121 194.846 101.260 195.268 C 101.399 195.691 102.409 194.150 103.506 191.844 L 105.500 187.652 103.254 191.076 "/></g>
<g fill="#F8D787FF" stroke="#F8D787FF">
<path d="M 357.000 163.000 L 361.000 167.000 357.000 163.000 L 353.000 159.000 357.000 163.000 "/></g>
<g fill="#F8D787FF" stroke="#F8D787FF">
<path d="M 366.000 155.000 L 370.000 159.000 366.000 155.000 L 362.000 151.000 366.000 155.000 "/></g>
<g fill="#F8D787FF" stroke="#F8D787FF">
<path d="M 257.084 104.500 C 257.084 105.050 257.946 107.075 259.000 109.000 C 260.054 110.925 260.916 112.050 260.916 111.500 C 260.916 110.950 260.054 108.925 259.000 107.000 C 257.946 105.075 257.084 103.950 257.084 104.500 "/></g>
<g fill="#F8D787FF" stroke="#F8D787FF">
<path d="M 95.116 96.098 C 94.502 97.858 94.032 99.794 94.070 100.399 C 94.109 101.005 94.786 99.739 95.574 97.587 C 96.363 95.435 96.833 93.500 96.620 93.286 C 96.406 93.073 95.729 94.338 95.116 96.098 "/></g>
<g fill="#F8D787FF" stroke="#F8D787FF">
<path d="M 190.050 90.000 C 190.039 90.275 190.679 92.300 191.471 94.500 C 192.264 96.700 192.916 97.600 192.921 96.500 C 192.928 94.836 190.113 88.462 190.050 90.000 "/></g>
<g fill="#F8D787FF" stroke="#F8D787FF">
<path d="M 430.000 75.311 C 430.000 75.544 431.913 76.996 434.250 78.537 C 436.588 80.079 437.972 80.701 437.327 79.920 C 436.086 78.418 430.000 74.589 430.000 75.311 "/></g>
<g fill="#F8D787FF" stroke="#F8D787FF">
<path d="M 218.000 41.311 C 218.000 41.544 219.913 42.996 222.250 44.537 C 224.588 46.079 225.972 46.701 225.327 45.920 C 224.086 44.418 218.000 40.589 218.000 41.311 "/></g>
<g fill="#F8D787FF" stroke="#F8D787FF">
<path d="M 199.000 32.500 C 203.566 34.258 205.362 34.232 201.500 32.464 C 199.850 31.708 197.825 31.104 197.000 31.121 C 196.175 31.138 197.075 31.759 199.000 32.500 "/></g>
<g fill="#94C566FF" stroke="#94C566FF">
<path d="M 366.000 61.942 L 362.500 65.562 366.000 61.942 L 369.500 58.323 366.000 61.942 "/></g>
<g fill="#F8D787FF" stroke="#F8D787FF">
<path d="M 429.000 437.049 C 427.075 438.076 425.860 438.935 426.300 438.958 C 427.403 439.016 433.267 435.932 432.843 435.517 C 432.654 435.332 430.925 436.021 429.000 437.049 "/></g>
<g fill="#F8D787FF" stroke="#F8D787FF">
<path d="M 442.633 428.956 L 439.766 431.500 442.633 428.956 L 445.500 426.412 442.633 428.956 "/></g>
<g fill="#F8D787FF" stroke="#F8D787FF">
<path d="M 314.068 402.300 C 314.030 402.739 314.788 404.462 315.750 406.127 C 317.453 409.072 317.454 409.051 315.818 405.327 C 314.892 403.222 314.105 401.860 314.068 402.300 "/></g>
<g fill="#F8D787FF" stroke="#F8D787FF">
<path d="M 357.500 402.500 L 361.000 406.000 357.500 402.500 L 354.000 399.000 357.500 402.500 "/></g>
<g fill="#F8D787FF" stroke="#F8D787FF">
<path d="M 387.579 398.333 C 386.945 399.689 387.335 400.731 389.074 402.333 L 391.426 404.500 389.647 402.348 C 388.668 401.164 387.995 399.364 388.151 398.348 C 388.425 396.565 388.405 396.565 387.579 398.333 "/></g>
<g fill="#F8D787FF" stroke="#F8D787FF">
<path d="M 129.207 373.477 C 130.635 375.038 131.290 375.151 133.207 374.167 L 135.500 372.989 133.202 373.577 C 131.938 373.901 130.138 373.590 129.202 372.887 C 127.610 371.692 127.611 371.730 129.207 373.477 "/></g>
<g fill="#F8D787FF" stroke="#F8D787FF">
<path d="M 449.063 364.095 C 448.997 365.773 452.006 369.021 453.579 368.970 C 454.085 368.953 453.684 368.464 452.686 367.884 C 451.689 367.304 450.480 365.855 450.000 364.665 C 449.409 363.199 449.106 363.015 449.063 364.095 "/></g>
<g fill="#F8D787FF" stroke="#F8D787FF">
<path d="M 164.868 338.245 C 165.620 339.204 166.000 340.892 165.711 341.996 C 165.423 343.100 165.595 343.751 166.093 343.442 C 167.596 342.513 167.115 339.335 165.250 337.872 C 163.665 336.629 163.629 336.665 164.868 338.245 "/></g>
<g fill="#F8D787FF" stroke="#F8D787FF">
<path d="M 418.028 289.466 C 417.359 290.273 417.043 291.510 417.327 292.216 C 417.646 293.011 417.872 292.821 417.921 291.718 C 417.964 290.738 419.013 289.529 420.250 289.031 C 421.773 288.419 421.974 288.106 420.872 288.063 C 419.977 288.029 418.697 288.660 418.028 289.466 "/></g>
<g fill="#F8D787FF" stroke="#F8D787FF">
<path d="M 207.633 261.956 L 204.766 264.500 207.633 261.956 L 210.500 259.412 207.633 261.956 "/></g>
<g fill="#F8D787FF" stroke="#F8D787FF">
<path d="M 177.602 252.164 C 177.886 252.624 179.554 252.948 181.309 252.885 L 184.500 252.770 180.793 252.049 C 178.753 251.653 177.318 251.705 177.602 252.164 "/></g>
<g fill="#F8D787FF" stroke="#F8D787FF">
<path d="M 143.750 239.091 C 142.788 240.386 142.004 242.132 142.009 242.973 C 142.014 243.813 142.801 242.753 143.759 240.618 C 145.418 236.919 145.418 236.847 143.750 239.091 "/></g>
<g fill="#F8D787FF" stroke="#F8D787FF">
<path d="M 147.602 234.836 C 147.318 235.295 148.753 235.347 150.793 234.951 L 154.500 234.230 151.309 234.115 C 149.554 234.052 147.886 234.376 147.602 234.836 "/></g>
<g fill="#F8D787FF" stroke="#F8D787FF">
<path d="M 178.602 231.836 C 178.318 232.295 179.753 232.347 181.793 231.951 L 185.500 231.230 182.309 231.115 C 180.554 231.052 178.886 231.376 178.602 231.836 "/></g>
<g fill="#F8D787FF" stroke="#F8D787FF">
<path d="M 127.773 217.974 L 125.046 220.500 127.773 217.974 L 130.500 215.448 127.773 217.974 "/></g>
<g fill="#F8D787FF" stroke="#F8D787FF">
<path d="M 67.500 187.435 L 64.500 190.564 67.500 187.435 L 70.500 184.305 67.500 187.435 "/></g>
<g fill="#F8D787FF" stroke="#F8D787FF">
<path d="M 62.500 181.435 L 59.500 184.564 62.500 181.435 L 65.500 178.305 62.500 181.435 "/></g>
<g fill="#F8D787FF" stroke="#F8D787FF">
<path d="M 466.500 160.435 L 463.500 163.564 466.500 160.435 L 469.500 157.305 466.500 160.435 "/></g>
<g fill="#F8D787FF" stroke="#F8D787FF">
<path d="M 192.500 156.435 L 189.500 159.564 192.500 156.435 L 195.500 153.305 192.500 156.435 "/></g>
<g fill="#F8D787FF" stroke="#F8D787FF">
<path d="M 151.500 126.500 L 155.000 130.000 151.500 126.500 L 148.000 123.000 151.500 126.500 "/></g>
<g fill="#F8D787FF" stroke="#F8D787FF">
<path d="M 183.500 125.435 L 180.500 128.564 183.500 125.435 L 186.500 122.305 183.500 125.435 "/></g>
<g fill="#F8D787FF" stroke="#F8D787FF">
<path d="M 453.932 100.750 C 455.021 102.813 455.931 104.140 455.956 103.700 C 456.016 102.619 453.076 97.000 452.450 97.000 C 452.176 97.000 452.843 98.688 453.932 100.750 "/></g>
<g fill="#F8D787FF" stroke="#F8D787FF">
<path d="M 262.872 85.500 C 263.412 86.600 264.586 88.400 265.482 89.500 L 267.110 91.500 266.128 89.500 C 265.588 88.400 264.414 86.600 263.518 85.500 L 261.890 83.500 262.872 85.500 "/></g>
<g fill="#F8D787FF" stroke="#F8D787FF">
<path d="M 443.500 85.500 L 447.000 89.000 443.500 85.500 L 440.000 82.000 443.500 85.500 "/></g>
<g fill="#F8D787FF" stroke="#F8D787FF">
<path d="M 256.565 76.283 C 258.179 78.363 259.080 79.146 258.566 78.022 C 258.053 76.897 256.732 75.195 255.632 74.239 C 254.531 73.282 254.951 74.202 256.565 76.283 "/></g>
<g fill="#F8D787FF" stroke="#F8D787FF">
<path d="M 206.500 52.518 C 207.600 53.414 209.400 54.588 210.500 55.128 L 212.500 56.110 210.500 54.482 C 209.400 53.586 207.600 52.412 206.500 51.872 L 204.500 50.890 206.500 52.518 "/></g>
</svg>
