<?xml version="1.0" encoding="utf-8"?>
<!DOCTYPE svg PUBLIC "-//W3C//DTD SVG 20010904//EN" "http://www.w3.org/TR/2001/REC-SVG-20010904/DTD/svg10.dtd">
<svg version="1.0" xmlns="http://www.w3.org/2000/svg" width="514pt" height="514pt" viewBox="0 0 514 514" style="" preserveAspectRatio="xMidYMid meet">
<g fill="#6BCB44FF" stroke="#6BCB44FF">
<path d="M 251.500 64.563 C 216.594 69.297 188.377 81.704 169.141 100.774 C 166.120 103.770 160.307 107.922 155.814 110.294 C 151.431 112.607 154.742 111.250 163.172 107.278 C 179.467 99.600 194.132 94.392 208.000 91.359 C 214.661 89.902 220.502 89.514 235.000 89.563 C 255.924 89.634 262.991 90.991 277.229 97.670 C 286.258 101.906 288.165 103.653 287.313 106.912 C 286.632 109.514 288.463 109.507 265.573 106.985 C 241.093 104.288 211.042 111.277 183.000 126.187 C 173.831 131.063 154.584 143.246 153.641 144.771 C 152.959 145.876 156.976 154.832 161.258 161.753 C 166.138 169.641 177.160 179.785 185.759 184.304 C 200.653 192.130 222.102 195.701 244.103 194.017 C 266.029 192.339 277.759 189.664 312.000 178.534 C 347.184 167.098 349.775 166.548 368.500 166.536 C 386.389 166.524 390.403 167.305 407.287 174.084 C 416.483 177.776 417.245 177.924 419.916 176.544 C 422.868 175.017 424.000 173.183 424.000 169.928 C 424.000 167.407 415.107 143.618 410.382 133.500 C 408.327 129.100 406.613 125.125 406.573 124.667 C 406.533 124.208 406.238 124.095 405.918 124.416 C 405.597 124.736 402.256 121.571 398.493 117.382 C 373.239 89.277 340.046 70.105 307.074 64.580 C 295.405 62.624 265.858 62.615 251.500 64.563 "/></g>
<g fill="#6BCB44FF" stroke="#6BCB44FF">
<path d="M 462.592 278.750 C 460.464 320.104 452.930 347.860 437.690 370.500 C 428.336 384.396 408.286 401.515 402.190 400.811 C 397.760 400.299 398.267 397.053 403.817 390.398 C 422.249 368.291 432.330 341.305 434.979 306.978 C 435.862 295.528 435.184 262.347 434.223 270.000 C 433.999 271.784 432.322 273.502 428.366 276.000 C 414.455 284.784 400.887 302.110 390.481 324.378 C 381.530 343.532 376.187 362.013 369.593 396.625 C 361.006 441.692 353.831 458.927 336.240 476.741 C 330.908 482.140 318.288 492.401 316.000 493.196 C 315.175 493.483 322.375 494.049 332.000 494.453 C 386.980 496.763 431.288 483.452 461.781 455.464 C 482.002 436.905 500.687 404.473 508.514 374.349 C 518.251 336.875 509.704 301.189 485.816 279.572 C 480.113 274.410 467.527 267.000 464.464 267.000 C 463.548 267.000 463.030 270.251 462.592 278.750 "/></g>
<g fill="#6BCB44FF" stroke="#6BCB44FF">
<path d="M 85.054 229.009 C 85.024 229.839 82.598 234.114 79.663 238.509 C 61.647 265.487 49.600 294.380 44.928 321.821 C 41.947 339.329 42.568 361.641 46.455 376.689 C 49.971 390.297 54.692 402.063 61.374 413.863 C 76.577 440.715 91.865 458.123 112.067 471.587 C 120.926 477.491 134.365 484.000 137.697 484.000 C 138.478 484.000 138.840 484.450 138.500 485.000 C 137.680 486.326 137.501 486.365 145.441 483.485 C 153.478 480.570 159.645 477.128 164.555 472.818 L 168.030 469.767 158.005 463.633 C 134.925 449.512 114.169 431.613 102.188 415.500 C 91.085 400.569 83.169 381.420 81.104 364.500 C 79.654 352.620 79.673 352.327 82.023 349.977 C 84.939 347.061 87.456 348.822 89.543 355.240 C 94.318 369.929 105.487 388.035 117.938 401.271 C 132.443 416.692 149.223 428.722 172.861 440.647 L 183.500 446.014 186.743 442.257 C 191.231 437.059 197.478 424.782 199.596 417.000 C 201.881 408.603 201.908 392.027 199.651 382.700 C 196.090 367.983 186.919 349.978 174.772 333.858 C 166.061 322.297 153.343 309.243 133.000 290.984 C 123.375 282.344 112.992 272.626 109.926 269.388 C 98.847 257.687 90.735 244.873 86.889 233.000 C 85.909 229.975 85.083 228.179 85.054 229.009 "/></g>
<g fill="#4DC321FF" stroke="#4DC321FF">
<path d="M 66.840 202.750 C 43.906 226.510 21.166 263.741 10.442 295.087 C 3.828 314.419 2.493 323.131 2.561 346.500 C 2.618 365.926 2.820 368.230 5.250 377.234 C 10.415 396.373 21.360 417.954 35.557 436.993 C 52.834 460.161 73.653 475.944 97.000 483.572 C 104.765 486.109 106.858 486.356 121.198 486.425 C 132.509 486.479 137.246 486.151 138.148 485.250 C 139.150 484.249 139.088 484.000 137.838 484.000 C 134.379 484.000 121.085 477.596 112.067 471.587 C 91.865 458.123 76.577 440.715 61.374 413.863 C 54.692 402.063 49.971 390.297 46.455 376.689 C 42.568 361.641 41.947 339.329 44.928 321.821 C 49.614 294.301 61.514 265.796 79.814 238.256 L 85.292 230.012 83.684 222.256 C 82.799 217.990 81.781 211.800 81.421 208.500 C 80.176 197.075 74.484 194.830 66.840 202.750 "/></g>
<g fill="#4DC321FF" stroke="#4DC321FF">
<path d="M 407.158 264.054 C 393.391 266.517 379.847 274.270 368.370 286.257 C 359.237 295.796 353.219 304.587 346.257 318.557 C 337.098 336.937 332.143 352.803 325.488 385.056 C 320.694 408.293 317.470 420.421 313.470 430.266 C 307.287 445.483 296.957 458.454 281.250 470.722 C 272.325 477.693 271.038 480.485 274.750 484.825 C 276.721 487.130 289.532 490.044 306.628 492.076 L 316.756 493.280 324.128 487.410 C 351.026 465.994 359.661 448.751 369.593 396.625 C 376.187 362.013 381.530 343.532 390.481 324.378 C 400.906 302.070 414.502 284.723 428.399 276.000 C 433.223 272.972 433.976 272.078 433.987 269.372 C 433.994 267.652 433.381 265.731 432.625 265.104 C 430.772 263.566 413.799 262.866 407.158 264.054 "/></g>
<g fill="#4DC321FF" stroke="#4DC321FF">
<path d="M 241.000 20.036 C 188.398 25.037 149.465 52.241 140.501 90.258 C 138.997 96.638 138.517 110.336 139.607 115.786 L 140.214 118.822 145.263 115.845 C 148.039 114.208 153.343 111.342 157.049 109.475 C 160.756 107.609 166.198 103.692 169.144 100.772 C 194.033 76.097 232.775 63.000 280.875 63.000 C 301.010 63.000 311.850 64.622 328.500 70.127 C 353.674 78.449 376.293 93.649 398.138 116.920 L 407.131 126.500 402.897 118.500 C 391.052 96.123 379.588 79.756 365.518 65.138 C 342.272 40.986 319.600 28.030 290.054 22.012 C 278.689 19.698 254.716 18.732 241.000 20.036 "/></g>
<g fill="#97DC7CFF" stroke="#97DC7CFF">
<path d="M 82.023 349.977 C 79.673 352.327 79.654 352.620 81.104 364.500 C 83.172 381.446 91.114 400.638 102.208 415.500 C 114.046 431.359 134.316 449.031 156.191 462.565 C 167.046 469.282 194.272 482.819 208.175 488.412 C 220.378 493.322 222.524 492.818 226.273 484.166 L 228.728 478.500 224.614 477.900 C 211.968 476.056 169.682 454.283 145.500 437.164 C 134.496 429.373 112.704 407.396 106.170 397.500 C 97.235 383.967 90.147 367.334 89.558 358.516 C 88.977 349.827 85.787 346.213 82.023 349.977 "/></g>
<g fill="#97DC7CFF" stroke="#97DC7CFF">
<path d="M 212.500 90.551 C 180.379 96.506 145.468 113.643 108.218 141.740 C 92.896 153.298 92.524 154.196 99.250 163.386 L 103.500 169.192 103.815 166.078 C 104.077 163.481 105.657 161.776 113.315 155.822 C 142.423 133.192 179.041 113.354 205.000 106.149 C 224.780 100.659 248.571 99.380 265.500 102.895 C 275.453 104.962 282.888 107.695 279.500 108.041 C 278.400 108.153 279.600 108.357 282.167 108.493 C 286.166 108.706 286.912 108.443 287.379 106.658 C 287.681 105.504 287.262 103.842 286.441 102.935 C 284.125 100.376 270.328 94.267 261.500 91.892 C 250.938 89.050 224.500 88.327 212.500 90.551 "/></g>
<g fill="#97DC7CFF" stroke="#97DC7CFF">
<path d="M 434.596 210.521 C 425.113 212.414 424.508 214.433 428.414 231.161 C 438.274 273.393 437.884 315.571 427.337 347.500 C 421.932 363.863 414.233 377.906 403.817 390.398 C 398.311 397.001 397.767 400.299 402.100 400.802 C 403.723 400.990 406.655 399.863 409.903 397.802 C 412.765 395.986 414.632 394.613 414.053 394.750 C 411.703 395.308 413.271 391.850 417.868 386.337 C 437.907 362.309 447.672 333.366 448.741 294.836 C 449.435 269.794 447.466 251.364 441.345 225.603 C 439.497 217.828 439.005 213.937 439.628 212.024 L 440.500 209.343 434.596 210.521 "/></g>
<g fill="#C3EBB0FF" stroke="#C3EBB0FF">
<path d="M 444.700 208.731 C 438.619 209.364 438.121 211.778 441.288 225.276 C 447.514 251.810 449.436 269.752 448.741 294.836 C 447.671 333.401 437.910 362.305 417.822 386.392 C 410.950 394.633 411.835 396.670 419.500 390.256 C 455.193 360.389 469.021 301.003 458.445 223.000 C 457.216 213.935 456.671 212.193 454.455 210.250 C 453.043 209.013 451.126 208.076 450.194 208.168 C 449.262 208.261 446.790 208.514 444.700 208.731 "/></g>
<g fill="#C3EBB0FF" stroke="#C3EBB0FF">
<path d="M 220.500 102.616 C 188.701 108.324 149.152 127.962 113.250 155.872 C 104.960 162.316 104.000 163.400 104.000 166.309 C 104.000 170.877 108.791 176.000 113.063 176.000 C 115.666 176.000 117.977 174.403 125.869 167.153 C 159.567 136.195 192.726 117.053 225.992 109.354 C 242.886 105.444 265.561 105.120 282.000 108.554 C 283.375 108.841 282.250 108.111 279.500 106.931 C 266.316 101.277 239.065 99.283 220.500 102.616 "/></g>
<g fill="#C3EBB0FF" stroke="#C3EBB0FF">
<path d="M 89.603 360.000 C 90.562 365.533 93.855 374.892 97.518 382.500 C 103.641 395.218 111.012 405.061 124.476 418.500 C 137.578 431.578 145.478 437.790 163.004 448.795 C 181.307 460.289 219.270 478.000 225.603 478.000 C 228.382 478.000 228.986 477.493 230.391 473.980 C 233.856 465.321 232.125 463.102 218.747 459.050 C 157.368 440.460 112.930 408.054 94.629 368.536 C 88.558 355.426 88.914 356.030 89.603 360.000 "/></g>
<g fill="#6BCB44FF" stroke="#6BCB44FF">
<path d="M 363.000 62.000 L 371.000 70.000 363.000 62.000 L 355.000 54.000 363.000 62.000 "/></g>
<g fill="#6BCB44FF" stroke="#6BCB44FF">
<path d="M 369.000 284.961 L 363.500 290.551 369.000 284.961 L 374.500 279.370 369.000 284.961 "/></g>
<g fill="#97DC7CFF" stroke="#97DC7CFF">
<path d="M 120.500 404.500 L 126.000 410.000 120.500 404.500 L 115.000 399.000 120.500 404.500 "/></g>
<g fill="#6BCB44FF" stroke="#6BCB44FF">
<path d="M 67.000 201.942 L 63.500 205.562 67.000 201.942 L 70.500 198.323 67.000 201.942 "/></g>
<g fill="#6BCB44FF" stroke="#6BCB44FF">
<path d="M 143.088 117.288 L 139.676 119.500 142.917 118.000 C 144.699 117.175 146.235 116.180 146.329 115.788 C 146.423 115.396 144.965 116.071 143.088 117.288 "/></g>
</svg>
