<?xml version="1.0" encoding="utf-8"?>
<!DOCTYPE svg PUBLIC "-//W3C//DTD SVG 20010904//EN" "http://www.w3.org/TR/2001/REC-SVG-20010904/DTD/svg10.dtd">
<svg version="1.0" xmlns="http://www.w3.org/2000/svg" width="514pt" height="514pt" viewBox="0 0 514 514" style="" preserveAspectRatio="xMidYMid meet">
<g fill="#FFD06CFF" stroke="#FFD06CFF">
<path d="M 140.195 268.421 C 133.428 273.533 122.853 282.084 116.695 287.423 C 110.538 292.763 106.344 296.495 107.377 295.718 C 109.082 294.434 112.225 296.051 141.877 313.472 L 174.500 332.639 174.500 336.655 L 174.500 340.671 139.104 319.879 C 112.648 304.337 103.297 299.306 102.078 299.958 C 101.181 300.438 95.059 306.390 88.474 313.185 C 76.473 325.567 64.514 338.994 66.627 337.716 C 67.246 337.341 91.771 351.147 121.127 368.395 C 150.482 385.643 174.578 399.695 174.673 399.621 C 174.769 399.547 174.994 377.800 175.173 351.295 C 175.456 309.583 175.702 303.025 177.000 302.527 C 177.825 302.211 180.300 300.849 182.500 299.500 C 184.700 298.151 187.546 296.585 188.825 296.020 C 190.104 295.455 191.839 294.304 192.681 293.462 C 194.436 291.707 197.168 292.227 201.210 295.084 C 202.700 296.138 204.275 297.015 204.710 297.033 C 205.144 297.052 206.487 297.890 207.693 298.897 C 209.314 300.250 209.966 302.049 210.193 305.787 L 210.500 310.845 218.820 307.632 L 227.141 304.420 189.653 282.463 C 169.034 270.387 152.240 260.196 152.332 259.817 C 152.425 259.437 146.963 263.310 140.195 268.421 "/></g>
<g fill="#DBA660FF" stroke="#DBA660FF">
<path d="M 290.000 182.490 C 245.573 190.099 183.074 220.798 128.500 261.816 C 102.093 281.665 67.426 314.265 52.982 332.832 C 40.190 349.276 28.068 370.149 26.460 378.500 C 25.928 381.260 26.266 381.713 30.691 384.167 C 33.336 385.634 35.891 386.893 36.368 386.965 C 36.845 387.036 38.674 383.528 40.432 379.169 C 44.328 369.505 50.312 359.207 58.405 348.240 C 61.757 343.697 64.215 340.547 63.867 341.240 C 63.436 342.096 76.401 350.204 104.256 366.500 C 126.819 379.700 152.191 394.603 160.640 399.617 L 176.000 408.734 175.778 381.117 L 175.556 353.500 175.028 376.603 L 174.500 399.706 121.127 368.370 C 91.771 351.136 67.246 337.341 66.627 337.716 C 64.514 338.994 76.473 325.567 88.474 313.185 C 95.059 306.390 101.181 300.438 102.078 299.958 C 103.297 299.306 112.648 304.337 139.104 319.879 L 174.500 340.671 174.500 336.655 L 174.500 332.639 141.877 313.472 C 112.225 296.051 109.082 294.434 107.377 295.718 C 106.344 296.495 110.538 292.763 116.695 287.423 C 127.957 277.657 152.644 258.533 152.333 259.816 C 152.190 260.402 185.021 280.013 217.663 298.840 C 226.483 303.928 227.090 304.126 230.461 303.013 C 232.407 302.371 234.000 301.531 234.000 301.148 C 234.000 300.764 216.900 290.413 196.000 278.144 C 175.100 265.876 158.000 255.694 158.000 255.518 C 158.000 254.876 180.863 240.380 194.500 232.376 C 202.200 227.856 208.500 224.663 208.500 225.280 C 208.500 227.184 291.203 275.166 293.493 274.591 C 294.597 274.314 296.296 273.505 297.268 272.793 C 298.829 271.652 294.040 268.571 256.458 246.540 L 213.879 221.579 223.690 216.630 C 236.788 210.022 249.292 204.559 261.883 199.943 C 272.206 196.159 272.282 196.148 274.883 198.006 C 276.322 199.034 294.056 209.580 314.291 221.442 L 351.083 243.008 354.041 241.479 C 355.669 240.637 357.000 239.605 357.000 239.184 C 357.000 238.764 340.510 228.763 320.355 216.960 C 300.200 205.157 283.055 195.023 282.255 194.441 C 281.143 193.631 283.050 192.865 290.354 191.187 C 308.156 187.098 321.593 186.216 335.288 188.236 C 339.012 188.786 329.079 183.995 323.460 182.532 C 316.377 180.687 300.642 180.667 290.000 182.490 "/></g>
<g fill="#FFD06CFF" stroke="#FFD06CFF">
<path d="M 58.405 348.240 C 55.053 352.783 50.357 359.817 47.969 363.872 C 42.943 372.406 36.752 387.171 37.790 388.150 C 38.542 388.858 155.110 457.000 155.570 457.000 C 155.718 457.000 156.599 454.638 157.528 451.750 C 159.458 445.752 165.937 433.259 171.920 424.003 C 175.107 419.072 176.000 416.734 176.000 413.323 C 176.000 408.012 182.610 412.404 115.270 372.972 C 79.858 352.236 63.434 342.097 63.866 341.240 C 64.214 340.547 61.757 343.697 58.405 348.240 "/></g>
<g fill="#1D2943FF" stroke="#1D2943FF">
<path d="M 200.000 306.000 C 195.325 308.726 190.825 310.965 190.000 310.976 C 189.175 310.986 185.890 309.421 182.700 307.497 C 179.510 305.574 176.697 304.000 176.450 304.000 C 176.202 304.000 176.000 339.332 176.000 382.515 L 176.000 461.029 179.250 463.007 C 181.038 464.095 184.350 465.967 186.610 467.167 L 190.721 469.348 200.110 463.858 L 209.500 458.368 209.756 379.684 C 209.897 336.408 209.672 301.010 209.256 301.022 C 208.840 301.034 204.675 303.274 200.000 306.000 "/></g>
<g fill="#1D2943FF" stroke="#1D2943FF">
<path d="M 478.030 145.429 L 468.560 150.826 464.030 148.230 C 461.538 146.802 458.612 145.041 457.527 144.317 C 456.443 143.593 455.205 143.000 454.777 143.000 C 454.350 143.000 454.000 148.604 454.000 155.453 L 454.000 167.907 456.896 166.245 C 459.327 164.850 460.050 164.796 461.396 165.914 C 464.068 168.131 463.221 171.181 458.750 175.446 L 454.500 179.500 454.780 240.054 L 455.059 300.608 461.485 304.304 C 465.020 306.337 468.494 307.978 469.206 307.952 C 469.918 307.925 474.550 305.538 479.500 302.646 L 488.500 297.389 488.739 251.444 C 488.871 226.175 488.646 190.770 488.239 172.766 L 487.500 140.031 478.030 145.429 "/></g>
<g fill="#FFD06CFF" stroke="#FFD06CFF">
<path d="M 266.000 198.252 C 254.197 202.604 236.193 210.388 225.298 215.851 L 213.883 221.574 256.685 246.677 L 299.487 271.780 306.482 268.257 C 314.896 264.020 337.225 251.656 345.356 246.732 C 351.210 243.187 351.212 243.185 348.856 241.703 C 347.560 240.888 330.525 230.878 311.000 219.459 C 291.475 208.040 274.790 198.090 273.921 197.349 C 273.053 196.607 272.153 196.050 271.921 196.112 C 271.690 196.173 269.025 197.136 266.000 198.252 "/></g>
<g fill="#FFD06CFF" stroke="#FFD06CFF">
<path d="M 194.500 232.376 C 174.270 244.250 157.751 255.160 158.689 256.029 C 159.135 256.442 176.150 266.540 196.500 278.469 C 216.850 290.397 233.636 300.531 233.803 300.988 C 234.129 301.882 260.725 290.569 280.253 281.228 L 292.229 275.500 250.364 250.954 C 227.339 237.454 208.500 225.902 208.500 225.283 C 208.500 224.665 202.200 227.856 194.500 232.376 "/></g>
<g fill="#1D2943FF" stroke="#1D2943FF">
<path d="M 53.000 216.868 C 50.525 218.361 46.469 220.758 43.987 222.195 L 39.473 224.807 32.987 220.941 C 29.419 218.815 26.163 217.059 25.750 217.038 C 24.912 216.996 24.974 267.445 25.893 332.491 L 26.500 375.483 31.228 365.698 C 36.478 354.833 42.944 344.771 52.884 332.000 L 59.500 323.500 59.181 268.750 C 59.006 238.638 58.556 214.035 58.181 214.077 C 57.806 214.119 55.475 215.375 53.000 216.868 "/></g>
<g fill="#DBA660FF" stroke="#DBA660FF">
<path d="M 362.720 245.588 C 361.192 246.417 360.180 247.483 360.473 247.957 C 361.062 248.910 387.726 264.541 389.807 265.154 C 390.526 265.365 386.926 267.037 381.807 268.869 C 369.612 273.234 354.108 279.945 340.657 286.680 C 334.693 289.667 330.080 291.680 330.405 291.154 C 330.730 290.628 325.777 287.166 319.397 283.462 L 307.798 276.726 304.253 278.417 C 302.283 279.356 301.106 280.472 301.604 280.927 C 302.097 281.378 307.567 284.667 313.759 288.236 L 325.019 294.725 313.259 301.509 C 306.792 305.241 295.745 312.049 288.711 316.639 L 275.923 324.983 259.845 315.592 L 243.768 306.202 239.909 307.930 L 236.049 309.657 252.196 319.079 C 261.077 324.260 268.954 328.504 269.700 328.509 C 270.446 328.514 265.482 332.675 258.668 337.756 C 251.853 342.837 241.153 351.359 234.889 356.696 C 228.625 362.032 224.093 365.663 224.817 364.766 C 225.943 363.370 225.798 362.924 223.817 361.687 C 222.543 360.891 218.913 358.617 215.750 356.633 L 210.000 353.025 210.000 361.354 C 210.000 365.936 210.295 375.835 210.656 383.354 L 211.311 397.025 222.906 385.732 C 268.956 340.882 331.069 300.231 386.500 278.664 C 410.358 269.381 432.609 264.000 447.131 264.000 L 454.000 264.000 454.000 261.131 C 454.000 258.592 453.568 258.190 450.250 257.642 C 437.755 255.577 419.780 257.605 397.500 263.593 C 396.228 263.935 395.942 263.821 396.714 263.279 C 397.524 262.710 392.672 259.357 382.152 253.213 C 373.475 248.146 366.179 244.018 365.938 244.040 C 365.697 244.062 364.249 244.758 362.720 245.588 M 220.446 367.912 C 220.701 368.325 218.680 370.860 215.955 373.544 L 211.000 378.425 211.000 370.283 L 211.000 362.141 215.491 364.651 C 217.960 366.031 220.190 367.499 220.446 367.912 "/></g>
<g fill="#1D2943FF" stroke="#1D2943FF">
<path d="M 327.338 58.555 L 318.177 64.017 311.338 60.048 L 304.500 56.079 304.217 68.272 C 303.993 77.935 304.190 80.210 305.167 79.233 C 307.648 76.752 313.000 78.400 313.000 81.645 C 313.000 82.330 310.975 84.788 308.500 87.108 L 304.000 91.325 304.000 135.663 L 304.000 180.000 308.250 180.008 C 318.184 180.025 326.231 182.183 337.250 187.785 C 337.663 187.995 338.000 157.754 338.000 120.583 C 338.000 83.413 337.663 53.021 337.250 53.047 C 336.838 53.073 332.377 55.551 327.338 58.555 "/></g>
<g fill="#BF7D5AFF" stroke="#BF7D5AFF">
<path d="M 430.500 265.598 C 371.096 276.133 283.151 327.053 222.750 385.885 L 211.000 397.329 210.884 387.915 C 210.820 382.737 210.545 379.377 210.272 380.450 C 210.000 381.522 210.097 389.243 210.489 397.608 L 211.202 412.816 224.371 399.658 C 271.383 352.686 341.242 308.226 397.429 289.521 C 416.389 283.210 429.293 280.662 442.744 280.574 L 453.988 280.500 453.994 272.250 L 454.000 264.000 446.250 264.090 C 441.988 264.139 434.900 264.818 430.500 265.598 "/></g>
<g fill="#FFD06CFF" stroke="#FFD06CFF">
<path d="M 306.251 187.951 C 296.111 189.555 280.940 193.340 281.716 194.071 C 282.147 194.478 299.142 204.558 319.482 216.472 C 339.822 228.385 356.697 238.496 356.982 238.939 C 357.267 239.383 364.668 235.042 373.430 229.293 C 385.430 221.418 389.007 218.611 387.930 217.910 C 379.910 212.696 337.206 188.536 335.603 188.306 C 329.642 187.453 310.837 187.225 306.251 187.951 "/></g>
<g fill="#E3E7F0FF" stroke="#E3E7F0FF">
<path d="M 453.751 169.149 C 436.279 186.199 388.975 220.715 353.000 242.663 C 315.764 265.380 260.945 292.190 220.211 307.606 L 209.923 311.500 210.211 315.186 L 210.500 318.871 226.500 312.617 C 307.453 280.974 378.997 239.642 443.226 187.409 C 448.575 183.059 455.212 177.739 457.976 175.586 C 463.070 171.618 464.271 168.671 461.800 166.200 C 459.812 164.212 458.207 164.801 453.751 169.149 "/></g>
<g fill="#E3E7F0FF" stroke="#E3E7F0FF">
<path d="M 304.713 79.999 C 302.707 82.863 284.055 98.257 266.000 111.951 C 208.866 155.282 146.282 189.846 71.250 219.508 L 59.000 224.350 59.000 228.184 C 59.000 231.547 59.215 231.895 60.750 231.022 C 61.713 230.474 68.800 227.596 76.500 224.626 C 110.378 211.559 155.217 190.294 186.500 172.458 C 223.753 151.219 265.473 122.514 294.227 98.337 C 299.027 94.302 303.302 90.995 303.727 90.989 C 305.034 90.971 313.000 82.927 313.000 81.625 C 313.000 77.918 306.996 76.740 304.713 79.999 "/></g>
<g fill="#FFD06CFF" stroke="#FFD06CFF">
<path d="M 221.757 314.862 L 210.013 319.500 210.007 336.262 L 210.000 353.025 215.750 356.633 C 218.913 358.617 222.543 360.891 223.817 361.687 C 225.798 362.924 225.943 363.370 224.817 364.766 C 224.093 365.663 228.625 362.032 234.889 356.696 C 241.153 351.359 251.830 342.833 258.616 337.747 C 265.402 332.661 270.523 328.610 269.996 328.744 C 269.469 328.878 261.769 324.715 252.885 319.494 C 244.001 314.272 236.005 310.050 235.116 310.112 C 234.227 310.173 228.216 312.311 221.757 314.862 "/></g>
<g fill="#FFD06CFF" stroke="#FFD06CFF">
<path d="M 382.822 232.314 C 375.299 237.366 368.366 241.972 367.416 242.549 C 365.976 243.424 368.367 245.163 381.809 253.013 C 392.555 259.288 397.524 262.710 396.714 263.279 C 395.942 263.821 396.228 263.935 397.500 263.593 C 419.760 257.610 437.757 255.577 450.219 257.637 L 453.939 258.252 454.254 269.876 L 454.570 281.500 454.785 268.750 C 454.903 261.738 454.606 256.000 454.123 256.000 C 453.641 256.000 440.549 248.575 425.030 239.500 C 409.511 230.425 396.743 223.029 396.657 223.064 C 396.571 223.099 390.345 227.261 382.822 232.314 "/></g>
<g fill="#FFD06CFF" stroke="#FFD06CFF">
<path d="M 288.475 286.175 C 281.889 289.346 269.186 295.177 260.246 299.133 C 251.307 303.089 244.107 306.409 244.246 306.511 C 244.386 306.612 251.568 310.812 260.206 315.843 L 275.913 324.990 288.706 316.642 C 295.743 312.050 306.787 305.243 313.250 301.515 L 324.999 294.736 312.725 287.573 L 300.450 280.410 288.475 286.175 "/></g>
<g fill="#FFD06CFF" stroke="#FFD06CFF">
<path d="M 357.521 248.604 C 355.367 250.184 326.974 266.394 315.170 272.783 L 307.841 276.751 319.418 283.474 C 325.786 287.172 330.730 290.628 330.405 291.154 C 330.080 291.680 334.693 289.667 340.657 286.680 C 354.098 279.950 369.611 273.235 381.774 268.881 C 389.093 266.262 390.616 265.402 388.997 264.803 C 386.419 263.850 363.024 250.175 361.000 248.439 C 359.771 247.385 359.142 247.415 357.521 248.604 "/></g>
<g fill="#DBA660FF" stroke="#DBA660FF">
<path d="M 171.349 424.928 C 164.805 435.287 160.190 444.135 157.980 450.558 C 156.032 456.220 156.021 456.543 157.721 457.820 C 160.078 459.590 167.132 463.226 167.423 462.820 C 167.548 462.644 169.547 458.450 171.864 453.500 L 176.076 444.500 175.788 431.428 L 175.500 418.356 171.349 424.928 "/></g>
<g fill="#E3E7F0FF" stroke="#E3E7F0FF">
<path d="M 185.755 297.796 L 176.011 303.422 181.255 306.713 C 189.432 311.842 189.771 311.826 200.381 305.795 C 208.309 301.289 209.594 300.228 208.186 299.349 C 207.259 298.771 204.025 296.919 201.000 295.234 L 195.500 292.170 185.755 297.796 "/></g>
<g fill="#E3E7F0FF" stroke="#E3E7F0FF">
<path d="M 314.005 50.040 C 309.333 52.752 305.400 55.315 305.265 55.735 C 305.130 56.156 307.987 58.187 311.612 60.248 L 318.204 63.997 327.602 58.466 C 332.771 55.424 337.000 52.746 337.000 52.516 C 337.000 51.883 324.442 44.992 323.404 45.055 C 322.907 45.085 318.677 47.329 314.005 50.040 "/></g>
<g fill="#E3E7F0FF" stroke="#E3E7F0FF">
<path d="M 34.707 211.302 C 24.798 217.160 24.780 216.304 34.935 222.134 L 39.523 224.768 49.011 219.290 C 54.230 216.277 58.601 213.716 58.724 213.599 C 59.230 213.116 46.213 206.004 44.912 206.052 C 44.135 206.081 39.543 208.443 34.707 211.302 "/></g>
<g fill="#E3E7F0FF" stroke="#E3E7F0FF">
<path d="M 463.641 137.482 L 454.781 142.776 461.141 146.533 C 464.638 148.599 467.950 150.295 468.500 150.303 C 469.636 150.318 488.222 139.878 487.784 139.470 C 486.271 138.058 474.853 132.022 473.832 132.095 C 473.099 132.146 468.513 134.571 463.641 137.482 "/></g>
<g fill="#FFD06CFF" stroke="#FFD06CFF">
<path d="M 211.000 370.283 L 211.000 378.425 215.955 373.544 C 218.680 370.860 220.701 368.325 220.446 367.912 C 220.190 367.499 217.960 366.031 215.491 364.651 L 211.000 362.141 211.000 370.283 "/></g>
<g fill="#BF7D5AFF" stroke="#BF7D5AFF">
<path d="M 172.200 452.871 C 168.120 461.984 168.250 463.735 172.793 460.845 C 176.036 458.781 176.081 458.650 175.793 452.125 L 175.500 445.500 172.200 452.871 "/></g>
</svg>
