<?xml version="1.0" encoding="utf-8"?>
<!DOCTYPE svg PUBLIC "-//W3C//DTD SVG 20010904//EN" "http://www.w3.org/TR/2001/REC-SVG-20010904/DTD/svg10.dtd">
<svg version="1.0" xmlns="http://www.w3.org/2000/svg" width="514pt" height="514pt" viewBox="0 0 514 514" style="" preserveAspectRatio="xMidYMid meet">
<g fill="#000000FF" stroke="#000000FF">
<path d="M 212.500 44.146 C 167.927 49.835 118.651 76.394 73.750 118.929 C 66.260 126.024 65.000 127.684 65.000 130.454 C 65.000 135.036 68.019 137.471 73.264 137.118 C 74.233 137.053 79.633 132.830 85.264 127.733 C 113.002 102.621 132.651 88.670 157.500 76.445 C 205.034 53.060 249.122 51.008 273.077 71.065 C 277.442 74.719 286.000 85.981 286.000 88.070 C 286.000 88.533 284.143 88.256 281.874 87.456 C 275.625 85.251 272.473 85.583 270.016 88.707 C 267.772 91.559 267.925 95.264 270.389 97.788 C 271.081 98.496 275.664 100.569 280.573 102.396 C 301.230 110.078 314.242 118.674 317.734 126.944 C 318.534 128.838 319.172 132.580 319.151 135.259 C 319.090 143.186 312.724 152.130 304.782 155.447 C 296.124 159.064 291.331 156.773 282.215 144.663 C 265.880 122.961 246.394 107.767 224.174 99.406 C 218.470 97.260 216.380 96.068 217.540 95.623 C 218.470 95.266 225.367 94.695 232.866 94.354 C 248.114 93.661 250.000 92.897 250.000 87.416 C 250.000 80.720 246.392 79.469 229.541 80.323 C 205.190 81.557 182.997 87.687 158.114 100.053 C 130.580 113.736 109.026 129.730 83.256 155.601 L 67.012 171.909 58.942 174.458 C 54.504 175.861 47.704 178.356 43.831 180.004 C 39.959 181.652 36.357 183.000 35.827 183.000 C 34.537 183.000 37.017 179.655 48.410 166.030 C 58.772 153.636 59.592 151.501 55.545 147.455 C 51.201 143.110 47.768 144.507 40.000 153.781 C 22.627 174.520 5.038 198.227 2.573 204.225 C 1.011 208.026 1.829 211.067 5.015 213.298 C 7.913 215.328 11.116 214.316 20.017 208.558 C 50.905 188.576 91.867 177.346 115.665 182.334 C 128.981 185.125 135.332 194.024 130.114 202.580 C 125.657 209.889 114.510 211.597 96.906 207.667 C 74.229 202.605 60.210 203.344 46.328 210.335 C 33.105 216.994 24.333 227.206 19.289 241.814 C 17.097 248.161 16.625 251.329 16.580 260.000 C 16.496 276.136 19.789 286.386 28.860 298.221 L 33.905 304.803 30.471 313.225 C 25.298 325.914 23.384 338.945 24.807 351.773 C 26.077 363.221 29.971 376.009 35.596 387.211 C 43.449 402.849 59.372 423.000 63.876 423.000 C 69.125 423.000 72.831 418.230 71.062 413.750 C 70.573 412.513 67.858 408.800 65.029 405.500 C 58.071 397.384 51.565 387.377 46.898 377.611 C 33.527 349.639 36.916 319.848 55.738 299.895 C 69.912 284.870 88.350 277.985 114.338 278.013 C 134.496 278.035 153.095 283.143 164.500 291.790 C 176.778 301.098 176.766 314.000 164.480 314.000 C 161.025 314.000 159.805 313.379 156.453 309.918 C 152.278 305.606 148.154 303.000 145.504 303.000 C 143.011 303.000 139.000 307.633 139.000 310.513 C 139.000 312.342 140.381 314.364 143.641 317.308 C 154.140 326.789 154.579 339.017 144.731 347.663 C 137.640 353.889 132.776 352.983 122.000 343.428 C 113.019 335.464 106.490 331.487 97.328 328.402 C 77.975 321.883 59.466 329.328 54.304 345.706 C 52.260 352.190 53.224 356.003 57.268 357.425 C 61.818 359.025 65.203 357.153 67.104 351.984 C 69.364 345.840 72.780 342.406 78.040 340.989 C 87.734 338.379 100.237 343.301 113.500 354.948 C 124.767 364.843 133.239 367.728 143.035 365.007 C 148.652 363.446 155.751 358.412 159.166 353.567 L 162.313 349.102 169.149 355.432 C 199.865 383.870 240.200 406.548 294.000 425.630 C 314.393 432.863 362.267 446.000 368.232 446.000 C 372.110 446.000 375.000 443.282 375.000 439.634 C 375.000 433.887 373.671 433.159 354.475 428.397 C 290.422 412.506 239.021 390.692 201.500 363.476 C 186.063 352.279 166.000 333.337 166.000 329.961 C 166.000 329.453 167.238 328.772 168.750 328.447 C 180.630 325.891 188.000 317.034 188.000 305.312 C 188.000 288.835 170.362 273.730 143.286 267.020 C 107.515 258.155 69.341 266.324 47.543 287.511 C 42.997 291.929 42.714 292.052 40.895 290.405 C 38.659 288.381 34.765 281.634 33.135 276.957 C 26.597 258.202 32.881 236.058 47.618 225.919 C 59.112 218.011 73.603 216.616 94.000 221.455 C 118.625 227.297 136.807 222.200 143.633 207.541 C 149.885 194.114 143.855 179.014 129.289 171.619 C 124.016 168.942 112.525 167.003 101.685 166.959 L 91.500 166.919 99.500 159.284 C 124.476 135.448 156.033 114.212 172.882 109.902 C 183.586 107.165 199.835 107.222 210.470 110.035 C 225.754 114.077 240.584 122.386 253.278 134.018 C 260.280 140.433 261.241 142.000 258.175 142.000 C 257.171 142.000 253.225 143.063 249.406 144.362 C 231.011 150.618 219.484 160.146 211.690 175.536 C 205.628 187.506 204.492 192.758 204.563 208.500 C 204.620 221.053 204.916 223.379 207.431 231.000 C 214.410 252.155 226.626 269.882 248.993 291.315 C 299.710 339.914 393.306 385.301 478.000 402.366 C 500.102 406.819 506.610 407.486 509.500 405.592 C 511.930 404.000 512.418 402.644 512.055 398.500 C 511.764 395.182 508.386 393.243 500.751 392.012 C 422.952 379.470 337.427 343.450 279.000 298.618 C 266.727 289.201 244.399 267.225 237.975 258.240 C 222.909 237.167 216.793 219.704 218.471 202.544 C 220.340 183.427 229.880 168.944 245.483 161.540 C 254.919 157.062 272.000 152.834 272.000 154.976 C 272.000 155.443 274.643 158.510 277.873 161.790 C 285.019 169.048 290.948 171.427 300.391 170.826 C 320.410 169.551 337.362 147.698 333.060 128.712 C 330.457 117.230 322.895 107.690 310.869 100.719 C 304.703 97.146 304.249 96.626 302.568 91.219 C 296.535 71.816 281.972 56.189 262.914 48.667 C 249.994 43.568 230.636 41.832 212.500 44.146 "/></g>
<g fill="#00C3FFFF" stroke="#00C3FFFF">
<path d="M 77.258 341.705 C 73.911 342.350 69.547 347.229 68.152 351.888 C 66.613 357.023 63.202 359.457 58.590 358.708 C 55.468 358.202 55.173 358.387 54.609 361.206 C 53.514 366.682 53.969 379.722 55.512 387.055 C 57.076 394.490 58.641 397.087 67.827 407.487 C 72.081 412.304 72.213 412.649 71.697 417.651 L 71.162 422.828 77.831 429.248 C 95.065 445.837 118.898 459.193 143.095 465.822 C 162.719 471.198 155.002 470.993 338.139 470.997 C 502.397 471.000 507.852 470.941 510.089 469.129 C 513.201 466.609 513.256 460.812 510.197 457.752 C 508.093 455.648 506.922 455.518 484.247 454.861 C 471.186 454.483 452.453 453.396 442.619 452.446 C 426.713 450.909 424.644 450.885 423.892 452.228 C 422.027 455.560 417.805 456.208 408.514 454.586 C 399.219 452.964 395.536 451.266 394.546 448.145 C 394.071 446.649 392.012 445.862 385.023 444.504 C 376.164 442.784 376.087 442.786 373.418 444.886 C 371.940 446.049 369.970 447.000 369.041 447.000 C 366.547 447.000 336.661 439.525 320.526 434.865 C 259.590 417.268 206.422 390.014 171.505 358.479 L 162.322 350.185 160.581 353.133 C 157.862 357.735 149.412 363.825 143.262 365.612 C 133.155 368.550 124.609 365.888 114.127 356.535 C 99.583 343.557 89.235 339.395 77.258 341.705 M 94.379 360.592 C 95.228 360.918 98.853 365.305 102.436 370.342 C 109.108 379.724 121.032 392.667 131.250 401.618 C 135.812 405.615 137.000 407.265 137.000 409.605 C 137.000 413.607 134.626 416.704 130.938 417.514 C 126.670 418.451 122.001 415.152 108.387 401.579 C 92.042 385.284 81.970 370.821 83.534 365.893 C 84.967 361.379 90.008 358.915 94.379 360.592 M 166.979 424.490 C 176.152 429.097 178.000 430.939 178.000 435.480 C 178.000 438.602 173.920 443.000 171.023 443.000 C 168.731 443.000 153.503 435.665 150.750 433.235 C 147.940 430.754 148.428 424.595 151.635 422.073 C 153.084 420.933 155.118 420.000 156.155 420.000 C 157.192 420.000 162.063 422.020 166.979 424.490 "/></g>
<g fill="#B2EDFFFF" stroke="#B2EDFFFF">
<path d="M 230.997 126.881 C 209.502 139.055 194.201 155.743 187.430 174.395 C 184.151 183.431 183.598 187.756 183.707 203.500 C 183.795 216.124 184.230 219.658 187.488 234.213 C 187.698 235.155 188.684 237.630 189.678 239.713 C 190.671 241.796 191.499 243.725 191.518 244.000 C 191.536 244.275 193.522 247.875 195.930 252.000 C 225.886 303.303 308.501 357.363 413.811 394.573 C 427.851 399.533 430.323 400.723 431.561 403.118 C 432.353 404.649 433.000 406.843 433.000 407.996 C 433.000 411.081 428.616 415.000 425.166 415.000 C 419.242 415.000 374.389 397.959 344.755 384.449 C 310.028 368.617 269.606 344.837 243.886 325.108 C 215.408 303.263 191.930 277.769 181.366 257.220 C 176.055 246.890 172.153 244.732 166.635 249.073 C 161.323 253.251 164.278 261.923 177.891 282.110 C 189.988 300.049 207.002 317.465 227.754 333.151 C 232.844 336.999 237.456 340.984 238.004 342.007 C 240.793 347.218 236.876 354.000 231.077 354.000 C 227.113 354.000 208.078 339.746 194.862 326.880 L 185.228 317.500 182.423 320.856 C 179.617 324.213 173.922 327.381 168.750 328.463 C 167.238 328.779 166.000 329.475 166.000 330.008 C 166.000 331.502 175.520 341.737 183.935 349.291 C 200.683 364.325 220.392 377.094 247.500 390.472 C 280.462 406.740 312.242 418.000 353.699 428.102 C 362.940 430.353 371.513 432.837 372.750 433.621 C 374.364 434.643 375.000 436.009 375.000 438.452 C 375.000 441.757 375.157 441.891 380.250 442.943 C 394.311 445.849 394.323 445.849 395.987 442.554 C 397.975 438.618 400.719 438.101 410.982 439.728 C 421.113 441.335 424.000 442.932 424.000 446.929 C 424.000 449.615 424.325 449.855 428.750 450.433 C 440.443 451.962 468.493 453.978 485.700 454.526 C 507.297 455.213 508.360 455.360 511.025 458.025 C 512.992 459.992 513.000 459.872 512.937 430.250 C 512.896 411.385 512.541 401.326 511.966 402.758 C 510.121 407.348 507.312 407.581 489.809 404.591 C 420.508 392.753 338.590 358.920 282.689 319.049 C 266.454 307.469 254.382 297.186 241.982 284.370 C 229.442 271.412 221.452 260.955 215.409 249.597 C 206.602 233.041 203.410 219.872 204.251 203.568 C 205.536 178.665 218.202 158.726 239.139 148.645 C 244.288 146.167 251.088 143.555 254.250 142.842 C 257.413 142.129 260.000 141.246 260.000 140.880 C 260.000 138.905 240.419 122.846 238.320 123.099 C 237.869 123.153 234.573 124.855 230.997 126.881 M 471.498 411.840 C 479.744 414.579 481.290 421.474 474.748 426.344 L 471.997 428.393 462.497 426.103 C 452.473 423.686 449.000 421.238 449.000 416.588 C 449.000 413.824 451.644 410.067 454.273 409.095 C 456.640 408.219 464.243 409.431 471.498 411.840 M 264.500 357.114 C 272.525 361.272 274.400 363.218 274.400 367.384 C 274.400 371.266 272.699 373.784 269.168 375.126 C 267.282 375.843 265.266 375.358 259.939 372.903 C 249.675 368.171 246.527 363.750 249.427 358.140 C 252.075 353.021 256.076 352.748 264.500 357.114 "/></g>
<g fill="#00C3FFFF" stroke="#00C3FFFF">
<path d="M 178.500 109.431 C 169.023 111.304 164.061 113.218 154.557 118.667 C 137.037 128.711 118.248 142.869 100.500 159.401 L 93.500 165.921 100.808 165.961 C 123.913 166.085 137.540 172.226 144.048 185.446 C 146.799 191.034 147.186 192.745 146.823 197.720 C 145.681 213.340 133.458 223.547 114.500 224.710 C 108.166 225.099 104.193 224.664 95.422 222.623 C 75.038 217.881 64.949 218.127 53.266 223.654 C 37.759 230.989 28.673 249.804 31.808 268.087 C 33.059 275.382 36.502 283.825 40.079 288.374 L 42.115 290.961 49.614 284.563 C 66.210 270.402 88.059 262.904 112.650 262.931 C 119.332 262.938 126.757 263.211 129.150 263.538 C 145.479 265.765 159.989 270.793 171.176 278.100 L 176.852 281.808 173.560 276.654 C 168.516 268.757 163.000 257.314 163.000 254.747 C 163.000 249.491 168.799 245.213 173.500 247.000 C 176.433 248.115 176.457 248.029 174.500 243.346 C 172.372 238.253 172.633 235.276 175.455 232.455 C 178.128 229.781 182.742 229.195 184.932 231.250 C 186.032 232.282 186.148 231.890 185.598 229.000 C 185.231 227.075 184.447 222.270 183.855 218.323 L 182.779 211.146 180.548 213.740 C 177.692 217.060 172.790 217.237 169.694 214.132 C 167.688 212.120 167.505 210.970 167.559 200.716 C 167.693 175.118 176.466 154.410 195.079 135.750 C 204.097 126.710 205.092 126.000 208.747 126.000 C 213.334 126.000 216.108 128.421 216.446 132.719 L 216.668 135.532 220.584 132.673 C 222.738 131.100 226.525 128.766 229.000 127.486 C 238.709 122.466 238.761 122.733 227.000 117.166 C 221.225 114.432 213.552 111.478 209.949 110.601 C 200.473 108.294 186.821 107.786 178.500 109.431 "/></g>
<g fill="#E8FAFFFF" stroke="#E8FAFFFF">
<path d="M 213.500 59.075 C 201.180 60.741 179.152 66.930 169.500 71.438 C 150.751 80.195 147.091 82.120 135.078 89.535 C 123.936 96.413 101.594 113.672 90.316 124.113 C 75.021 138.272 72.760 139.547 67.724 136.852 C 65.802 135.824 65.096 136.253 60.929 140.979 C 56.368 146.152 56.307 146.309 57.759 149.218 C 59.789 153.288 58.963 154.793 46.848 169.083 C 41.271 175.660 36.956 181.289 37.257 181.591 C 37.559 181.893 39.537 181.261 41.653 180.186 C 43.769 179.112 50.303 176.630 56.173 174.670 L 66.845 171.107 82.173 155.738 C 97.720 140.147 103.624 134.882 116.637 125.000 C 143.218 104.815 169.988 91.282 196.698 84.527 C 218.193 79.091 246.320 77.982 249.581 82.442 C 250.362 83.509 251.000 84.944 251.000 85.630 C 251.000 86.358 252.976 87.153 255.750 87.540 C 258.363 87.905 262.210 88.565 264.300 89.007 C 267.579 89.700 268.428 89.481 270.504 87.405 C 273.290 84.619 275.179 84.446 280.874 86.456 C 283.143 87.256 285.000 87.697 285.000 87.436 C 285.000 85.922 279.027 77.922 274.882 73.885 C 268.805 67.965 260.968 63.447 252.260 60.842 C 244.351 58.477 224.592 57.576 213.500 59.075 "/></g>
<g fill="#00C3FFFF" stroke="#00C3FFFF">
<path d="M 191.158 250.006 C 189.815 253.039 185.738 255.217 182.224 254.778 C 180.168 254.521 180.333 255.046 184.383 261.657 C 207.012 298.590 249.987 334.324 311.060 366.989 C 339.124 381.999 379.231 399.488 409.650 409.980 C 423.598 414.790 425.024 415.097 427.627 413.850 C 431.119 412.176 432.752 408.042 431.420 404.250 C 430.355 401.222 427.575 399.942 403.500 391.392 C 376.467 381.792 340.027 365.558 314.850 351.900 C 256.985 320.509 217.349 287.707 196.579 254.019 L 192.389 247.223 191.158 250.006 "/></g>
<g fill="#B2EDFFFF" stroke="#B2EDFFFF">
<path d="M 81.945 297.344 C 66.788 301.833 56.854 310.189 50.177 324.068 C 44.642 335.573 42.678 345.917 43.295 360.322 C 43.743 370.805 44.033 372.116 47.365 378.732 C 51.193 386.334 57.702 396.799 56.583 393.553 C 56.213 392.481 55.203 387.411 54.337 382.285 C 53.046 374.645 52.966 371.592 53.896 365.344 C 54.764 359.503 54.748 356.944 53.823 354.388 C 52.819 351.612 52.914 350.116 54.386 345.445 C 59.485 329.270 78.041 321.905 97.328 328.402 C 106.507 331.493 112.638 335.250 123.199 344.254 C 127.433 347.865 132.192 351.103 133.775 351.451 C 139.501 352.708 146.681 347.893 150.104 340.500 C 153.819 332.477 151.853 325.210 143.977 317.848 C 137.882 312.150 137.500 309.241 142.250 304.685 C 145.353 301.708 145.372 301.648 142.650 303.372 C 139.833 305.156 139.730 305.142 133.492 302.071 C 118.569 294.724 97.361 292.780 81.945 297.344 "/></g>
<g fill="#B2EDFFFF" stroke="#B2EDFFFF">
<path d="M 246.500 81.195 C 249.286 82.775 249.967 84.026 249.985 87.595 C 250.011 92.814 247.947 93.663 233.500 94.376 C 214.945 95.293 214.077 95.689 223.274 99.042 C 245.889 107.287 265.546 122.473 282.085 144.476 C 291.334 156.781 296.086 159.080 304.768 155.452 C 309.444 153.499 312.518 150.688 316.141 145.054 C 319.395 139.994 320.019 132.374 317.644 126.690 C 314.497 119.158 300.346 109.859 281.000 102.612 C 270.966 98.853 267.558 96.094 268.280 92.316 C 268.564 90.828 268.160 89.877 267.107 89.560 C 265.490 89.073 253.148 87.022 251.750 87.008 C 251.338 87.003 251.000 86.325 251.000 85.500 C 251.000 83.667 247.469 79.989 245.750 80.030 C 245.063 80.047 245.400 80.571 246.500 81.195 "/></g>
<g fill="#E8FAFFFF" stroke="#E8FAFFFF">
<path d="M 100.500 279.068 C 84.251 281.266 68.096 288.529 58.343 298.022 C 50.737 305.425 46.594 312.148 42.817 323.212 C 38.814 334.942 38.354 347.903 41.494 360.500 L 43.489 368.500 43.161 358.500 C 42.342 333.533 53.121 311.223 70.543 301.822 C 87.763 292.530 114.326 292.635 133.492 302.071 C 139.173 304.867 140.035 305.039 142.150 303.798 C 143.443 303.040 145.175 302.498 146.000 302.594 C 146.825 302.691 148.089 302.821 148.810 302.885 C 149.530 302.948 152.607 305.352 155.647 308.227 C 160.309 312.637 161.766 313.455 164.961 313.455 C 169.705 313.455 171.762 311.784 172.615 307.240 C 175.730 290.637 134.386 274.486 100.500 279.068 "/></g>
<g fill="#000000FF" stroke="#000000FF">
<path d="M 203.384 128.837 C 197.332 133.221 185.944 146.092 181.414 153.667 C 172.800 168.071 168.037 185.178 168.013 201.795 C 168.001 210.340 168.198 211.289 170.455 213.545 C 173.418 216.509 175.903 216.651 179.214 214.046 C 181.521 212.231 181.740 211.288 182.289 200.796 C 183.507 177.528 190.322 161.839 206.250 145.637 C 216.895 134.809 217.790 132.699 213.545 128.455 C 210.368 125.277 208.185 125.359 203.384 128.837 "/></g>
<g fill="#000000FF" stroke="#000000FF">
<path d="M 86.174 363.314 C 84.978 364.587 84.000 366.410 84.000 367.364 C 84.000 372.246 95.030 387.262 108.390 400.570 C 119.996 412.130 126.298 417.000 129.650 417.000 C 133.086 417.000 136.000 413.602 136.000 409.595 C 136.000 406.562 135.112 405.442 127.870 399.345 C 118.474 391.435 106.804 378.482 100.422 368.882 C 97.981 365.211 95.276 361.936 94.411 361.604 C 91.312 360.415 88.313 361.038 86.174 363.314 "/></g>
<g fill="#00C3FFFF" stroke="#00C3FFFF">
<path d="M 188.224 299.849 C 189.297 303.736 188.521 312.159 186.790 315.392 C 185.815 317.214 186.764 318.455 195.491 326.766 C 205.448 336.250 224.687 351.579 228.320 352.923 C 233.672 354.902 238.302 351.234 237.816 345.399 C 237.476 341.309 238.676 342.485 219.045 327.000 C 214.513 323.425 205.504 315.054 199.024 308.399 C 188.386 297.471 187.338 296.642 188.224 299.849 "/></g>
<g fill="#59D8FFFF" stroke="#59D8FFFF">
<path d="M 451.911 410.871 C 448.777 413.409 448.698 419.527 451.768 422.013 C 454.207 423.988 466.774 427.339 471.263 427.212 C 480.572 426.947 480.969 414.366 471.743 411.973 C 469.409 411.367 465.925 410.453 464.000 409.942 C 458.588 408.503 454.442 408.822 451.911 410.871 "/></g>
<g fill="#000000FF" stroke="#000000FF">
<path d="M 151.073 423.635 C 148.540 426.854 148.450 429.145 150.750 431.793 C 153.099 434.496 167.741 442.000 170.667 442.000 C 175.663 442.000 178.898 434.847 175.750 430.759 C 173.785 428.208 159.217 421.000 156.025 421.000 C 154.105 421.000 152.454 421.878 151.073 423.635 "/></g>
<g fill="#59D8FFFF" stroke="#59D8FFFF">
<path d="M 251.635 356.073 C 249.620 357.657 249.000 359.033 249.000 361.918 C 249.000 366.243 250.056 367.402 258.081 371.883 C 266.306 376.477 271.797 375.888 273.780 370.201 C 275.507 365.247 273.208 361.883 265.233 357.692 C 257.141 353.439 255.266 353.216 251.635 356.073 "/></g>
<g fill="#000000FF" stroke="#000000FF">
<path d="M 396.652 441.087 C 394.520 444.130 394.555 447.229 396.751 449.941 C 398.127 451.640 400.680 452.454 408.650 453.734 C 418.151 455.260 418.962 455.255 421.398 453.659 C 423.257 452.441 424.000 451.085 424.000 448.911 C 424.000 442.204 420.849 440.495 406.402 439.363 C 398.679 438.758 398.227 438.838 396.652 441.087 "/></g>
<g fill="#000000FF" stroke="#000000FF">
<path d="M 175.655 232.829 C 173.453 235.261 173.568 238.772 176.069 245.454 C 178.225 251.216 180.982 254.000 184.534 254.000 C 187.546 254.000 191.000 250.373 190.999 247.211 C 190.999 243.522 187.258 233.789 185.249 232.250 C 182.837 230.402 177.564 230.720 175.655 232.829 "/></g>
<g fill="#B2EDFFFF" stroke="#B2EDFFFF">
<path d="M 113.441 103.871 C 104.629 110.603 91.813 121.411 89.500 124.062 C 88.400 125.322 91.325 123.065 96.000 119.047 C 100.675 115.028 108.019 109.055 112.319 105.773 C 116.620 102.490 119.995 99.678 119.819 99.523 C 119.644 99.368 116.773 101.324 113.441 103.871 "/></g>
<g fill="#B2EDFFFF" stroke="#B2EDFFFF">
<path d="M 84.000 153.978 L 73.500 164.535 84.000 153.978 L 94.500 143.422 84.000 153.978 "/></g>
<g fill="#B2EDFFFF" stroke="#B2EDFFFF">
<path d="M 157.699 99.304 L 147.898 104.500 158.506 99.519 C 164.340 96.779 168.751 94.441 168.307 94.323 C 167.863 94.205 163.089 96.446 157.699 99.304 "/></g>
<g fill="#B2EDFFFF" stroke="#B2EDFFFF">
<path d="M 49.672 164.548 C 45.366 169.674 41.846 174.095 41.849 174.372 C 41.857 175.136 56.865 157.425 57.204 156.250 C 57.367 155.687 53.977 159.421 49.672 164.548 "/></g>
<g fill="#B2EDFFFF" stroke="#B2EDFFFF">
<path d="M 148.455 303.236 C 149.531 303.931 152.772 306.682 155.657 309.349 C 158.543 312.017 161.488 313.965 162.202 313.678 C 163.124 313.309 163.052 313.135 161.953 313.079 C 161.102 313.036 158.627 311.163 156.453 308.918 C 154.279 306.672 151.150 304.191 149.500 303.403 C 147.850 302.616 147.380 302.540 148.455 303.236 "/></g>
<g fill="#B2EDFFFF" stroke="#B2EDFFFF">
<path d="M 265.000 66.210 C 266.925 67.407 270.750 70.143 273.500 72.290 L 278.500 76.194 274.500 72.484 C 270.375 68.659 263.627 63.987 262.270 64.017 C 261.846 64.026 263.075 65.013 265.000 66.210 "/></g>
<g fill="#59D8FFFF" stroke="#59D8FFFF">
<path d="M 214.000 299.000 L 221.000 306.000 214.000 299.000 L 207.000 292.000 214.000 299.000 "/></g>
<g fill="#59D8FFFF" stroke="#59D8FFFF">
<path d="M 192.000 324.000 L 198.000 330.000 192.000 324.000 L 186.000 318.000 192.000 324.000 "/></g>
<g fill="#B2EDFFFF" stroke="#B2EDFFFF">
<path d="M 166.745 294.547 C 169.629 297.271 171.072 298.279 169.952 296.787 C 168.831 295.295 166.470 293.066 164.707 291.834 C 162.888 290.564 163.771 291.738 166.745 294.547 "/></g>
<g fill="#B2EDFFFF" stroke="#B2EDFFFF">
<path d="M 144.920 283.070 C 147.901 284.128 150.513 284.821 150.724 284.609 C 151.191 284.143 142.082 280.970 140.572 281.073 C 139.982 281.113 141.939 282.012 144.920 283.070 "/></g>
<g fill="#B2EDFFFF" stroke="#B2EDFFFF">
<path d="M 80.969 131.672 L 76.500 136.364 81.630 131.932 C 84.452 129.494 86.463 127.383 86.099 127.240 C 85.735 127.096 83.426 129.091 80.969 131.672 "/></g>
<g fill="#B2EDFFFF" stroke="#B2EDFFFF">
<path d="M 173.205 305.500 C 173.086 306.600 172.290 308.850 171.437 310.500 C 169.983 313.312 169.992 313.396 171.571 311.836 C 172.498 310.921 173.294 308.671 173.340 306.836 C 173.385 305.001 173.325 304.400 173.205 305.500 "/></g>
<g fill="#B2EDFFFF" stroke="#B2EDFFFF">
<path d="M 108.897 131.500 L 104.500 135.500 108.897 131.500 L 113.293 127.500 108.897 131.500 "/></g>
<g fill="#00202DFF" stroke="#00202DFF">
<path d="M 119.000 391.000 L 124.000 396.000 119.000 391.000 L 114.000 386.000 119.000 391.000 "/></g>
<g fill="#B2EDFFFF" stroke="#B2EDFFFF">
<path d="M 156.316 287.317 L 161.133 289.500 157.106 287.250 C 154.892 286.013 152.724 285.030 152.290 285.067 C 151.855 285.103 153.667 286.116 156.316 287.317 "/></g>
<g fill="#B2EDFFFF" stroke="#B2EDFFFF">
<path d="M 42.116 322.098 C 41.502 323.858 41.032 325.794 41.070 326.399 C 41.109 327.005 41.786 325.739 42.574 323.587 C 43.363 321.435 43.833 319.500 43.620 319.286 C 43.406 319.073 42.729 320.338 42.116 322.098 "/></g>
<g fill="#0099D8FF" stroke="#0099D8FF">
<path d="M 45.608 288.085 C 44.018 289.636 42.258 290.814 41.698 290.703 C 41.033 290.570 41.039 290.754 41.715 291.232 C 42.288 291.637 44.037 290.467 45.626 288.614 L 48.500 285.264 45.608 288.085 "/></g>
<g fill="#00202DFF" stroke="#00202DFF">
<path d="M 195.000 135.942 L 191.500 139.562 195.000 135.942 L 198.500 132.323 195.000 135.942 "/></g>
<g fill="#B2EDFFFF" stroke="#B2EDFFFF">
<path d="M 72.629 286.792 C 69.775 288.490 69.780 288.492 73.528 287.050 C 75.602 286.252 76.894 285.484 76.399 285.342 C 75.905 285.201 74.208 285.853 72.629 286.792 "/></g>
<g fill="#B2EDFFFF" stroke="#B2EDFFFF">
<path d="M 68.814 169.219 C 67.336 170.749 66.470 172.000 66.889 172.000 C 67.838 172.000 72.497 167.114 71.921 166.723 C 71.689 166.566 70.291 167.689 68.814 169.219 "/></g>
<g fill="#0099D8FF" stroke="#0099D8FF">
<path d="M 104.500 155.435 L 101.500 158.564 104.500 155.435 L 107.500 152.305 104.500 155.435 "/></g>
<g fill="#0079AAFF" stroke="#0079AAFF">
<path d="M 166.500 353.500 L 170.000 357.000 166.500 353.500 L 163.000 350.000 166.500 353.500 "/></g>
<g fill="#00202DFF" stroke="#00202DFF">
<path d="M 100.500 158.435 L 97.500 161.564 100.500 158.435 L 103.500 155.305 100.500 158.435 "/></g>
</svg>
