<svg xmlns="http://www.w3.org/2000/svg" viewBox="10 10 44 44" width="22" height="22" fill="#757185">
  <path d="M23.773,12C12.855,12,12,12.854,12,23.773v16.454c0,10.918,0.855,11.773,11.773,11.773h16.454
    c10.918,0,11.773-0.855,11.773-11.773V23.773C52,12.854,51.145,12,40.227,12H23.773z M21.168,16h21.664
    c4.793,0,5.168,0.375,5.168,5.168v21.664c0,4.793-0.375,5.168-5.168,5.168H21.168c-4.793,0-5.168-0.375-5.168-5.168V21.168
    C16,16.375,16.375,16,21.168,16z M32.74,19.693v16.602c0,2.282-1.984,3.461-3.408,3.461c-1.073,0-3.514-0.841-3.514-3.488
    c0-2.779,2.277-3.488,3.539-3.488c0.735,0,1.023,0.158,1.023,0.158v-4.43c0,0-0.551-0.082-1.18-0.082
    c-4.519,0-7.736,3.658-7.736,7.842c0,3.535,2.764,7.814,7.814,7.814c5.379,0,7.842-4.486,7.842-7.789v-8.234
    c0,0,2.397,1.678,5.611,1.678v-4.195c-3.687-0.263-5.658-2.74-5.795-5.848H32.74z"/>
</svg>
