<?xml version="1.0" encoding="utf-8"?>
<!DOCTYPE svg PUBLIC "-//W3C//DTD SVG 20010904//EN" "http://www.w3.org/TR/2001/REC-SVG-20010904/DTD/svg10.dtd">
<svg version="1.0" xmlns="http://www.w3.org/2000/svg" width="130pt" height="130pt" viewBox="0 0 130 130" style="" preserveAspectRatio="xMidYMid meet">
<g fill="#2E2D55FF" stroke="#2E2D55FF">
<path d="M 49.395 8.808 C 48.825 9.189 41.573 17.600 33.278 27.500 C 24.983 37.400 16.127 47.506 13.598 49.958 C 11.069 52.410 9.000 54.965 9.000 55.636 C 9.000 57.102 17.272 60.309 25.354 61.977 L 31.207 63.185 30.560 68.842 C 30.205 71.954 28.943 81.250 27.758 89.500 C 26.572 97.750 25.579 106.075 25.551 108.000 C 25.502 111.337 25.675 111.514 29.275 111.812 C 32.721 112.097 33.171 111.835 34.434 108.812 C 35.194 106.990 36.122 103.700 36.496 101.500 C 37.846 93.547 37.942 93.513 41.595 99.698 C 53.450 119.770 76.561 126.945 97.617 117.092 C 118.322 107.403 127.202 81.239 116.918 60.220 C 110.899 47.918 97.987 38.672 84.724 37.166 C 78.089 36.413 66.853 37.473 63.723 39.148 C 62.681 39.706 61.639 39.972 61.407 39.740 C 60.577 38.910 52.950 17.966 51.702 13.090 C 50.933 10.083 50.020 8.390 49.395 8.808 M 87.201 39.124 C 92.857 40.325 100.910 43.981 102.732 46.178 C 103.341 46.911 104.139 48.704 104.504 50.161 C 105.096 52.517 104.549 53.270 99.585 56.937 C 96.513 59.207 94.000 61.624 94.000 62.309 C 94.000 62.995 94.919 64.342 96.041 65.303 C 98.010 66.989 98.021 67.156 96.350 69.985 C 94.705 72.769 94.705 73.017 96.357 74.842 C 97.556 76.167 97.893 77.579 97.440 79.382 C 96.901 81.530 97.130 82.000 98.717 82.000 C 99.781 82.000 101.708 80.875 103.000 79.500 C 104.292 78.125 105.833 77.009 106.424 77.020 C 107.016 77.030 109.863 79.274 112.750 82.005 C 118.460 87.407 119.160 89.857 116.474 95.050 C 115.635 96.672 114.751 98.000 114.509 98.000 C 114.267 98.000 112.532 96.650 110.654 95.001 L 107.238 92.002 101.555 94.603 C 97.609 96.410 95.568 98.014 94.875 99.852 C 94.326 101.309 92.517 103.911 90.854 105.635 C 87.012 109.619 87.333 112.652 91.854 115.068 L 95.209 116.861 89.923 118.430 C 78.631 121.784 64.965 119.326 54.938 112.138 C 48.987 107.872 42.315 99.541 44.011 98.493 C 45.542 97.547 50.846 98.917 56.311 101.671 C 59.283 103.169 61.900 103.849 63.155 103.451 C 64.557 103.006 66.011 103.576 67.844 105.290 C 71.287 108.512 74.081 109.300 77.480 108.008 C 79.679 107.172 80.101 106.521 79.606 104.732 C 79.266 103.504 78.528 99.365 77.967 95.533 C 77.405 91.701 76.253 87.509 75.406 86.216 C 74.201 84.378 74.125 83.554 75.056 82.433 C 75.710 81.645 76.795 81.000 77.467 81.000 C 78.140 81.000 79.474 80.134 80.432 79.076 C 81.957 77.390 82.034 76.478 81.049 71.738 C 80.282 68.039 80.243 65.492 80.927 63.692 C 82.250 60.212 82.043 51.931 80.622 51.494 C 80.005 51.304 77.364 50.863 74.753 50.514 C 69.545 49.817 68.208 48.356 67.767 42.882 C 67.529 39.931 67.827 39.497 70.500 38.903 C 75.314 37.834 81.504 37.916 87.201 39.124 M 66.401 44.326 C 67.401 49.652 69.060 51.103 74.988 51.835 L 80.380 52.500 80.133 57.000 C 79.998 59.475 79.878 65.236 79.867 69.802 L 79.848 78.105 76.424 79.738 C 72.694 81.516 72.006 84.111 74.358 87.527 C 75.454 89.120 78.000 102.062 78.000 106.041 C 78.000 106.568 76.509 107.000 74.687 107.000 C 72.304 107.000 70.559 106.149 68.470 103.968 C 66.168 101.566 65.004 101.060 62.864 101.530 C 61.088 101.920 58.685 101.370 55.852 99.925 C 53.482 98.715 49.327 97.450 46.620 97.113 C 42.005 96.538 41.615 96.262 40.378 92.684 C 39.277 89.499 39.290 87.660 40.458 81.558 C 42.928 68.647 43.915 65.845 45.802 66.380 C 49.455 67.416 65.662 69.179 68.500 68.849 C 71.070 68.550 71.474 68.109 71.316 65.778 C 71.214 64.281 69.302 58.496 67.066 52.923 C 62.552 41.673 62.401 41.000 64.389 41.000 C 65.170 41.000 66.050 42.454 66.401 44.326 M 115.470 61.528 C 118.345 67.606 120.273 78.331 119.208 82.316 L 118.456 85.127 112.670 80.063 C 109.487 77.279 106.594 75.000 106.239 75.000 C 105.885 75.000 104.060 76.463 102.183 78.250 C 99.101 81.184 98.838 81.275 99.475 79.178 C 99.956 77.595 99.624 76.242 98.431 74.924 C 96.966 73.305 96.876 72.568 97.872 70.381 C 99.105 67.676 98.563 64.000 96.933 64.000 C 94.484 64.000 96.497 60.831 101.000 57.595 C 104.878 54.809 106.009 53.386 106.042 51.252 L 106.083 48.500 109.555 52.432 C 111.465 54.595 114.126 58.688 115.470 61.528 M 110.521 96.724 C 113.834 99.368 113.888 99.524 112.338 101.974 C 109.646 106.231 105.708 110.135 101.124 113.090 L 96.747 115.912 92.874 113.936 C 90.743 112.849 89.000 111.461 89.000 110.851 C 89.000 110.241 90.575 107.999 92.500 105.868 C 94.425 103.738 96.000 101.329 96.000 100.516 C 96.000 99.235 104.056 94.177 106.303 94.047 C 106.745 94.021 108.643 95.226 110.521 96.724 M 49.465 24.351 C 51.676 25.968 51.275 30.698 48.041 41.146 C 45.788 48.425 44.572 49.444 40.028 47.860 C 36.230 46.536 36.165 44.745 39.531 34.092 C 42.885 23.475 45.184 21.220 49.465 24.351 M 43.486 50.366 C 45.149 51.582 45.211 52.076 44.056 54.866 C 42.989 57.440 42.198 57.997 39.629 57.985 C 34.776 57.961 33.631 56.780 34.413 52.610 C 35.027 49.339 35.397 49.000 38.354 49.000 C 40.149 49.000 42.458 49.615 43.486 50.366 "/></g>
<g fill="#6683DEFF" stroke="#6683DEFF">
<path d="M 70.594 38.818 C 67.746 39.486 66.219 42.399 68.105 43.565 C 68.615 43.880 68.776 44.554 68.462 45.061 C 67.607 46.446 69.521 49.291 71.638 49.780 C 72.662 50.017 74.850 50.302 76.500 50.414 C 80.518 50.686 82.667 51.776 82.667 53.543 C 82.667 54.344 82.323 55.000 81.903 55.000 C 81.483 55.000 81.517 56.316 81.978 57.925 C 82.440 59.533 82.521 61.146 82.159 61.508 C 81.796 61.870 81.461 62.467 81.414 62.833 C 81.366 63.200 80.980 64.288 80.557 65.250 C 80.133 66.213 80.100 67.788 80.484 68.750 C 82.729 74.378 81.506 80.405 77.959 81.188 C 75.721 81.682 73.544 84.094 74.661 84.841 C 76.468 86.050 77.817 90.458 78.381 97.000 C 78.759 101.390 79.283 103.340 80.284 104.080 C 81.792 105.196 79.848 107.780 77.085 108.333 C 73.354 109.079 70.031 108.110 67.144 105.432 C 65.446 103.858 63.786 103.312 61.380 103.536 C 59.521 103.708 58.000 103.407 58.000 102.866 C 58.000 102.325 57.550 102.160 57.000 102.500 C 56.450 102.840 56.000 102.672 56.000 102.126 C 56.000 101.315 54.001 100.252 51.000 99.468 C 50.725 99.396 49.288 98.994 47.807 98.574 C 43.192 97.268 42.726 98.790 46.236 103.699 C 48.031 106.209 50.625 108.985 52.000 109.868 C 53.375 110.752 55.166 112.113 55.979 112.895 C 61.428 118.128 77.876 121.167 88.250 118.858 C 90.863 118.276 93.000 117.588 93.000 117.329 C 93.000 116.508 90.522 114.341 89.004 113.835 C 86.324 112.941 87.387 108.864 91.331 104.912 C 93.453 102.785 94.855 100.574 94.473 99.956 C 93.750 98.787 97.416 95.703 99.975 95.327 C 100.794 95.207 101.623 94.632 101.817 94.048 C 102.012 93.465 102.582 93.242 103.085 93.553 C 103.588 93.864 104.000 93.737 104.000 93.272 C 104.000 91.324 108.029 92.348 111.078 95.070 C 112.883 96.681 114.493 98.000 114.654 98.000 C 114.816 98.000 115.675 96.595 116.563 94.879 C 119.080 90.010 117.804 85.974 112.488 81.991 C 110.020 80.141 108.000 78.262 108.000 77.814 C 108.000 76.173 105.839 77.070 103.368 79.737 C 100.784 82.525 98.054 83.273 96.807 81.534 C 96.426 81.002 96.582 80.003 97.154 79.314 C 97.901 78.414 97.610 77.319 96.119 75.424 C 94.063 72.810 94.393 70.111 96.962 68.524 C 98.316 67.687 97.069 65.000 95.327 65.000 C 92.939 65.000 94.109 59.672 96.750 58.513 C 97.988 57.970 99.000 57.182 99.000 56.763 C 99.000 56.343 99.605 56.000 100.345 56.000 C 101.700 56.000 104.779 53.151 104.949 51.740 C 104.999 51.321 104.346 49.636 103.497 47.995 C 101.833 44.776 94.763 40.645 88.970 39.508 C 83.506 38.435 73.780 38.070 70.594 38.818 "/></g>
<g fill="#FFE641FF" stroke="#FFE641FF">
<path d="M 37.333 25.878 C 31.192 33.370 22.733 43.194 18.536 47.708 L 10.904 55.916 16.202 57.435 C 35.317 62.916 69.000 68.005 69.000 65.413 C 69.000 65.090 64.933 54.487 59.962 41.850 C 54.992 29.213 50.658 17.542 50.333 15.916 C 50.008 14.289 49.462 12.800 49.121 12.607 C 48.779 12.414 43.475 18.386 37.333 25.878 M 49.465 24.351 C 51.676 25.968 51.275 30.698 48.041 41.146 C 45.788 48.425 44.572 49.444 40.028 47.860 C 36.230 46.536 36.165 44.745 39.531 34.092 C 42.885 23.475 45.184 21.220 49.465 24.351 M 43.486 50.366 C 45.149 51.582 45.211 52.076 44.056 54.866 C 42.989 57.440 42.198 57.997 39.629 57.985 C 34.776 57.961 33.631 56.780 34.413 52.610 C 35.027 49.339 35.397 49.000 38.354 49.000 C 40.149 49.000 42.458 49.615 43.486 50.366 "/></g>
<g fill="#6FF277FF" stroke="#6FF277FF">
<path d="M 63.000 41.926 C 63.000 42.527 64.853 47.357 67.119 52.659 C 69.384 57.961 71.297 63.694 71.369 65.400 C 71.498 68.441 71.403 68.506 66.419 68.796 C 63.624 68.959 57.455 68.478 52.710 67.726 L 44.082 66.360 42.010 75.184 C 38.504 90.120 39.065 94.954 44.317 95.070 C 47.078 95.131 47.235 95.266 45.500 96.084 C 43.849 96.863 44.019 96.955 46.477 96.609 C 48.228 96.363 51.063 97.012 53.364 98.186 C 55.515 99.283 58.348 99.975 59.661 99.724 C 60.974 99.474 62.289 99.658 62.583 100.134 C 62.877 100.610 63.940 101.000 64.944 101.000 C 65.948 101.000 67.482 102.087 68.352 103.415 C 69.930 105.823 72.834 106.003 75.592 103.864 C 76.193 103.398 76.977 103.311 77.336 103.669 C 77.694 104.028 77.284 101.954 76.425 99.060 C 75.566 96.167 75.100 93.182 75.389 92.428 C 75.678 91.674 74.809 88.557 73.458 85.500 C 72.106 82.444 71.000 79.796 71.000 79.616 C 71.000 79.437 72.966 78.047 75.368 76.529 C 79.493 73.921 79.695 73.582 78.985 70.434 C 78.572 68.600 78.505 66.828 78.838 66.496 C 79.170 66.163 78.868 65.537 78.167 65.103 C 77.155 64.478 77.133 63.358 78.060 59.676 C 79.595 53.579 78.892 52.000 74.642 52.000 C 70.361 52.000 67.351 49.512 66.255 45.068 C 65.466 41.869 63.000 39.489 63.000 41.926 M 52.503 70.379 C 54.244 71.651 54.269 71.941 52.829 74.138 C 51.972 75.447 50.055 77.168 48.570 77.963 C 46.213 79.224 45.753 79.223 44.950 77.954 C 42.729 74.442 44.791 69.000 48.344 69.000 C 49.595 69.000 51.466 69.620 52.503 70.379 "/></g>
<g fill="#6FF277FF" stroke="#6FF277FF">
<path d="M 106.000 51.911 C 106.000 53.755 103.097 56.722 97.959 60.131 C 95.600 61.696 95.571 61.841 97.250 63.710 C 99.307 65.999 99.471 68.273 97.775 70.989 C 95.987 73.851 98.185 75.990 101.066 74.191 C 103.167 72.879 105.451 73.461 104.464 75.058 C 104.152 75.563 104.602 75.706 105.464 75.376 C 106.462 74.993 108.652 76.268 111.493 78.887 C 113.947 81.149 116.415 83.000 116.978 83.000 C 117.891 83.000 118.540 74.749 118.039 69.500 C 117.571 64.589 109.124 50.000 106.750 50.000 C 106.338 50.000 106.000 50.860 106.000 51.911 "/></g>
<g fill="#7C2D4DFF" stroke="#7C2D4DFF">
<path d="M 32.580 68.286 C 32.288 70.604 30.913 80.691 29.524 90.701 C 28.136 100.712 27.000 109.149 27.000 109.451 C 27.000 109.753 28.136 110.000 29.525 110.000 C 32.829 110.000 33.474 108.181 36.589 90.080 C 37.969 82.061 39.587 73.558 40.184 71.185 C 41.406 66.330 40.931 65.532 36.306 64.668 C 33.182 64.085 33.100 64.165 32.580 68.286 "/></g>
<g fill="#6FF277FF" stroke="#6FF277FF">
<path d="M 100.750 96.719 C 98.000 98.196 96.000 99.973 96.000 100.939 C 96.000 101.857 94.425 104.134 92.500 106.000 C 90.575 107.866 89.000 109.744 89.000 110.173 C 89.000 110.603 90.089 111.668 91.420 112.540 C 93.700 114.034 94.087 113.970 98.094 111.441 C 100.433 109.964 104.475 106.537 107.075 103.824 L 111.804 98.892 109.537 96.446 C 106.810 93.503 106.735 93.505 100.750 96.719 "/></g>
<g fill="#2E2D55FF" stroke="#2E2D55FF">
<path d="M 42.522 27.602 C 40.143 33.295 38.000 41.115 38.000 44.102 C 38.000 46.352 38.554 46.963 41.099 47.522 C 42.803 47.896 44.585 47.815 45.059 47.341 C 45.532 46.868 47.109 42.012 48.562 36.552 C 51.085 27.075 51.123 26.563 49.411 25.311 C 46.301 23.037 44.127 23.760 42.522 27.602 "/></g>
<g fill="#FF1376FF" stroke="#FF1376FF">
<path d="M 43.701 30.250 C 39.521 41.560 39.166 46.000 42.441 46.000 C 43.401 46.000 44.475 44.104 45.413 40.750 C 49.285 26.909 49.357 26.000 46.577 26.000 C 45.859 26.000 44.565 27.913 43.701 30.250 "/></g>
<g fill="#C3FAC6FF" stroke="#C3FAC6FF">
<path d="M 45.035 70.934 C 43.763 73.311 43.731 76.026 44.950 77.954 C 45.753 79.223 46.213 79.224 48.570 77.963 C 50.055 77.168 51.972 75.447 52.829 74.138 C 54.269 71.941 54.244 71.651 52.503 70.379 C 49.812 68.411 46.244 68.676 45.035 70.934 "/></g>
<g fill="#2E2D55FF" stroke="#2E2D55FF">
<path d="M 35.469 51.500 C 35.211 52.325 34.784 53.689 34.519 54.532 C 33.940 56.376 38.367 58.336 41.130 57.459 C 43.116 56.828 44.623 52.818 43.535 51.057 C 42.510 49.399 36.014 49.755 35.469 51.500 M 41.308 51.565 C 42.185 51.901 42.575 52.911 42.273 54.065 C 41.574 56.736 36.000 56.827 36.000 54.167 C 36.000 51.170 37.879 50.249 41.308 51.565 "/></g>
<g fill="#0CCA15FF" stroke="#0CCA15FF">
<path d="M 106.839 104.004 C 104.276 106.731 100.563 109.915 98.589 111.080 C 94.929 113.240 93.923 115.000 96.350 115.000 C 99.394 115.000 113.000 102.740 113.000 99.997 C 113.000 98.084 111.468 99.081 106.839 104.004 "/></g>
<g fill="#0CCA15FF" stroke="#0CCA15FF">
<path d="M 75.000 76.654 C 71.610 79.060 70.451 81.051 72.500 80.951 C 74.653 80.846 80.000 76.984 80.000 75.534 C 80.000 73.506 79.178 73.690 75.000 76.654 "/></g>
<g fill="#FF1376FF" stroke="#FF1376FF">
<path d="M 37.000 53.393 C 37.000 55.308 40.152 56.363 41.155 54.784 C 42.508 52.651 42.122 52.000 39.500 52.000 C 38.030 52.000 37.000 52.574 37.000 53.393 "/></g>
<g fill="#0CCA15FF" stroke="#0CCA15FF">
<path d="M 78.718 57.683 C 77.518 59.713 76.909 65.000 77.875 65.000 C 78.444 65.000 79.209 63.404 79.575 61.453 C 80.211 58.059 79.735 55.962 78.718 57.683 "/></g>
<g fill="#0CCA15FF" stroke="#0CCA15FF">
<path d="M 75.510 103.984 C 75.165 104.543 73.896 105.014 72.691 105.030 C 70.706 105.058 70.666 105.158 72.270 106.091 C 75.248 107.825 79.954 105.326 77.069 103.543 C 76.557 103.226 75.856 103.425 75.510 103.984 "/></g>
<g fill="#0CCA15FF" stroke="#0CCA15FF">
<path d="M 101.356 74.232 C 100.937 74.910 100.535 76.269 100.463 77.251 C 100.346 78.840 100.586 78.798 102.635 76.873 C 103.902 75.683 104.701 74.325 104.410 73.855 C 103.652 72.627 102.240 72.802 101.356 74.232 "/></g>
<g fill="#0CCA15FF" stroke="#0CCA15FF">
<path d="M 117.997 77.848 C 117.724 81.339 117.859 84.416 118.298 84.686 C 118.736 84.956 118.960 82.100 118.794 78.339 L 118.494 71.500 117.997 77.848 "/></g>
<g fill="#C3FAC6FF" stroke="#C3FAC6FF">
<path d="M 15.500 50.449 L 11.500 54.559 15.500 50.449 L 19.500 46.338 15.500 50.449 "/></g>
<g fill="#0CCA15FF" stroke="#0CCA15FF">
<path d="M 59.554 99.946 C 57.752 100.611 57.786 100.711 60.010 101.292 C 62.693 101.994 63.854 101.421 62.433 100.097 C 61.920 99.618 60.624 99.550 59.554 99.946 "/></g>
<g fill="#0CCA15FF" stroke="#0CCA15FF">
<path d="M 42.000 96.000 C 42.000 97.174 42.769 97.174 45.500 96.000 C 47.272 95.238 47.187 95.133 44.750 95.070 C 43.238 95.032 42.000 95.450 42.000 96.000 "/></g>
<g fill="#6FF277FF" stroke="#6FF277FF">
<path d="M 107.500 107.410 L 105.500 109.567 107.500 107.410 L 109.500 105.253 107.500 107.410 "/></g>
<g fill="#6683DEFF" stroke="#6683DEFF">
<path d="M 102.378 77.378 L 101.500 78.256 102.378 77.378 L 103.256 76.500 102.378 77.378 "/></g>
<g fill="#6683DEFF" stroke="#6683DEFF">
<path d="M 79.387 53.157 C 80.776 53.963 81.090 53.955 80.578 53.126 C 80.195 52.507 79.346 52.014 78.691 52.030 C 78.036 52.047 78.349 52.554 79.387 53.157 "/></g>
<g fill="#C3FAC6FF" stroke="#C3FAC6FF">
<path d="M 96.500 75.500 L 98.000 77.000 96.500 75.500 L 95.000 74.000 96.500 75.500 "/></g>
<g fill="#C3FAC6FF" stroke="#C3FAC6FF">
<path d="M 95.378 59.378 L 94.500 60.256 95.378 59.378 L 96.256 58.500 95.378 59.378 "/></g>
<g fill="#C3FAC6FF" stroke="#C3FAC6FF">
<path d="M 36.422 54.874 C 36.805 55.493 37.654 55.986 38.309 55.970 C 38.964 55.953 38.651 55.446 37.613 54.843 C 36.224 54.037 35.910 54.045 36.422 54.874 "/></g>
<g fill="#C3FAC6FF" stroke="#C3FAC6FF">
<path d="M 39.030 43.691 C 39.014 44.346 39.507 45.195 40.126 45.578 C 40.955 46.090 40.963 45.776 40.157 44.387 C 39.554 43.349 39.047 43.036 39.030 43.691 "/></g>
<g fill="#7C2D4DFF" stroke="#7C2D4DFF">
<path d="M 44.422 26.126 C 43.910 26.955 44.224 26.963 45.613 26.157 C 46.651 25.554 46.964 25.047 46.309 25.030 C 45.654 25.014 44.805 25.507 44.422 26.126 "/></g>
</svg>
