<?xml version="1.0" encoding="utf-8"?>
<!DOCTYPE svg PUBLIC "-//W3C//DTD SVG 20010904//EN" "http://www.w3.org/TR/2001/REC-SVG-20010904/DTD/svg10.dtd">
<svg version="1.0" xmlns="http://www.w3.org/2000/svg" width="514pt" height="514pt" viewBox="0 0 514 514" style="" preserveAspectRatio="xMidYMid meet">
<g fill="#000000FF" stroke="#000000FF">
<path d="M 136.000 33.958 C 83.770 39.387 39.114 75.430 23.663 124.626 C 18.963 139.591 17.644 149.107 17.719 167.500 C 18.141 270.158 81.161 367.667 198.530 447.262 C 214.251 457.924 238.815 472.548 249.813 477.794 L 257.127 481.282 266.313 476.708 C 271.366 474.193 281.800 468.369 289.500 463.767 C 377.855 410.956 445.121 340.064 475.360 267.889 C 489.284 234.654 496.212 201.315 496.222 167.500 C 496.229 143.030 492.433 125.762 482.866 106.733 C 460.083 61.421 415.618 33.805 365.500 33.842 C 337.871 33.863 314.756 40.893 291.741 56.276 C 281.957 62.816 265.203 78.636 260.527 85.750 C 258.991 88.088 257.404 90.000 257.000 90.000 C 256.596 90.000 255.010 88.088 253.476 85.750 C 249.230 79.283 231.373 62.087 223.412 56.799 C 207.148 45.995 192.063 39.646 174.188 36.080 C 162.669 33.782 146.394 32.877 136.000 33.958 M 392.109 51.853 C 399.757 53.876 413.569 58.970 417.739 61.305 L 419.978 62.559 416.341 68.029 C 414.341 71.038 412.578 73.655 412.424 73.845 C 412.270 74.034 405.296 75.912 396.926 78.019 C 377.401 82.932 377.608 82.739 377.159 96.525 C 376.971 102.286 376.710 107.000 376.578 107.000 C 376.446 107.000 368.506 108.581 358.934 110.513 C 346.088 113.106 341.001 114.554 339.514 116.038 C 337.691 117.860 337.452 119.729 336.988 135.775 L 336.476 153.500 328.656 169.060 L 320.835 184.620 325.424 198.661 C 328.200 207.155 330.841 213.452 332.108 214.601 C 333.951 216.271 336.163 216.538 350.454 216.815 L 366.704 217.131 371.442 221.941 L 376.180 226.752 372.598 237.832 C 369.919 246.122 369.245 249.490 369.925 251.206 C 370.424 252.468 375.153 257.775 380.434 263.000 L 390.035 272.500 400.832 272.834 L 411.629 273.167 414.835 282.947 C 416.598 288.326 418.901 293.506 419.953 294.457 C 421.139 295.531 425.359 296.710 431.068 297.562 C 436.129 298.318 440.477 299.144 440.730 299.397 C 441.511 300.177 425.026 323.855 414.898 336.500 C 404.642 349.305 386.633 369.113 381.218 373.545 L 377.936 376.231 366.801 368.866 L 355.666 361.500 341.023 361.181 L 326.380 360.862 323.206 351.178 C 320.037 341.512 320.013 341.476 310.000 331.497 L 299.968 321.500 287.734 321.183 L 275.500 320.866 267.729 313.183 L 259.958 305.500 242.229 305.231 C 229.416 305.037 223.807 305.315 222.000 306.232 C 220.488 307.000 217.949 310.500 215.574 315.091 L 211.647 322.681 200.568 326.328 L 189.488 329.974 179.494 340.003 L 169.500 350.032 169.167 361.384 L 168.834 372.736 163.708 375.118 C 160.889 376.428 155.975 379.413 152.788 381.750 C 149.602 384.088 146.710 386.000 146.363 386.000 C 146.016 386.000 141.503 382.118 136.334 377.373 C 112.549 355.541 85.475 321.269 67.181 289.837 L 62.139 281.173 73.158 280.837 C 87.315 280.404 87.298 280.422 91.906 261.412 L 95.312 247.361 108.194 244.179 L 121.075 240.997 133.630 245.081 C 144.277 248.545 146.589 248.995 148.843 248.042 C 154.166 245.791 174.513 230.381 175.867 227.575 C 177.166 224.880 176.845 223.955 169.286 208.621 L 161.340 192.500 164.322 183.428 L 167.304 174.357 182.902 166.428 L 198.500 158.500 207.417 145.265 C 213.848 135.718 216.333 131.170 216.333 128.947 C 216.333 126.348 214.503 124.029 204.667 114.167 L 193.000 102.470 193.000 92.400 L 193.000 82.330 198.250 72.664 C 201.769 66.186 203.949 63.167 204.862 63.511 C 205.610 63.792 209.435 66.155 213.362 68.760 C 223.409 75.429 238.497 90.753 246.088 102.000 L 252.500 111.500 256.992 111.500 L 261.484 111.500 267.488 102.500 C 285.739 75.139 313.697 56.434 345.330 50.419 C 355.885 48.412 382.146 49.217 392.109 51.853 M 175.500 51.897 C 184.739 54.334 189.000 55.936 189.000 56.974 C 189.000 57.376 186.413 62.384 183.250 68.102 L 177.500 78.500 177.500 93.233 L 177.500 107.966 188.347 118.847 L 199.194 129.728 193.378 138.467 L 187.562 147.207 172.531 154.710 C 164.264 158.837 156.715 162.908 155.756 163.756 C 154.798 164.604 151.949 171.614 149.426 179.334 L 144.839 193.369 151.964 207.840 C 155.883 215.799 158.732 222.632 158.295 223.024 C 157.858 223.416 154.657 225.778 151.182 228.272 L 144.865 232.807 133.152 228.889 L 121.439 224.971 103.606 229.377 C 91.678 232.324 85.126 234.430 83.819 235.736 C 82.680 236.876 80.829 241.817 79.377 247.595 C 78.009 253.043 76.446 259.188 75.906 261.250 L 74.923 265.000 64.605 265.000 L 54.287 265.000 49.601 252.944 C 39.307 226.462 34.134 201.242 33.279 173.364 C 32.826 158.597 33.051 153.397 34.489 145.364 C 43.051 97.536 78.704 60.944 126.500 50.929 C 138.935 48.324 163.817 48.815 175.500 51.897 M 448.830 84.915 C 465.362 101.866 476.065 123.604 480.035 148.291 C 481.590 157.964 480.773 186.169 478.521 200.500 C 474.386 226.821 465.214 255.314 453.830 277.207 C 450.148 284.287 449.605 284.877 447.161 284.451 C 445.697 284.196 441.610 283.553 438.078 283.022 C 434.546 282.490 431.339 281.706 430.952 281.278 C 430.565 280.850 428.807 276.117 427.045 270.760 C 422.656 257.415 422.054 257.000 407.078 257.000 L 395.425 257.000 390.622 252.124 L 385.820 247.248 389.402 236.168 C 392.081 227.878 392.755 224.510 392.075 222.794 C 391.576 221.532 386.847 216.225 381.566 211.000 L 371.966 201.500 357.164 201.181 L 342.362 200.861 339.849 193.181 L 337.336 185.500 345.168 169.645 L 353.000 153.791 353.000 140.520 L 353.000 127.250 370.231 123.875 C 392.726 119.469 392.385 119.745 392.841 105.603 L 393.181 95.028 396.841 94.065 C 398.853 93.534 404.550 92.121 409.500 90.923 C 414.450 89.726 419.500 88.125 420.723 87.367 C 421.946 86.609 425.234 82.599 428.030 78.455 L 433.114 70.922 437.307 74.161 C 439.613 75.942 444.798 80.782 448.830 84.915 M 262.249 328.750 L 270.042 336.500 282.271 336.819 L 294.500 337.138 300.235 342.773 C 305.635 348.079 306.207 349.120 310.030 360.589 C 312.323 367.470 314.984 373.582 316.147 374.635 C 317.946 376.266 320.283 376.540 334.750 376.819 L 351.295 377.138 358.710 382.142 C 365.077 386.438 365.944 387.363 364.847 388.685 C 362.383 391.654 339.423 410.446 326.525 420.050 C 319.361 425.384 306.975 434.025 299.000 439.253 C 284.071 449.039 258.680 464.000 257.000 464.000 C 253.674 464.000 209.675 436.491 191.068 422.777 C 177.702 412.926 159.000 397.842 159.000 396.912 C 159.000 395.650 164.789 391.807 173.933 387.000 C 179.287 384.185 182.956 381.564 183.731 380.000 C 184.488 378.474 184.976 373.201 184.985 366.469 L 185.000 355.437 190.770 349.728 C 196.115 344.438 197.414 343.724 208.422 340.026 C 214.958 337.831 221.049 335.360 221.959 334.537 C 222.869 333.714 224.908 330.331 226.490 327.020 L 229.368 321.000 241.912 321.000 L 254.456 321.000 262.249 328.750 "/></g>
<g fill="#64B5F6FF" stroke="#64B5F6FF">
<path d="M 345.330 50.419 C 313.697 56.434 285.739 75.139 267.488 102.500 L 261.484 111.500 256.992 111.500 L 252.500 111.500 246.088 102.000 C 238.497 90.753 223.409 75.429 213.362 68.760 C 209.435 66.155 205.610 63.792 204.862 63.511 C 203.949 63.167 201.769 66.186 198.250 72.664 L 193.000 82.330 193.000 92.400 L 193.000 102.470 204.667 114.167 C 214.503 124.029 216.333 126.348 216.333 128.947 C 216.333 131.170 213.848 135.718 207.417 145.265 L 198.500 158.500 182.902 166.428 L 167.304 174.357 164.322 183.428 L 161.340 192.500 169.286 208.621 C 176.845 223.955 177.166 224.880 175.867 227.575 C 174.513 230.381 154.166 245.791 148.843 248.042 C 146.589 248.995 144.277 248.545 133.630 245.081 L 121.075 240.997 108.194 244.179 L 95.312 247.361 91.906 261.412 C 87.298 280.422 87.315 280.404 73.158 280.837 L 62.139 281.173 67.181 289.837 C 85.475 321.269 112.549 355.541 136.334 377.373 C 141.503 382.118 146.016 386.000 146.363 386.000 C 146.710 386.000 149.602 384.088 152.788 381.750 C 155.975 379.413 160.889 376.428 163.708 375.118 L 168.834 372.736 169.167 361.384 L 169.500 350.032 179.494 340.003 L 189.488 329.974 200.568 326.328 L 211.647 322.681 215.574 315.091 C 217.949 310.500 220.488 307.000 222.000 306.232 C 223.807 305.315 229.416 305.037 242.229 305.231 L 259.958 305.500 267.729 313.183 L 275.500 320.866 287.734 321.183 L 299.968 321.500 310.000 331.497 C 320.013 341.476 320.037 341.512 323.206 351.178 L 326.380 360.862 341.023 361.181 L 355.666 361.500 366.801 368.866 L 377.936 376.231 381.218 373.545 C 386.633 369.113 404.642 349.305 414.898 336.500 C 425.026 323.855 441.511 300.177 440.730 299.397 C 440.477 299.144 436.129 298.318 431.068 297.562 C 425.359 296.710 421.139 295.531 419.953 294.457 C 418.901 293.506 416.598 288.326 414.835 282.947 L 411.629 273.167 400.832 272.834 L 390.035 272.500 380.434 263.000 C 375.153 257.775 370.424 252.468 369.925 251.206 C 369.245 249.490 369.919 246.122 372.598 237.832 L 376.180 226.752 371.442 221.941 L 366.704 217.131 350.454 216.815 C 336.163 216.538 333.951 216.271 332.108 214.601 C 330.841 213.452 328.200 207.155 325.424 198.661 L 320.835 184.620 328.656 169.060 L 336.476 153.500 336.988 135.775 C 337.452 119.729 337.691 117.860 339.514 116.038 C 341.001 114.554 346.088 113.106 358.934 110.513 C 368.506 108.581 376.446 107.000 376.578 107.000 C 376.710 107.000 376.971 102.286 377.159 96.525 C 377.608 82.739 377.401 82.932 396.926 78.019 C 405.296 75.912 412.270 74.034 412.424 73.845 C 412.578 73.655 414.341 71.038 416.341 68.029 L 419.978 62.559 417.739 61.305 C 413.569 58.970 399.757 53.876 392.109 51.853 C 382.146 49.217 355.885 48.412 345.330 50.419 "/></g>
<g fill="#C5E1A5FF" stroke="#C5E1A5FF">
<path d="M 137.816 49.514 C 137.642 49.685 134.913 50.105 131.752 50.445 C 115.850 52.157 93.212 61.730 78.523 72.955 C 75.895 74.962 58.962 91.895 56.955 94.523 C 45.859 109.044 36.537 130.943 34.298 147.752 C 32.275 162.938 33.792 191.993 37.574 210.500 C 39.846 221.617 40.026 222.416 40.618 224.000 C 40.926 224.825 41.387 226.625 41.641 228.000 C 42.388 232.039 49.563 253.004 52.337 259.250 L 54.890 265.000 64.842 265.000 L 74.795 265.000 78.084 251.250 C 80.319 241.909 82.035 236.838 83.437 235.436 C 84.898 233.974 90.762 232.104 103.528 229.029 L 121.557 224.687 132.754 228.418 C 138.912 230.470 144.524 231.839 145.225 231.460 C 145.926 231.081 149.200 228.957 152.500 226.740 L 158.500 222.710 151.788 209.605 C 148.096 202.397 145.059 195.356 145.038 193.958 C 144.988 190.599 153.549 165.156 155.428 163.079 C 156.235 162.187 163.806 158.092 172.252 153.979 L 187.609 146.500 192.804 138.758 C 195.662 134.500 198.000 130.667 198.000 130.240 C 198.000 129.814 193.275 124.755 187.500 119.000 L 177.000 108.536 177.000 93.172 C 177.000 79.929 177.252 77.442 178.827 75.154 C 179.832 73.694 182.576 68.954 184.925 64.619 C 189.222 56.690 189.267 55.341 185.250 54.890 C 183.424 54.685 182.860 54.536 179.000 53.235 C 172.174 50.934 157.403 48.967 147.834 49.083 C 142.498 49.148 137.990 49.342 137.816 49.514 "/></g>
<g fill="#C5E1A5FF" stroke="#C5E1A5FF">
<path d="M 227.063 327.367 C 225.392 330.870 223.325 334.316 222.470 335.025 C 221.615 335.735 215.679 338.025 209.279 340.114 C 198.210 343.727 197.335 344.217 191.321 350.177 L 185.000 356.442 185.000 367.999 C 185.000 376.957 184.642 380.067 183.405 381.832 C 182.528 383.084 177.926 385.954 173.179 388.209 C 168.431 390.465 163.989 392.803 163.308 393.405 C 162.627 394.007 161.335 395.121 160.437 395.881 C 159.434 396.729 159.197 397.504 159.823 397.891 C 160.969 398.599 166.774 403.312 170.822 406.821 C 176.520 411.760 199.824 429.000 200.802 429.000 C 201.369 429.000 201.983 429.374 202.167 429.831 C 202.604 430.919 220.650 443.000 221.839 443.000 C 222.343 443.000 223.281 443.634 223.924 444.408 C 224.566 445.182 226.534 446.565 228.296 447.481 C 232.179 449.499 234.151 450.672 239.994 454.437 C 242.466 456.030 244.941 457.329 245.494 457.324 C 247.060 457.310 270.825 441.892 284.850 431.792 C 305.118 417.196 333.052 393.868 344.958 381.595 L 349.416 377.000 333.363 377.000 C 318.632 377.000 317.162 376.837 315.517 375.019 C 314.532 373.930 312.007 367.774 309.907 361.341 C 306.271 350.202 305.789 349.340 299.823 343.321 L 293.558 337.000 281.505 337.000 L 269.453 337.000 261.500 329.000 L 253.547 321.000 241.825 321.000 L 230.102 321.000 227.063 327.367 "/></g>
<g fill="#C5E1A5FF" stroke="#C5E1A5FF">
<path d="M 407.250 91.653 L 393.000 95.189 393.000 105.920 C 393.000 120.165 393.626 119.656 370.750 124.019 L 353.000 127.404 353.000 141.576 L 353.000 155.748 345.410 170.854 L 337.820 185.960 340.242 193.230 L 342.664 200.500 357.582 200.775 L 372.500 201.049 382.248 210.754 C 389.055 217.530 392.159 221.369 392.540 223.479 C 392.899 225.474 391.917 229.941 389.646 236.637 L 386.208 246.774 391.386 251.887 L 396.563 257.000 408.607 257.000 C 419.819 257.000 420.794 257.156 422.718 259.250 C 423.854 260.488 425.093 262.963 425.471 264.750 C 426.734 270.721 427.061 270.162 434.661 249.000 C 443.819 223.504 447.873 201.522 448.678 173.000 C 449.116 157.453 448.893 151.582 447.578 144.039 C 445.453 131.860 441.105 118.956 435.406 107.922 C 430.792 98.988 423.452 87.952 422.195 88.059 C 421.813 88.091 415.088 89.709 407.250 91.653 "/></g>
<g fill="#AED581FF" stroke="#AED581FF">
<path d="M 427.759 79.799 L 422.367 87.627 426.149 92.564 C 435.518 104.793 444.492 126.351 447.578 144.039 C 449.593 155.593 449.037 186.785 446.536 202.500 C 443.386 222.289 436.807 245.640 429.468 263.077 L 427.091 268.723 429.214 275.251 L 431.336 281.780 437.418 282.430 C 440.763 282.788 444.876 283.321 446.557 283.615 C 449.612 284.150 449.619 284.139 456.221 270.325 C 470.161 241.157 477.531 212.978 480.027 179.307 C 482.346 148.029 476.323 123.892 460.126 99.547 C 455.333 92.342 441.873 77.986 436.326 74.160 L 433.151 71.971 427.759 79.799 "/></g>
<g fill="#AED581FF" stroke="#AED581FF">
<path d="M 344.958 381.595 C 326.337 400.790 285.997 432.463 257.241 450.468 L 246.111 457.437 250.806 460.201 C 253.387 461.722 256.205 462.974 257.066 462.983 C 259.052 463.005 282.520 449.327 299.500 438.251 C 319.687 425.084 356.598 396.724 363.329 389.210 C 365.134 387.195 365.059 387.101 357.624 382.084 C 353.481 379.288 349.939 377.000 349.753 377.000 C 349.568 377.000 347.410 379.068 344.958 381.595 "/></g>
<g fill="#64B5F6FF" stroke="#64B5F6FF">
<path d="M 188.270 119.601 C 194.171 125.706 199.000 130.423 199.000 130.083 C 199.000 129.743 194.171 124.747 188.270 118.982 L 177.540 108.500 188.270 119.601 "/></g>
<g fill="#64B5F6FF" stroke="#64B5F6FF">
<path d="M 382.500 211.500 L 392.000 221.000 382.500 211.500 L 373.000 202.000 382.500 211.500 "/></g>
<g fill="#64B5F6FF" stroke="#64B5F6FF">
<path d="M 261.500 328.500 L 269.000 336.000 261.500 328.500 L 254.000 321.000 261.500 328.500 "/></g>
<g fill="#64B5F6FF" stroke="#64B5F6FF">
<path d="M 191.000 349.961 L 185.500 355.551 191.000 349.961 L 196.500 344.370 191.000 349.961 "/></g>
<g fill="#64B5F6FF" stroke="#64B5F6FF">
<path d="M 300.000 343.000 L 306.000 349.000 300.000 343.000 L 294.000 337.000 300.000 343.000 "/></g>
<g fill="#64B5F6FF" stroke="#64B5F6FF">
<path d="M 67.000 82.961 L 61.500 88.551 67.000 82.961 L 72.500 77.370 67.000 82.961 "/></g>
<g fill="#64B5F6FF" stroke="#64B5F6FF">
<path d="M 391.000 252.000 L 396.000 257.000 391.000 252.000 L 386.000 247.000 391.000 252.000 "/></g>
<g fill="#64B5F6FF" stroke="#64B5F6FF">
<path d="M 447.000 83.000 L 451.000 87.000 447.000 83.000 L 443.000 79.000 447.000 83.000 "/></g>
</svg>
